<?xml version="1.0" encoding="UTF-8"?>
<svg id="Layer_1" data-name="Layer 1" xmlns="http://www.w3.org/2000/svg" xmlns:xlink="http://www.w3.org/1999/xlink" viewBox="0 0 30.6 45.07">
  <defs>
    <radialGradient id="radial-gradient" cx="-277.31" cy="403.36" fx="-277.31" fy="403.36" r="1" gradientTransform="translate(6327.92 9207.43) scale(22.8 -22.8)" gradientUnits="userSpaceOnUse">
      <stop offset=".37" stop-color="#d9f3fb"/>
      <stop offset=".56" stop-color="#d4f1fb"/>
      <stop offset=".78" stop-color="#c6ecfc"/>
      <stop offset="1" stop-color="#b1e4fe"/>
    </radialGradient>
  </defs>
  <path d="m29.13,25.43c-.64-.16-1.59,1.73-5.02,1.62-3.43-.11-10.1-2.42-15.08,1.84-4.77,4.08-2.27,8.99-3.28,9.42-1.01.43-2.34,0-2.85-.36-.51-.36-1.52-.98-1.7-.98S-.07,37.7,0,38.72c.07,1.01.79,1.37,1.01,1.44.22.07,1.59-.47,2.96-.18,1.37.29,2.13.69,2.38.94.25.25,3.5,4.33,8.88,4.15,5.38-.18,10.14-3.28,12.59-9.38,2.26-5.62,1.88-10.11,1.31-10.25Z" style="fill: #8bc12d;"/>
  <path d="m20.04,32.46c-2.4.77-5.21,1.16-7.21,2.23-1.99,1.06-4.39,3.02-3.36,4,1.04.99,2.73-2.01,6.46-3.21,3.74-1.19,5.27-1.77,6.6-2.65,1.32-.87,2.62-2.7,2.25-2.91-.42-.24-1.61,1.53-4.74,2.54Z" style="fill: #599724;"/>
  <path d="m25.69,13.8s-.48-.45-1.33-.92c-1.01-.57-2.41-1.11-4.25-1.44-2.55-.46-5.85-.57-8.82,2-2.97,2.57-2.85,6.42-1.48,8.85.97,1.71,2.78,3.54,2.49,3.81-.43.39-2.68-.57-4.32-2.62-1.66-2.08-3.58-7.05.31-11.4,3.34-3.74,8.63-3.87,11.78-3.33,4.7.81,7.37,3.3,7.37,3.3,0,0-1.75,1.77-1.76,1.76Z" style="fill: #b1e4fe;"/>
  <path d="m27.14,11.77c2.22,1.42,4.01,3.85,3.3,6.66-.99,3.95-10.19,2.52-12.62,1.88-2.43-.65-12.79-3.31-12.94-11.86C4.73-.1,17.1-.55,16.91.3c-.18.79-6.83,1.02-7.79,5.27-.96,4.25,2.81,6.53,5.53,8.08,2.72,1.55,8.02,2.61,10.1,2.67,1.17.03,1.83-.28,1.9-.83.05-.43-.12-.9-.98-1.71l1.46-2.02Z" style="fill: url(#radial-gradient);"/>
  <path d="m25.69,13.11l-1.61-3.15s.92.34,2.52,1.35c.74.46,1.4,1.08,1.4,1.08l-2.31.72Z" style="fill: #b1e4fe;"/>
</svg>