<svg width="58" height="93" viewBox="0 0 58 93" fill="none" xmlns="http://www.w3.org/2000/svg">
<path d="M48.4135 92.2881H9.58712C7.89901 92.2881 6.53694 90.9184 6.53694 89.2265L0.666992 0.000312805H57.3337L51.4637 89.2265C51.4637 90.9184 50.1016 92.2881 48.4135 92.2881Z" fill="#C5EAFF"/>
<path d="M48.3367 92.2881H29V0.000312805H57.3334L51.4635 89.1594C51.4635 90.8878 50.0632 92.2881 48.3367 92.2881Z" fill="#B0DCF9"/>
<path d="M43.5797 88.083H14.4024C11.0837 88.083 10.163 83.1893 10.163 75.6331L6.65234 22.7493H51.3489L47.8384 81.4898C47.8384 83.1894 46.956 88.083 43.5797 88.083Z" fill="#4AA9FF"/>
<path d="M29 88.083H43.5791C47.2431 88.083 47.8378 83.1894 47.8378 81.4898L51.3483 22.7493H29V88.083Z" fill="#369FFF"/>
<path d="M39.7043 77.124C39.7043 79.7694 37.5557 81.9121 34.9276 81.9121C32.2803 81.9121 30.1318 79.7694 30.1318 77.124C30.1318 74.4806 32.2803 72.3359 34.9276 72.3359C37.5557 72.3359 39.7043 74.4806 39.7043 77.124Z" fill="#B0DCF9"/>
<path d="M31.1493 68.2588C31.1493 69.9507 29.7681 71.3223 28.08 71.3223C26.3919 71.3223 25.0107 69.9507 25.0107 68.2588C25.0107 66.5649 26.3919 65.1932 28.08 65.1932C29.7681 65.1932 31.1493 66.5649 31.1493 68.2588Z" fill="#B0DCF9"/>
<path d="M35.4068 56.1321C35.4068 57.354 34.4093 58.3438 33.2007 58.3438C31.973 58.3438 30.9756 57.354 30.9756 56.1321C30.9756 54.9101 31.973 53.9202 33.2007 53.9202C34.4093 53.9202 35.4068 54.9101 35.4068 56.1321Z" fill="#B0DCF9"/>
<path d="M6.65164 22.749L5.32812 1.91235H52.576L51.3482 22.749H6.65164Z" fill="#C5EAFF"/>
<path d="M29 22.749H51.406L52.6145 1.91235H29V22.749Z" fill="#B0DCF9"/>
</svg>
