<?xml version="1.0" encoding="UTF-8"?>
<svg id="Layer_1" data-name="Layer 1" xmlns="http://www.w3.org/2000/svg" viewBox="0 0 45.94 46.09">
  <path d="m13.03,15.04c-3.64,4.68-3.58,12.99,1.08,17.12,5.28,4.68,12.72,4.63,17.4.33,5.61-5.16,5.28-13.75.33-18.61-4.98-4.89-13.89-5.15-18.8,1.17Z" style="fill: #fcc11a;"/>
  <path d="m18.87,13.43c-1.44-.64-3.02,1.1-3.7,2.28-.69,1.19-1.32,3.52.14,4.11,1.46.59,2.51-.41,3.57-2.15,1.05-1.74,1.64-3.52,0-4.25Z" style="fill: #fee269;"/>
  <path d="m22.62,6.91c-.35.65-.23,1.15.46,1.32.69.17,5.01.87,5.37.89.53.03.72-.36.66-.82-.07-.46-1.12-6.92-1.22-7.51-.1-.59-.72-1.19-1.32-.39-.6.79-3.69,6.03-3.96,6.52Zm11.18,4.49c-.68.21-.66.63-.3,1.15.36.53,2.87,4.35,3.1,4.62.23.26.63.33.96-.07.33-.39,4.45-6.17,4.75-6.53.5-.59.2-1.22-.56-1.02-.58.15-7.52,1.72-7.95,1.85Zm5.17,11.11c-.49-.28-1.12-.2-1.29.43-.17.63-.89,5.17-.96,5.57-.07.4.23.79.72.69.49-.1,7.29-1.11,7.75-1.22.79-.2,1.05-.99.23-1.58-.53-.39-6-3.63-6.46-3.89Zm-5.44,10.78c.52-.28.99-.07,1.12.53.13.59,1.58,6.66,1.81,7.78.12.56-.53,1.02-1.05.69-.53-.33-6.26-4.32-6.63-4.65-.53-.46-.16-.94.1-1.18.52-.5,4.15-2.9,4.65-3.17Zm-15.96,3.33c-.66-.06-.86.53-.76,1.05.1.53,1.09,7.22,1.16,7.71.1.72.86,1.02,1.35.3.49-.73,3.88-6.15,4.16-6.66.5-.92.13-1.12-.36-1.35-.49-.23-4.84-.99-5.54-1.05Zm-9.49-7.68c.46-.76,1.05-.56,1.48.16.29.5,2.77,3.83,3,4.19.23.36.33,1.05-.39,1.22-.73.17-6.63,1.72-7.55,1.88-.92.17-1.45-.56-.86-1.35.35-.47,4.06-5.67,4.32-6.1Zm-1.25-5.74c.84.38,1.24.24,1.42-.36.23-.79.92-4.42.96-5.24.02-.54-.2-1.05-1.02-.92-.82.13-6.76.96-7.51,1.22-.88.31-.82,1.28-.23,1.58.69.36,5.8,3.46,6.4,3.72Zm10.25-13.84c.48-.38.33-.92-.1-1.22-.43-.3-5.72-4.12-6.39-4.65-.59-.46-1.32-.3-1.12.76.14.76,1.83,7.39,1.95,7.84.13.53.53.79.99.46.45-.33,4.18-2.8,4.68-3.19Z" style="fill: #ffa722;"/>
</svg>