<?xml version="1.0" encoding="UTF-8"?>
<svg id="Layer_1" data-name="Layer 1" xmlns="http://www.w3.org/2000/svg" xmlns:xlink="http://www.w3.org/1999/xlink" viewBox="0 0 150.42 477.33">
  <defs>
    <radialGradient id="_Áåçûìÿííûé_ãðàäèåíò_39" data-name="Áåçûìÿííûé ãðàäèåíò 39" cx="49.34" cy="41326.99" fx="49.34" fy="41326.99" r="29.49" gradientTransform="translate(0 -15215.76) scale(1 .38)" gradientUnits="userSpaceOnUse">
      <stop offset="0" stop-color="#fff"/>
      <stop offset=".26" stop-color="#b0b0b0"/>
      <stop offset=".52" stop-color="#656565"/>
      <stop offset=".75" stop-color="#2e2e2e"/>
      <stop offset=".91" stop-color="#0c0c0c"/>
      <stop offset="1" stop-color="#000"/>
    </radialGradient>
    <mask id="mask" x="19.55" y="453.44" width="59.57" height="23.89" maskUnits="userSpaceOnUse">
      <ellipse cx="49.34" cy="465.39" rx="29.78" ry="11.95" style="fill: url(#_Áåçûìÿííûé_ãðàäèåíò_39);"/>
    </mask>
    <radialGradient id="_Áåçûìÿííûé_ãðàäèåíò_39-2" data-name="Áåçûìÿííûé ãðàäèåíò 39" cx="101.32" fx="101.32" r="29.49" xlink:href="#_Áåçûìÿííûé_ãðàäèåíò_39"/>
    <mask id="mask-1" x="71.54" y="453.44" width="59.57" height="23.89" maskUnits="userSpaceOnUse">
      <ellipse cx="101.32" cy="465.39" rx="29.78" ry="11.95" style="fill: url(#_Áåçûìÿííûé_ãðàäèåíò_39-2);"/>
    </mask>
    <radialGradient id="_Áåçûìÿííûé_ãðàäèåíò_40" data-name="Áåçûìÿííûé ãðàäèåíò 40" cx="-417.81" cy="41326.99" fx="-417.81" fy="41326.99" r="24.8" gradientTransform="translate(1326.45 -15215.76) scale(2.99 .38)" gradientUnits="userSpaceOnUse">
      <stop offset="0" stop-color="#fff"/>
      <stop offset=".37" stop-color="#fdfdfd"/>
      <stop offset=".51" stop-color="#f6f6f6"/>
      <stop offset=".6" stop-color="#eaeaea"/>
      <stop offset=".68" stop-color="#d9d9d9"/>
      <stop offset=".75" stop-color="#c3c3c3"/>
      <stop offset=".8" stop-color="#a8a8a8"/>
      <stop offset=".86" stop-color="#878787"/>
      <stop offset=".91" stop-color="#626262"/>
      <stop offset=".95" stop-color="#373737"/>
      <stop offset=".99" stop-color="#090909"/>
      <stop offset="1" stop-color="#000"/>
    </radialGradient>
    <mask id="mask-2" x=".2" y="455.34" width="150.05" height="20.1" maskUnits="userSpaceOnUse">
      <ellipse cx="75.23" cy="465.39" rx="75.02" ry="10.05" style="fill: url(#_Áåçûìÿííûé_ãðàäèåíò_40); opacity: .13;"/>
    </mask>
  </defs>
  <g>
    <g style="fill: none; mask: url(#mask);">
      <ellipse cx="49.34" cy="465.39" rx="29.78" ry="11.95" style="fill: #bababf;"/>
    </g>
    <g style="fill: none; mask: url(#mask-1);">
      <ellipse cx="101.32" cy="465.39" rx="29.78" ry="11.95" style="fill: #bababf;"/>
    </g>
    <g style="fill: none; mask: url(#mask-2);">
      <ellipse cx="75.23" cy="465.39" rx="75.02" ry="10.05" style="fill: #bababf;"/>
    </g>
  </g>
  <g>
    <path d="m35.71,466.57c-.67,1.49.58,2.48,2.03,2.52s1.52-.56,1.52-.56c.79,1.13,2.75,1.37,4.57.83.9.65,3.46.84,5.18.27.66.74,3.81.89,5.27.02.86.89,2.95.99,4.68.59,2.04-.47,3.95-2.44,3.75-6.01-.2-3.57-1.98-16.22-1.98-16.22,0,0-7.4-1.86-7.42-1.86s-6.41,1.86-6.41,1.86l-7.42,11.17c-1.54,2.33-2.81,4.8-3.76,7.37h0Z" style="fill: #fb9b67;"/>
    <path d="m58.95,470.26c1.81-.42,3.52-2.02,3.74-4.87-1.84,3.09-3.66,3.6-5.34,3.56-1.69-.04-2.97-.83-3.01-2.18-.44,2.14-1.58,2.22-2.81,2.32-1.23.1-2.46-.61-2.68-1.53-.26,1.35-2.02,1.47-2.68,1.53-.66.06-2.2-.5-2.33-1.92-.18,1.31-1.49,1.43-2.37,1.35-.88-.08-2.15-.83-2.27-1.98-.33,1.35-1.07,1.47-1.82,1.43-.68-.04-1.28-.24-1.73-1.25-.53,1.41.67,2.34,2.08,2.38,1.45.04,1.52-.56,1.52-.56.79,1.13,2.75,1.37,4.57.83.9.65,3.46.84,5.18.27.66.74,3.81.89,5.27.02.86.89,2.95.99,4.68.59Z" style="fill: #f28c63;"/>
    <path d="m60.65,466.54c.06,1.06-1.13,1.81-2.69,1.89-1.56.08-3.07-.16-3.11-1.62-.03-1.06,5.74-1.33,5.8-.27Z" style="fill: #ffad73;"/>
    <path d="m53.72,467.4c-.03.68-1.04,1.43-2.25,1.38-1.21-.04-2.16-.63-2.13-1.31.03-.68,4.41-.75,4.38-.08Z" style="fill: #ffad73;"/>
    <path d="m48.12,467.36c0,.59-.81,1.07-1.82,1.07s-1.82-.48-1.82-1.07,3.64-.59,3.64,0Z" style="fill: #ffad73;"/>
    <path d="m43.08,467.23c-.08.59-.83.98-1.67.89-.84-.1-1.45-.66-1.37-1.24.08-.59,3.13-.23,3.04.36Z" style="fill: #ffad73;"/>
    <path d="m38.37,466.73c-.08.42-.6.7-1.16.61-.56-.09-.95-.5-.87-.92.08-.42,2.12-.11,2.04.31Z" style="fill: #ffad73;"/>
  </g>
  <path d="m75.23,235.28c0-.12-.45-.23-.46-.34.45-12.1-38.34-16.6-39.32-9.05-5.45,42.28-4.56,61.1-2.14,77.62,1.19,8.11,2.93,14.27,4.39,19.79,1.21,4.59,1.89,9.31,2.03,14.06l.03,1.03c.11,3.79-.12,7.58-.7,11.33-1.01,6.61-2.52,18.42-2.32,29.2.4,21.46,7.3,29.26,10.05,69.9l14.01-.13.12-28.42c.18-.86.28-1.73.31-2.61.63-19.73,4.98-27.12,4.81-45.37-.07-7.5-1.42-19.2-3.19-25.84-.04-.38-.08-.75-.1-1.1v-2.44c.41-5.94,4.26-11.54,6.46-32.96,1.42-13.78,3.78-30.64,5.1-46.08,1.03-12.05.66-23.45.9-28.56Z" style="fill: #fb9b67;"/>
  <g>
    <path d="m114.72,466.57c.67,1.49-.58,2.48-2.03,2.52s-1.52-.56-1.52-.56c-.79,1.13-2.75,1.37-4.57.83-.9.65-3.46.84-5.18.27-.66.74-3.81.89-5.27.02-.86.89-2.95.99-4.68.59-2.04-.47-3.95-2.44-3.75-6.01.2-3.57,1.98-16.22,1.98-16.22,0,0,7.4-1.86,7.42-1.86s6.41,1.86,6.41,1.86l7.42,11.17c1.54,2.33,2.81,4.8,3.76,7.37h0Z" style="fill: #fb9b67;"/>
    <path d="m91.48,470.26c-1.81-.42-3.52-2.02-3.74-4.87,1.84,3.09,3.66,3.6,5.34,3.56,1.69-.04,2.97-.83,3.01-2.18.44,2.14,1.58,2.22,2.81,2.32,1.23.1,2.46-.61,2.68-1.53.26,1.35,2.02,1.47,2.68,1.53.66.06,2.2-.5,2.33-1.92.18,1.31,1.49,1.43,2.37,1.35.88-.08,2.15-.83,2.27-1.98.33,1.35,1.07,1.47,1.82,1.43.68-.04,1.28-.24,1.73-1.25.53,1.41-.67,2.34-2.08,2.38-1.45.04-1.52-.56-1.52-.56-.79,1.13-2.75,1.37-4.57.83-.9.65-3.46.84-5.18.27-.66.74-3.81.89-5.27.02-.86.89-2.95.99-4.68.59Z" style="fill: #f28c63;"/>
    <path d="m89.78,466.54c-.06,1.06,1.13,1.81,2.69,1.89,1.56.08,3.07-.16,3.11-1.62.03-1.06-5.74-1.33-5.8-.27Z" style="fill: #ffad73;"/>
    <path d="m96.72,467.4c.03.68,1.04,1.43,2.25,1.38,1.21-.04,2.16-.63,2.13-1.31-.03-.68-4.41-.75-4.38-.08Z" style="fill: #ffad73;"/>
    <path d="m102.32,467.36c0,.59.81,1.07,1.82,1.07s1.82-.48,1.82-1.07-3.64-.59-3.64,0Z" style="fill: #ffad73;"/>
    <path d="m107.36,467.23c.08.59.83.98,1.67.89.84-.1,1.45-.66,1.37-1.24-.08-.59-3.13-.23-3.04.36Z" style="fill: #ffad73;"/>
    <path d="m112.07,466.73c.08.42.6.7,1.16.61.56-.09.95-.5.87-.92-.08-.42-2.12-.11-2.04.31Z" style="fill: #ffad73;"/>
  </g>
  <path d="m75.21,235.28c0-.12.45-.23.46-.34-.45-12.1,38.34-16.6,39.32-9.05,5.45,42.28,4.56,61.1,2.14,77.62-1.19,8.11-2.93,14.27-4.39,19.79-1.21,4.59-1.89,9.31-2.03,14.06l-.03,1.03c-.11,3.79.12,7.58.7,11.33,1.01,6.61,2.52,18.42,2.32,29.2-.4,21.46-7.3,29.26-10.05,69.9l-14.01-.13-.12-28.42c-.18-.86-.28-1.73-.31-2.61-.63-19.73-4.98-27.12-4.81-45.37.07-7.5,1.42-19.2,3.19-25.84.04-.38.08-.75.1-1.1v-2.44c-.41-5.94-4.26-11.54-6.46-32.96-1.42-13.78-3.78-30.64-5.1-46.08-1.03-12.05-.66-23.45-.9-28.56Z" style="fill: #fb9b67;"/>
  <path d="m111.82,78.49c-17.53-6.79-22.16-8.59-22.16-8.59h-28.91s-4.63,1.79-22.16,8.59c-17.53,6.79-9.17,45.18-4.5,52.21,0,0,4.1,42.71,4.1,52.41s-1.18,26.98-2.12,40.33c-.94,13.34,18.33,14,39.11,14h0s.02,0,.03,0,.02,0,.03,0h0c20.77,0,40.04-.66,39.11-14-.94-13.35-2.12-30.63-2.12-40.33s4.1-52.41,4.1-52.41c4.67-7.03,13.03-45.42-4.5-52.21Z" style="fill: #fb9b67;"/>
  <path d="m4.64,231.46l-1.23,23.69c-.07,1.27.15,2.55.65,3.72l3.11,7.44c1.56,3.73,3.75,7.16,6.46,10.15l5.14,5.66.98-1.57c1-1.61,1.1-3.63.26-5.33l-4.27-8.63-.45-15.12,2.88,5.32,1.16,5.85c.55,2.76,3.09,4.66,5.89,4.4h0l-.07-21.8c0-1.17-.38-2.31-1.08-3.25l-7.64-10.3-11.78-.23Z" style="fill: #fb9b67;"/>
  <path d="m4.54,231.46c0-9.94-2.66-28.49-3.57-36.37-.91-7.88-2.43-18.11,2.33-30.11.4-9.16,2.24-45.09,13.23-68.36,2.04-3.57,5.72-9.34,14.77-8.42,9.05.92,5.61,19.29,3.94,26.55-1.67,7.26-11.98,48.35-12.58,51.08s1.67,8.41.23,20.24c-1.05,8.63-6.67,30.37-6.56,45.62-3.22,1.46-10.79,1.88-11.78-.23Z" style="fill: #fb9b67;"/>
  <path d="m9.12,118.88c-.78-17.04,3.17-39.03,31.82-40.63,27.74-1.55-8.15,34.62-14.39,40.63-6.24,6-16.96,10.68-17.44,0Z" style="fill: #fb9b67;"/>
  <path d="m145.78,231.46l1.23,23.69c.07,1.27-.15,2.55-.65,3.72l-3.11,7.44c-1.56,3.73-3.75,7.16-6.46,10.15l-5.14,5.66-.98-1.57c-1-1.61-1.1-3.63-.26-5.33l4.27-8.63.45-15.12-2.88,5.32-1.16,5.85c-.55,2.76-3.09,4.66-5.89,4.4h0l.07-21.8c0-1.17.38-2.31,1.08-3.25l7.64-10.3,11.78-.23Z" style="fill: #fb9b67;"/>
  <path d="m145.87,231.46c0-9.94,2.66-28.49,3.57-36.37.91-7.88,2.43-18.11-2.33-30.11-.4-9.16-2.24-45.09-13.23-68.36-2.04-3.57-5.72-9.34-14.77-8.42-9.05.92-5.61,19.29-3.94,26.55,1.67,7.26,11.98,48.35,12.58,51.08.61,2.73-1.67,8.41-.23,20.24,1.05,8.63,6.67,30.37,6.56,45.62,3.22,1.46,10.79,1.88,11.78-.23Z" style="fill: #fb9b67;"/>
  <path d="m141.29,118.88c.78-17.04-3.17-39.03-31.82-40.63-27.74-1.55,8.15,34.62,14.39,40.63,6.24,6,16.96,10.68,17.44,0Z" style="fill: #fb9b67;"/>
  <path d="m116.98,117.15c.86,9.62-6.14,13.55-12.4,13.55h-58.75c-6.25,0-13.25-3.93-12.4-13.55-2.73,9.78.66,13.55.66,13.55l4.06,50.5c0-22.8,11.88-46.87,37.05-46.95,25.17.07,37.05,24.15,37.05,46.95l4.06-50.5s3.38-3.77.66-13.55Z" style="fill: #f28c63;"/>
  <path d="m75.24,240c10.24,0,9.25-13.33,39.96-13.33-.14-8.77-2.4-27.38-2.4-27.38H37.63s-2.26,18.62-2.4,27.38c30.01,0,30.31,13.33,39.96,13.33h0s.02,0,.03,0c0,0,.02,0,.03,0h0Z" style="fill: #f1f2f2;"/>
  <g>
    <rect x="60.04" y="48.26" width="30.66" height="22.55" style="fill: #fb9b67;"/>
    <polygon points="60.04 70.22 90.7 59.53 90.7 48.26 60.04 48.26 60.04 70.22" style="fill: #f28c63;"/>
    <polygon points="60.04 55.34 71.27 66.3 82.61 62.35 90.7 54.55 90.7 48.26 60.04 48.26 60.04 55.34" style="fill: #e07f57;"/>
  </g>
  <path d="m75.33,5.41c-10.35,0-19.2,8.39-19.2,18.74l2.05,22.74c0,3.54,1.66,6.87,4.49,8.99l5.91,5.64c1.57,1.18,3.47,1.82,5.43,1.82h2.63c1.96,0,3.87-.64,5.43-1.82l5.91-5.64c2.83-2.12,4.49-5.45,4.49-8.99l2.05-22.74c0-10.35-8.85-18.74-19.2-18.74Z" style="fill: #fb9b67;"/>
  <path d="m59.17,43.65l-.34-.08c-2.18-.48-3.91-2.65-4.26-5.33l-.66-5.08c-.12-.93.52-1.69,1.27-1.52l.23.05c1.34.3,2.42,1.64,2.63,3.29l1.13,8.66Z" style="fill: #fb9b67;"/>
  <path d="m91.28,43.68l.34-.08c2.18-.49,3.91-2.66,4.25-5.34l.65-5.08c.12-.93-.52-1.69-1.28-1.52l-.23.05c-1.34.3-2.41,1.64-2.62,3.3l-1.1,8.66Z" style="fill: #fb9b67;"/>
  <g>
    <polygon points="73.45 46.81 77.22 46.81 80.4 45.27 70.26 45.27 73.45 46.81" style="fill: #f28c63;"/>
    <polygon points="77.67 43.74 72.99 43.74 70.26 45.27 80.4 45.27 77.67 43.74" style="fill: #e07f57;"/>
  </g>
  <path d="m75.33,4.1h0s-.03,0-.05,0c-.02,0-.03,0-.05,0h0c-14.19.06-20.5,9.79-19.74,18.9.55,6.55,2.14,17.82,2.14,17.82h0c.28-21.77,3.84-23.65,5.11-23.43l5.47.94c4.68.81,9.46.81,14.13,0l5.47-.94c1.27-.22,4.51-.31,5.11,23.43h0s1.74-11.26,2.14-17.82c.6-9.72-5.55-18.84-19.74-18.9Z" style="fill: #965947;"/>
  <g>
    <path d="m67.55,50.24l-1.02.04c-.2,0-.39-.11-.48-.3l-.06-.13c-.12-.27.02-.58.3-.67h0c.2-.07.41,0,.54.16l.72.89Z" style="fill: #c4735a;"/>
    <path d="m83.18,50.24l1.02.04c.2,0,.39-.11.48-.3l.06-.13c.12-.27-.02-.58-.3-.67h0c-.2-.07-.41,0-.54.16l-.72.89Z" style="fill: #c4735a;"/>
    <path d="m67.18,50.16l1.67,1.56,2.8.88s.42-2.57.3-2.57-4.77.13-4.77.13Z" style="fill: #965947;"/>
    <path d="m83.55,50.16l-1.67,1.56-2.8.88s-.42-2.57-.3-2.57,4.77.13,4.77.13Z" style="fill: #965947;"/>
    <polygon points="81.89 50.27 77.5 49.96 75.37 50.66 73.24 49.96 68.85 50.27 71.1 52.46 75.37 52.82 75.37 52.84 75.48 52.83 75.59 52.84 75.59 52.82 79.63 52.46 81.89 50.27" style="fill: #fff;"/>
    <path d="m77.96,54.09h-5.19l-.83.62c-.27.2-.13.63.21.63h6.43c.34,0,.48-.43.21-.63l-.83-.62Z" style="fill: #e07f57;"/>
    <polygon points="78.06 49.03 75.37 49.48 72.68 49.03 67.14 50.16 75.37 50.66 83.59 50.16 78.06 49.03" style="fill: #e07f57;"/>
    <path d="m75.14,52.35h-.29c-2.71,0-5.36-.76-7.66-2.18l2.28,2.46c.87.94,2.08,1.47,3.36,1.47h2.55v-1.74h-.23Z" style="fill: #ffad73;"/>
    <path d="m75.89,52.35h-.52v1.74h2.55c1.28,0,2.49-.53,3.36-1.47l2.28-2.46c-2.3,1.43-4.96,2.18-7.66,2.18Z" style="fill: #ffad73;"/>
  </g>
  <g>
    <path d="m71.47,29.51l-6.37-.35c-1.2-.07-2.4.19-3.48.73l-1.94.99,1.99-2.61c.74-.97,1.98-1.44,3.18-1.2l5.99,1.2.63,1.25Z" style="fill: #965947;"/>
    <path d="m79.19,29.51l6.27-.35c1.27-.07,2.53.21,3.64.82l1.65.89-1.78-2.51c-.73-1.03-2-1.54-3.24-1.29l-5.91,1.18-.63,1.25Z" style="fill: #965947;"/>
  </g>
  <g>
    <g>
      <path d="m60.98,35.61s4.81-3.54,4.87-3.45c.05.09,3,.43,3,.43l1.3.98.41,2.03-.31.27h-8.89l-.39-.27Z" style="fill: #fff;"/>
      <g>
        <circle cx="66.45" cy="34.09" r="2.18" transform="translate(-6.06 16.18) rotate(-13.28)" style="fill: #5b7491;"/>
        <path d="m67.9,34.09c0-.8-.65-1.46-1.46-1.46s-1.46.65-1.46,1.46.65,1.46,1.46,1.46,1.46-.65,1.46-1.46Z" style="fill: #231f20;"/>
      </g>
      <path d="m65.38,31.9c-2.8.56-3.01,2.73-4.42,3.65v.05h1.47c-.58,0,1.09-2.34,2.86-2.78,2.59-.65,4.3.21,5.08,2.78h.38v-.05c0-2.7-2.23-4.28-5.36-3.65Z" style="fill: #965947;"/>
      <path d="m70.71,35.61h-9.73c0,1.42,2.18,2.57,4.87,2.57s4.87-1.15,4.87-2.57Z" style="fill: #fb9b67;"/>
      <path d="m68.28,33.69c0-.26-.21-.48-.48-.48s-.48.21-.48.48.21.48.48.48.48-.21.48-.48Z" style="fill: #fff;"/>
    </g>
    <g>
      <path d="m89.5,35.61s-4.81-3.54-4.87-3.45c-.05.09-3,.43-3,.43l-1.3.98-.41,2.03.31.27h8.89l.39-.27Z" style="fill: #fff;"/>
      <g>
        <circle cx="84.03" cy="34.09" r="2.18" transform="translate(31.54 108.05) rotate(-76.72)" style="fill: #5b7491;"/>
        <path d="m82.58,34.09c0-.8.65-1.46,1.46-1.46s1.46.65,1.46,1.46-.65,1.46-1.46,1.46-1.46-.65-1.46-1.46Z" style="fill: #231f20;"/>
      </g>
      <path d="m85.1,31.9c2.8.56,3.01,2.73,4.42,3.65v.05h-1.47c.58,0-1.09-2.34-2.86-2.78-2.59-.65-4.3.21-5.08,2.78h-.38v-.05c0-2.7,2.23-4.28,5.36-3.65Z" style="fill: #965947;"/>
      <path d="m79.77,35.61h9.73c0,1.42-2.18,2.57-4.87,2.57s-4.87-1.15-4.87-2.57Z" style="fill: #fb9b67;"/>
      <path d="m84.81,33.69c0-.26.21-.48.48-.48s.48.21.48.48-.21.48-.48.48-.48-.21-.48-.48Z" style="fill: #fff;"/>
    </g>
  </g>
  <path d="m55.96,27.98c-1.54-12.06-1.62-18.18,5.2-19.89,1.52-6.72,10.16-8.08,16.3-8.08s14.23,4.09,15.19,12.58c3.84,1.36,2.68,9.34,1.67,16.19-2.68-11.64-7.12-15.59-9.6-17.41-2.48-1.82-24.03-1.36-25.76,1.82s-3,14.79-3,14.79Z" style="fill: #965947;"/>
  <path d="m92.87,32.83l-1.06,8.16c-.15,1.18-.72,2.27-1.6,3.07l-2.1,1.92c-.58.53-.93,1.27-.99,2.05l-.21,3.25c-.06.89-.44,1.73-1.08,2.36l-1.12,1.11.41-4.84c.12-1.4-.65-2.73-1.93-3.33l-2.81-1.31h-10.09l-2.81,1.31c-1.28.6-2.05,1.93-1.93,3.33l.41,4.84-1.12-1.11c-.64-.63-1.02-1.47-1.08-2.36l-.21-3.25c-.05-.79-.41-1.52-.99-2.05l-2.1-1.92c-.88-.8-1.45-1.89-1.6-3.07l-1.06-8.16-1.03,1.1s.63,7.39,1.31,16.17c.68,8.77,8.94,15.34,17.24,15.34h0s.05,0,.05,0c8.3,0,16.55-6.57,17.24-15.34.68-8.77,1.31-16.17,1.31-16.17l-1.03-1.1Zm-13.99,25.32h-.6v-1.06c0-.71-.58-1.29-1.29-1.29h-3.33c-.71,0-1.29.58-1.29,1.29v1.06h-.6c-1.52,0-2.98-.6-4.07-1.67l-.15-.15-.8-6.24,6.03-1.11,2.49.36v.02h.06s.06,0,.06,0v-.02l2.49-.36,6.03,1.11-.8,6.24-.15.15c-1.08,1.07-2.55,1.67-4.07,1.67Z" style="fill: #965947;"/>
</svg>