<svg id="Icons" height="512" viewBox="0 0 60 60" width="512" xmlns="http://www.w3.org/2000/svg"><path d="m11 6a2 2 0 0 1 2 2v14a0 0 0 0 1 0 0h-4a0 0 0 0 1 0 0v-14a2 2 0 0 1 2-2z" fill="#c3def0"/><path d="m17 49.89v-30.89a10 10 0 0 1 10-10h12a10.029 10.029 0 0 1 10 10v31z" fill="#ad7868"/><path d="m49.451 25.26a9.238 9.238 0 0 1 -.9 3.98l-7.03 14.14a8.286 8.286 0 0 1 -1.3 1.79l-1.221-.17-8-7 7.07-15 .93-2h-15.509a2.5 2.5 0 0 1 -2.491-2.51v-.07a2.431 2.431 0 0 1 2.431-2.42h16.769a9.311 9.311 0 0 1 4.24 1.03l3.6 3.32a9.278 9.278 0 0 1 1.411 4.91z" fill="#c3def0"/><path d="m49.761 16.88-1.63 3.34a1 1 0 0 1 -1.34.45l-1.54-.75a2 2 0 0 1 -.91-2.68l.96-1.96z" fill="#e8bfaa"/><path d="m54.782 10.94a1.885 1.885 0 0 1 -1.011 3.57 1.03 1.03 0 0 0 -.99.4 4.707 4.707 0 0 1 -6.37 1.35 4.861 4.861 0 0 1 -1.67-6.27l1.58-3.21 2.679-.78z" fill="#fcd7c0"/><path d="m55.612 9.24-.83 1.7a21.1 21.1 0 0 1 -5.951-3.92.844.844 0 0 0 -.831-.22 2.457 2.457 0 0 1 -1.68-.02l.41-.831a4.991 4.991 0 0 0 .22-4.44.359.359 0 0 1 .49-.47l6.45 3.17a3.749 3.749 0 0 1 1.722 5.031z" fill="#ad7868"/><path d="m40.221 45.17a8.858 8.858 0 0 1 -13.85-1.11l-5.371-8.06-5-4h-8.5a3.5 3.5 0 0 1 -3.5-3.5 3.517 3.517 0 0 1 3.5-3.5h10.5a6.919 6.919 0 0 1 5.051 2.19l8.73 9.36z" fill="#427ec4"/><path d="m15 55 1.448 2.894a2 2 0 0 0 1.788 1.106h3.528a2 2 0 0 0 1.789-1.106l1.447-2.894-5-1z" fill="#ffbc73"/><path d="m41 55 1.447 2.894a2 2 0 0 0 1.79 1.106h3.528a2 2 0 0 0 1.789-1.106l1.446-2.894-5-1z" fill="#ffbc73"/><path d="m20 48h26.001v7h-26.001z" fill="#ce9c88"/><path d="m16 32a5 5 0 0 1 5 5v18a0 0 0 0 1 0 0h-8a2 2 0 0 1 -2-2v-16a5 5 0 0 1 5-5z" fill="#966255"/><path d="m50 32a5 5 0 0 1 5 5v16a2 2 0 0 1 -2 2h-8a0 0 0 0 1 0 0v-18a5 5 0 0 1 5-5z" fill="#966255"/><rect fill="#e4f2ff" height="4" rx="1" width="18.001" x="8" y="21"/><path d="m56.741 6.035a4.7 4.7 0 0 0 -2.409-2.725l-6.455-3.17a1.359 1.359 0 0 0 -1.836 1.786 4.027 4.027 0 0 1 -.208 3.579l-.406.826-.009.012v.013l-1.418 2.868a10.9 10.9 0 0 0 -5-1.224h-12a11.013 11.013 0 0 0 -11 11v1h-2v-12a3 3 0 0 0 -6 0v12.278a1.993 1.993 0 0 0 -1 1.722v2 .05a4.488 4.488 0 0 0 .5 8.95h4.04a5.969 5.969 0 0 0 -1.54 4v16a3 3 0 0 0 3 3h1.382l1.171 2.342a2.985 2.985 0 0 0 2.683 1.658h3.528a2.985 2.985 0 0 0 2.683-1.658l1.171-2.342h14.764l1.171 2.342a2.985 2.985 0 0 0 2.683 1.658h3.528a2.985 2.985 0 0 0 2.683-1.658l1.171-2.342h1.382a3 3 0 0 0 3-3v-16a6 6 0 0 0 -7.242-5.869l.694-1.46a10.147 10.147 0 0 0 -.277-9.313l1.272-2.608a5.848 5.848 0 0 0 3.218-2.25 2.906 2.906 0 0 0 2.885-1.6 2.894 2.894 0 0 0 -.512-3.252l.469-.959a4.737 4.737 0 0 0 .234-3.654zm-3.287-.929a2.755 2.755 0 0 1 1.259 3.7l-.379.776a18.716 18.716 0 0 1 -4.783-3.25 1.8 1.8 0 0 0 -1.67-.512 6.151 6.151 0 0 0 .424-3.243zm-6.225 14.662-1.534-.747a1 1 0 0 1 -.455-1.343l.379-.773c.092.066.171.145.269.2a5.729 5.729 0 0 0 2.251.805zm-29.229-.768a9.01 9.01 0 0 1 9-9h12a8.911 8.911 0 0 1 4.345 1.158 5.951 5.951 0 0 0 .8 4.2l-.184.374a10.313 10.313 0 0 0 -3.761-.732h-16.77a3.474 3.474 0 0 0 -3.077 5h-2.353zm13.5 15.782-7.72-8.274c-.167-.179-.345-.347-.527-.508h1.747a2 2 0 0 0 2-2v-2h10.434zm-6.5-10.782h-16v-2h16zm-15-16a1 1 0 0 1 2 0v12h-2zm2 45v-16a4 4 0 0 1 8 0v17h-7a1 1 0 0 1 -1-1zm13.538-8.39a9.862 9.862 0 0 0 2.27 2.39h-5.808v-7.7zm18.462 2.39h-4.324a9.834 9.834 0 0 0 2.72-3.139l1.6-2.94zm0 2v5h-22v-5zm-21.342 8.447a.993.993 0 0 1 -.894.553h-3.528a.993.993 0 0 1 -.894-.553l-.724-1.447h6.764zm26 0a.993.993 0 0 1 -.894.553h-3.528a.993.993 0 0 1 -.894-.553l-.724-1.447h6.764zm5.342-20.447v16a1 1 0 0 1 -1 1h-7v-17a4 4 0 0 1 8 0zm-9.986-.281-3.373 6.181a7.86 7.86 0 0 1 -13.439.6l-5.37-8.056c-.016-.024-.041-.036-.059-.058a6 6 0 0 0 -5.773-4.386h-8.5a2.5 2.5 0 0 1 0-5h10.5a5.933 5.933 0 0 1 4.318 1.872l8.731 9.359.009.007.007.011 5.335 5.451a1 1 0 1 0 1.43-1.4l-4.853-4.957 6.661-14.343h.381a1 1 0 0 0 0-2h-16.529a1.52 1.52 0 0 1 -1.49-1.58 1.427 1.427 0 0 1 1.43-1.42h16.77a8.29 8.29 0 0 1 3 .575 3 3 0 0 0 1.615 3.244l1.531.745a1.683 1.683 0 0 0 1.292.146 8.191 8.191 0 0 1 .011 7.1l-1.871 3.934a5.979 5.979 0 0 0 -1.764 3.975zm10.738-23.695a.855.855 0 0 1 -.882.488 2.045 2.045 0 0 0 -1.918.836 3.706 3.706 0 0 1 -5.018 1.06 3.855 3.855 0 0 1 -1.3-4.972l1.24-2.516a4 4 0 0 0 1.306-.129 22.5 22.5 0 0 0 6.127 4.024c.013.008.021.02.035.027a.89.89 0 0 1 .41 1.182z" fill="#373737"/></svg>