<?xml version="1.0" encoding="UTF-8"?>
<svg id="Layer_1" data-name="Layer 1" xmlns="http://www.w3.org/2000/svg" viewBox="0 0 44.83 33.31">
  <path d="m9.58,11.06c-2.68,3.44-2.63,9.56.79,12.58,3.89,3.44,9.35,3.41,12.79.24,4.12-3.79,3.89-10.11.24-13.68-3.66-3.6-10.21-3.78-13.82.86Z" style="fill: #fcc11a;"/>
  <path d="m13.88,9.88c-1.06-.47-2.22.81-2.72,1.68-.51.87-.98,2.59.1,3.02,1.08.43,1.85-.3,2.62-1.58.77-1.28,1.21-2.58,0-3.12Z" style="fill: #fee269;"/>
  <path d="m16.63,5.08c-.26.48-.17.85.34.97.51.12,3.68.64,3.95.65.39.02.53-.27.48-.61-.05-.34-.82-5.09-.9-5.53-.07-.44-.53-.87-.97-.29-.43.59-2.71,4.44-2.9,4.8Zm8.22,3.3c-.5.15-.48.46-.22.85.27.39,2.11,3.2,2.28,3.39.17.19.46.24.7-.05.24-.29,3.27-4.53,3.49-4.8.36-.44.15-.9-.41-.75-.43.11-5.53,1.26-5.84,1.36ZM5.95,21.28c.34-.56.78-.41,1.09.12.22.36,2.04,2.81,2.21,3.08.17.27.24.78-.29.9-.53.12-4.87,1.26-5.55,1.38-.68.12-1.06-.41-.63-.99.25-.34,2.98-4.17,3.18-4.48Zm-.92-4.22c.62.28.91.18,1.04-.27.17-.58.68-3.25.7-3.85.02-.39-.15-.78-.75-.68-.61.1-4.97.7-5.53.9-.65.23-.6.94-.17,1.16.51.27,4.27,2.55,4.7,2.74Zm7.54-10.18c.35-.28.24-.68-.07-.9-.31-.22-4.21-3.03-4.7-3.42-.43-.34-.97-.22-.82.56.11.56,1.35,5.43,1.43,5.77.1.39.39.58.73.34.34-.24,3.08-2.06,3.44-2.35Z" style="fill: #ffa722;"/>
  <path d="m39.43,24.53s.54-10.67-8.09-12.75c-8.64-2.08-11.15,6.3-11.15,6.3,0,0-2.88-.67-5.55,1.55-2.1,1.74-2.39,4.36-2.39,4.36,0,0-2.76-.42-5.05,1.81-1.66,1.61-1.5,3.68-1.5,3.68l3.34,2.94,33.99-.92,1.79-1.92s.28-2.13-1.7-3.73c-1.99-1.61-3.69-1.32-3.69-1.32Z" style="fill: #e2ebee;"/>
  <path d="m13.75,28.68s1.35,1.53,5.65,1.43c4.29-.1,5.42-1.23,5.42-1.23,0,0,1.88,1.98,7.32,1.56,5.44-.42,7.01-1.57,7.01-1.57,0,0,1.33.95,3.01.98,1.68.03,2.67-.27,2.67-.27,0,0-.18,1.33-.76,2.19s-1.56,1.51-3.1,1.5c-1.55-.01-6.24.03-11.01.02-4.77,0-18.39.07-20.4-.01-1.53-.06-2.65-.97-3.16-1.73-.82-1.22-.69-2.51-.69-2.51,0,0,1.55,1.21,3.63,1.12,2.85-.12,4.41-1.47,4.41-1.47Z" style="fill: #b9ced3;"/>
</svg>