<?xml version="1.0" encoding="UTF-8"?>
<svg id="Layer_1" data-name="Layer 1" xmlns="http://www.w3.org/2000/svg" xmlns:xlink="http://www.w3.org/1999/xlink" viewBox="0 0 150.42 477.33">
  <defs>
    <radialGradient id="_Áåçûìÿííûé_ãðàäèåíò_39" data-name="Áåçûìÿííûé ãðàäèåíò 39" cx="43.31" cy="41314.98" fx="43.31" fy="41314.98" r="29.49" gradientTransform="translate(25.5 -15215.76) scale(.79 .38)" gradientUnits="userSpaceOnUse">
      <stop offset="0" stop-color="#fff"/>
      <stop offset=".26" stop-color="#b0b0b0"/>
      <stop offset=".52" stop-color="#656565"/>
      <stop offset=".75" stop-color="#2e2e2e"/>
      <stop offset=".91" stop-color="#0c0c0c"/>
      <stop offset="1" stop-color="#000"/>
    </radialGradient>
    <mask id="mask" x="36.14" y="448.89" width="46.86" height="23.89" maskUnits="userSpaceOnUse">
      <ellipse cx="59.57" cy="460.83" rx="23.43" ry="11.95" style="fill: url(#_Áåçûìÿííûé_ãðàäèåíò_39);"/>
    </mask>
    <radialGradient id="_Áåçûìÿííûé_ãðàäèåíò_39-2" data-name="Áåçûìÿííûé ãðàäèåíò 39" cx="95.3" fx="95.3" r="29.49" xlink:href="#_Áåçûìÿííûé_ãðàäèåíò_39"/>
    <mask id="mask-1" x="77.03" y="448.89" width="46.86" height="23.89" maskUnits="userSpaceOnUse">
      <ellipse cx="100.46" cy="460.83" rx="23.43" ry="11.95" style="fill: url(#_Áåçûìÿííûé_ãðàäèåíò_39-2);"/>
    </mask>
    <radialGradient id="_Áåçûìÿííûé_ãðàäèåíò_40" data-name="Áåçûìÿííûé ãðàäèåíò 40" cx="-419.82" cy="41314.98" fx="-419.82" fy="41314.98" r="24.8" gradientTransform="translate(1068.91 -15215.76) scale(2.36 .38)" gradientUnits="userSpaceOnUse">
      <stop offset="0" stop-color="#fff"/>
      <stop offset=".37" stop-color="#fdfdfd"/>
      <stop offset=".51" stop-color="#f6f6f6"/>
      <stop offset=".6" stop-color="#eaeaea"/>
      <stop offset=".68" stop-color="#d9d9d9"/>
      <stop offset=".75" stop-color="#c3c3c3"/>
      <stop offset=".8" stop-color="#a8a8a8"/>
      <stop offset=".86" stop-color="#878787"/>
      <stop offset=".91" stop-color="#626262"/>
      <stop offset=".95" stop-color="#373737"/>
      <stop offset=".99" stop-color="#090909"/>
      <stop offset="1" stop-color="#000"/>
    </radialGradient>
    <mask id="mask-2" x="20.92" y="450.78" width="118.03" height="20.1" maskUnits="userSpaceOnUse">
      <ellipse cx="79.93" cy="460.83" rx="59.01" ry="10.05" style="fill: url(#_Áåçûìÿííûé_ãðàäèåíò_40); opacity: .13;"/>
    </mask>
  </defs>
  <g>
    <g style="fill: none; mask: url(#mask);">
      <ellipse cx="59.57" cy="460.83" rx="23.43" ry="11.95" style="fill: #bababf;"/>
    </g>
    <g style="fill: none; mask: url(#mask-1);">
      <ellipse cx="100.46" cy="460.83" rx="23.43" ry="11.95" style="fill: #bababf;"/>
    </g>
    <g style="fill: none; mask: url(#mask-2);">
      <ellipse cx="79.93" cy="460.83" rx="59.01" ry="10.05" style="fill: #bababf;"/>
    </g>
  </g>
  <path d="m114.4,68.53c-5.08-5.53-4.84-12.89-3.63-18.31,1.21-5.42-1.07-12.67-3.48-16.23-5.82-8.6-1.08-12.76-7.28-23.44-7.48-12.87-26.7-11.01-31.02-1.65-8.98-1.8-12.03,4.6-11.12,15.32.55,6.44.66,11.5-3.21,15.66-3.87,4.16-5.46,12.73-3.64,18.91,1.82,6.18,2.05,10.04-3.41,13.46s-9.01,14.16-1.09,18.11c6.71,3.35,27.13,2.25,33.22,1.83l.02.15s23.91-2.12,33.58-2.12c9.67-7.05,6.14-16.15,1.07-21.68Z" style="fill: #965947;"/>
  <path d="m64.96,46.33l-.33-.1c-1.24.06-2.77-2.9-2.89-5.59l-.68-5.15c-.04-.94.2-1.68.94-1.45l.23.07c1.31.41,2.27,1.84,2.34,3.5l.38,8.73Z" style="fill: #f28c63;"/>
  <path d="m96.39,46.34l.33-.11c1.24.05,2.74-2.92,2.83-5.62l.63-5.16c.03-.94-.22-1.68-.96-1.44l-.23.07c-1.31.42-2.25,1.86-2.31,3.52l-.31,8.73Z" style="fill: #f28c63;"/>
  <path d="m122.8,212.06c-1.26-3.46-1.18-3.61-7.31-20.26-6.13-16.66-7.42-20.23-7.42-26.29,0-4.92,7.49-55.8,10.32-74.84.61-4.11-1.85-8.06-5.82-9.31l-21.2-6.71h-10.61s0,.04-.02.11v-.11h-10.61l-21.2,6.71c-3.96,1.25-6.43,5.2-5.82,9.31,2.83,19.03,10.32,69.91,10.32,74.84,0,6.07-1.29,9.64-7.42,26.29-6.13,16.66-6.05,16.8-7.31,20.26-6.83,18.79,34.09,24.96,42.04,24.96v-.13s.02.09.02.13c7.95,0,48.87-6.18,42.04-24.96Z" style="fill: #fb9b67;"/>
  <g>
    <polygon points="91.63 49.84 69.98 49.84 69.98 74.68 91.63 74.65 91.63 49.84" style="fill: #e07f57;"/>
    <polygon points="69.98 59.73 80.01 67.76 69.98 74.65 69.98 59.73" style="fill: #f28c63;"/>
    <path d="m91.63,59.73v14.92s-12.78,1.4-21.66,0l21.66-14.92Z" style="fill: #fb9b67;"/>
  </g>
  <path d="m80.79,6.32c-9.96,0-18.03,7.52-18.03,16.8,0,.83.07,1.64.19,2.44l1.71,23.69c.24,3.25,1.83,6.26,4.4,8.27l7.91,6.21c1.05.85,2.38,1.31,3.77,1.31h.1c1.38,0,2.72-.47,3.77-1.31l7.87-6.18c2.59-2.03,4.2-5.07,4.44-8.35l1.71-23.64c.12-.8.19-1.61.19-2.44h0c0-9.28-8.07-16.8-18.03-16.8Z" style="fill: #fb9b67;"/>
  <g>
    <polygon points="81.86 44.59 79.72 44.59 77.35 47.03 84.23 47.03 81.86 44.59" style="fill: #e07f57;"/>
    <polygon points="79.72 48.57 81.86 48.57 84.23 47.03 77.35 47.03 79.72 48.57" style="fill: #f28c63;"/>
  </g>
  <g>
    <path d="m88.6,50.19c-.32-.08-.4.13-.47.32-.04.11-.22.54-.64.51l-2.23.45-4.45.24-4.45-.24-2.21-.46c-.4,0-.54-.38-.66-.51-.14-.15-.15-.4-.47-.32-.32.08-.3.44-.23.57.08.13.78.08,1.02.58,0,0,0,0,.03,0l1.25,1.58,5.72,1.37h0s.01,0,.01,0h.01s0,0,0,0l5.72-1.37,1.25-1.58s.03,0,.03,0c.24-.51.94-.45,1.02-.58.08-.13.1-.49-.23-.57Z" style="fill: #965947;"/>
    <path d="m81.77,55.51h-1.99c-.76,0-1.48.35-1.94.96l-.69.9h7.24l-.69-.9c-.46-.6-1.18-.96-1.94-.96Z" style="fill: #e07f57;"/>
    <path d="m80.8,51.29c-.2-.02-4.49.08-6,.07,1.22,3.11,5.27,2.85,6,2.84.73,0,4.79.26,6-2.84-1.51.01-5.8-.08-6-.07Z" style="fill: #fff;"/>
    <path d="m87.94,51.16c-1.84,2.22-3.91,2.37-7.14,2.37-3.23,0-5.17-.23-7.13-2.37,1.49,2.6,2.82,4.34,7.12,4.35h0s0,0,.01,0,0,0,.01,0h0c4.3,0,5.63-1.75,7.12-4.35Z" style="fill: #ffad73;"/>
    <path d="m80.95,51.69c7.15,0,6.92-.79,6.92-.79-1.41.38-4.16-1.02-5.22-.74l-1.71.38-1.71-.38c-1.06-.28-4.02,1.23-5.43.75,0,0,.02.79,7.13.79h0s0,0,0,0,0,0,0,0h0Z" style="fill: #e07f57;"/>
  </g>
  <g>
    <path d="m83.97,31.55l5.4-1.27c1.53-.36,3.13-.19,4.54.48l1.66.78-2.5-1.92c-.76-.58-1.73-.82-2.68-.63l-5.57,1.08-.85,1.48Z" style="fill: #965947;"/>
    <path d="m77.57,31.55l-5.4-1.27c-1.53-.36-3.13-.19-4.54.48l-1.66.78,2.5-1.92c.76-.58,1.73-.82,2.68-.63l5.57,1.08.85,1.48Z" style="fill: #965947;"/>
  </g>
  <path d="m80.77,5.82s-.03,0-.05,0c-.02,0-.03,0-.05,0-10.02,0-18.51,6.6-18.14,17.92l1.22,12.9h-.05s-.48-13.45,6.11-17.63c1.17-.74,4.67-1.23,7.58-.74,1.84.31,4.82.31,6.66,0,2.91-.49,6.42,0,7.59.74,6.58,4.17,6.22,17.27,6.22,17.27h0l1.06-12.55c.37-11.31-8.12-17.92-18.14-17.92Z" style="fill: #965947;"/>
  <g>
    <g>
      <ellipse cx="89.64" cy="37.91" rx="4.02" ry="4.05" transform="translate(-1.76 4.48) rotate(-2.83)" style="fill: #fff;"/>
      <g>
        <g>
          <circle cx="89.68" cy="36.43" r="2.18" transform="translate(33.62 115.35) rotate(-76.72)" style="fill: #5b7491;"/>
          <path d="m88.23,36.43c0-.8.65-1.46,1.46-1.46s1.46.65,1.46,1.46-.65,1.46-1.46,1.46-1.46-.65-1.46-1.46Z" style="fill: #231f20;"/>
        </g>
        <path d="m90.46,36.03c0-.26.21-.48.48-.48s.48.21.48.48-.21.48-.48.48-.48-.21-.48-.48Z" style="fill: #fff;"/>
      </g>
      <path d="m85.5,37.83c1.95.58,5.18.96,8.15-.36,1.28,2.1-.47,4.81-3.85,4.81-2.83,0-4.77-2.41-4.29-4.46Z" style="fill: #fb9b67;"/>
      <g>
        <path d="m85.64,37.97s0,0,0,0c.01,0,.02,0,0,0Z" style="fill: #231f20;"/>
        <path d="m93.96,36.25c-.87-1.66-2.36-2.33-3.84-2.41-.21-.02-.43-.03-.64-.02-.22.01-.42.04-.63.08-.02,0-.04,0-.06,0,0,0,0,0,0,0-1.86.41-3.23,2.09-3.2,4.05,0,0,0,0,0,0h0s0,0,0,0c0,0,.02,0,.03,0,0,0,0,0,0,0,0,0,.01,0,.01,0,0,0,0,0,0,0,.3-1.86,1.91-3.11,3.93-3.25,2.68-.12,3.92,1.52,4.07,2.75,0,0,.7-.05,1.2-.22-.4-.08-.62-.55-.88-.99Z" style="fill: #231f20;"/>
      </g>
    </g>
    <g>
      <ellipse cx="72.33" cy="37.91" rx="4.05" ry="4.02" transform="translate(30.91 108.29) rotate(-87.19)" style="fill: #fff;"/>
      <g>
        <g>
          <circle cx="72.29" cy="36.43" r="2.18" transform="translate(-6.44 17.58) rotate(-13.28)" style="fill: #5b7491;"/>
          <path d="m73.75,36.43c0-.8-.65-1.46-1.46-1.46s-1.46.65-1.46,1.46.65,1.46,1.46,1.46,1.46-.65,1.46-1.46Z" style="fill: #231f20;"/>
        </g>
        <path d="m71.51,36.03c0-.26-.21-.48-.48-.48s-.48.21-.48.48.21.48.48.48.48-.21.48-.48Z" style="fill: #fff;"/>
      </g>
      <path d="m76.47,37.83c-1.95.58-5.18.96-8.15-.36-1.28,2.1.47,4.81,3.85,4.81,2.83,0,4.77-2.41,4.29-4.46Z" style="fill: #fb9b67;"/>
      <g>
        <path d="m76.34,37.97s0,0,0,0c-.01,0-.02,0,0,0Z" style="fill: #231f20;"/>
        <path d="m68.01,36.25c.87-1.66,2.36-2.33,3.84-2.41.21-.02.43-.03.64-.02.22.01.42.04.63.08.02,0,.04,0,.06,0,0,0,0,0,0,0,1.86.41,3.23,2.09,3.2,4.05,0,0,0,0,0,0h0s0,0,0,0c0,0-.02,0-.03,0,0,0,0,0,0,0,0,0-.01,0-.01,0,0,0,0,0,0,0-.3-1.86-1.91-3.11-3.93-3.25-2.68-.12-3.92,1.52-4.07,2.75,0,0-.7-.05-1.2-.22.4-.08.62-.55.88-.99Z" style="fill: #231f20;"/>
      </g>
    </g>
  </g>
  <path d="m41.85,203.18c-3.44,9.37-8.84,22.84-5.86,54.03,2.98,31.19,14.82,73.27,15.72,79.41.91,6.14-2.75,22.33-1.61,39.03,1.15,16.69,9.01,45.62,9.01,69.82,2.14,2.14,9.23,1.5,11.94,0,0-19.47,4.3-51.93,4.3-73.34,0-23.91-4.81-29.12-2.71-36.47,1.36-4.77,1.76-15,1.91-24.96s3.73-33.83,3.73-54.13c0-42.76-16.34-54.81-36.44-53.38Z" style="fill: #fb9b67;"/>
  <path d="m43.08,161.94l-15.51-1.09c1.81-53.11,5.14-68.73,5.14-68.73l18.47,1.23-8.11,68.59Z" style="fill: #fb9b67;"/>
  <path d="m28.6,230.85l-7.88-.11c1.52-33.53.99-54.9,6.94-70.23,8.02-3.35,15.35,1.16,15.35,1.16-1.21,27.45-6.9,27.81-14.4,69.17Z" style="fill: #fb9b67;"/>
  <path d="m20.72,230.75l-1.03,22.11,1.64,9.84c.39,2.32,1.42,4.49,2.98,6.25l6.29,7.11.42-2.16c.1-.54.05-1.09-.17-1.59l-4.06-9.52.77-12.58,3.34,14.68h0c1.46-.11,2.57-1.35,2.52-2.81l-.69-20.26c-.02-.47-.15-.93-.4-1.33l-3.96-6.47.22-3.53s-4.79-1.29-7.88.27Z" style="fill: #fb9b67;"/>
  <path d="m45.52,107.04l3.86-25.68c-10.41,1.44-15.87,4.6-16.69,10.9-1.81,13.76,10.39,14.23,12.83,14.78Z" style="fill: #fb9b67;"/>
  <path d="m119.65,203.18c3.44,9.37,8.84,22.84,5.86,54.03-2.98,31.19-14.82,73.27-15.72,79.41-.91,6.14,2.75,22.33,1.61,39.03-1.15,16.69-9.01,45.62-9.01,69.82-2.14,2.14-9.23,1.5-11.94,0,0-19.47-4.3-51.93-4.3-73.34,0-23.91,4.81-29.12,2.71-36.47-1.36-4.77-1.76-15-1.91-24.96s-3.73-33.83-3.73-54.13c0-42.76,16.34-54.81,36.44-53.38Z" style="fill: #fb9b67;"/>
  <path d="m118.41,161.94l15.51-1.09c-1.81-53.11-5.14-68.73-5.14-68.73l-18.47,1.23,8.11,68.59Z" style="fill: #fb9b67;"/>
  <path d="m132.89,230.85l7.88-.11c-1.52-33.53-.99-54.9-6.94-70.23-8.02-3.35-15.35,1.16-15.35,1.16,1.21,27.45,6.9,27.81,14.4,69.17Z" style="fill: #fb9b67;"/>
  <path d="m140.78,230.75l1.03,22.11-1.64,9.84c-.39,2.32-1.42,4.49-2.98,6.25l-6.29,7.11-.42-2.16c-.1-.54-.05-1.09.17-1.59l4.06-9.52-.77-12.58-3.34,14.68h0c-1.46-.11-2.57-1.35-2.52-2.81l.69-20.26c.02-.47.15-.93.4-1.33l3.96-6.47-.22-3.53s4.79-1.29,7.88.27Z" style="fill: #fb9b67;"/>
  <path d="m115.98,107.04l-3.86-25.68c10.41,1.44,15.87,4.6,16.69,10.9,1.81,13.76-10.39,14.23-12.83,14.78Z" style="fill: #fb9b67;"/>
  <path d="m113.8,121.94c-7.11,11.05-33.04,4.45-33.04,4.45,0,0-.02,0-.02,0h0s-25.93,6.59-33.04-4.46l5.52,40.76c-.23-10.48.93-31.61,27.52-31.61v-.04s.02.03.02.04c26.59,0,27.75,21.13,27.52,31.61l5.52-40.76Z" style="fill: #f28c63;"/>
  <path d="m119.79,203.26s-29.43,5.21-39.05,5.23c-9.61-.02-39.05-5.23-39.05-5.23-1.31,2.59-1.87,5.2-1.87,5.2,21.2,8.67,34.03,21.72,37.01,28.32,0,0,1.59.46,3.86.48h0s.03,0,.05,0c.02,0,.03,0,.05,0h0c2.27-.01,3.86-.48,3.86-.48,2.98-6.61,15.81-19.65,37.01-28.32,0,0-.56-2.61-1.87-5.2Z" style="fill: #f1f2f2;"/>
  <path d="m113.72,120.58l-30.48-1.91h-4.98l-30.48,1.91c.31,6.28,1.69,14.47,1.69,14.47,8.99-3.75,22.65-5.44,31.28-5.4,8.63-.04,22.29,1.65,31.28,5.4,0,0,1.38-8.19,1.69-14.47Z" style="fill: #f1f2f2;"/>
  <path d="m111.25,97.81v-16.87s-1.36-.68-2.73-.86v15.98c-5.06,4.67-23.73,22.61-27.77,22.63-4.04-.01-22.71-17.95-27.77-22.63v-15.98c-1.36.18-2.73.86-2.73.86v16.87c-.9,6.94-7.6,14.64-3.97,24.94,1.96,5.56,8.64,9.88,16.94,8.26,12.83-2.49,17.38-12.01,17.53-12.33.15.32,4.7,9.84,17.53,12.33,8.3,1.61,14.98-2.7,16.94-8.26,3.64-10.3-3.07-18-3.97-24.94Z" style="fill: #f1f2f2;"/>
  <g>
    <path d="m49.47,463.18c-.58,1.42.5,2.37,1.75,2.41,1.25.04,1.31-.53,1.31-.53.68,1.08,2.38,1.31,3.95.8.77.63,2.99.81,4.47.26.57.71,3.29.85,4.55.02.74.85,2.55.95,4.04.57,1.76-.45,3.41-2.33,3.24-5.74s-1.71-15.5-1.71-15.5c0,0-6.39-1.78-6.4-1.78s-5.54,1.78-5.54,1.78l-6.4,10.68c-1.33,2.22-2.42,4.58-3.25,7.04h0Z" style="fill: #fb9b67;"/>
    <path d="m69.53,466.7c1.57-.4,3.04-1.93,3.23-4.65-1.59,2.95-3.16,3.44-4.61,3.41-1.46-.04-2.56-.8-2.6-2.08-.38,2.05-1.36,2.12-2.43,2.22-1.06.09-2.12-.59-2.31-1.46-.23,1.29-1.74,1.4-2.31,1.46-.57.06-1.9-.47-2.01-1.84-.15,1.25-1.29,1.36-2.05,1.29-.76-.08-1.86-.8-1.96-1.9-.29,1.29-.92,1.4-1.57,1.36-.58-.03-1.11-.23-1.5-1.2-.46,1.35.58,2.24,1.8,2.28,1.25.04,1.31-.53,1.31-.53.68,1.08,2.38,1.31,3.95.8.77.63,2.99.81,4.47.26.57.71,3.29.85,4.55.02.74.85,2.55.95,4.04.57Z" style="fill: #f28c63;"/>
    <path d="m71,463.14c.05,1.01-.98,1.73-2.32,1.81-1.34.08-2.65-.15-2.69-1.55-.03-1.01,4.96-1.27,5.01-.26Z" style="fill: #ffad73;"/>
    <path d="m65.01,463.97c-.03.65-.9,1.36-1.94,1.32s-1.86-.6-1.84-1.25c.03-.65,3.81-.72,3.78-.07Z" style="fill: #ffad73;"/>
    <path d="m60.18,463.93c0,.57-.7,1.03-1.57,1.03s-1.57-.46-1.57-1.03,3.14-.57,3.14,0Z" style="fill: #ffad73;"/>
    <path d="m55.82,463.81c-.07.56-.72.94-1.45.85-.72-.09-1.25-.63-1.18-1.19s2.7-.22,2.63.34Z" style="fill: #ffad73;"/>
    <path d="m51.76,463.33c-.07.4-.52.67-1,.58-.49-.08-.82-.48-.75-.88s1.83-.1,1.76.3Z" style="fill: #ffad73;"/>
  </g>
  <g>
    <path d="m111.98,463.18c.58,1.42-.5,2.37-1.75,2.41-1.25.04-1.31-.53-1.31-.53-.68,1.08-2.38,1.31-3.95.8-.77.63-2.99.81-4.47.26-.57.71-3.29.85-4.55.02-.74.85-2.55.95-4.04.57-1.76-.45-3.41-2.33-3.24-5.74.17-3.41,1.71-15.5,1.71-15.5,0,0,6.39-1.78,6.4-1.78s5.54,1.78,5.54,1.78l6.4,10.68c1.33,2.22,2.42,4.58,3.25,7.04h0Z" style="fill: #fb9b67;"/>
    <path d="m91.92,466.7c-1.57-.4-3.04-1.93-3.23-4.65,1.59,2.95,3.16,3.44,4.61,3.41,1.46-.04,2.56-.8,2.6-2.08.38,2.05,1.36,2.12,2.43,2.22,1.06.09,2.12-.59,2.31-1.46.23,1.29,1.74,1.4,2.31,1.46.57.06,1.9-.47,2.01-1.84.15,1.25,1.29,1.36,2.05,1.29.76-.08,1.86-.8,1.96-1.9.29,1.29.92,1.4,1.57,1.36.58-.03,1.11-.23,1.5-1.2.46,1.35-.58,2.24-1.8,2.28-1.25.04-1.31-.53-1.31-.53-.68,1.08-2.38,1.31-3.95.8-.77.63-2.99.81-4.47.26-.57.71-3.29.85-4.55.02-.74.85-2.55.95-4.04.57Z" style="fill: #f28c63;"/>
    <path d="m90.45,463.14c-.05,1.01.98,1.73,2.32,1.81,1.34.08,2.65-.15,2.69-1.55.03-1.01-4.96-1.27-5.01-.26Z" style="fill: #ffad73;"/>
    <path d="m96.44,463.97c.03.65.9,1.36,1.94,1.32s1.86-.6,1.84-1.25c-.03-.65-3.81-.72-3.78-.07Z" style="fill: #ffad73;"/>
    <path d="m101.27,463.93c0,.57.7,1.03,1.57,1.03s1.57-.46,1.57-1.03-3.14-.57-3.14,0Z" style="fill: #ffad73;"/>
    <path d="m105.63,463.81c.07.56.72.94,1.45.85.72-.09,1.25-.63,1.18-1.19s-2.7-.22-2.63.34Z" style="fill: #ffad73;"/>
    <path d="m109.69,463.33c.07.4.52.67,1,.58.49-.08.82-.48.75-.88s-1.83-.1-1.76.3Z" style="fill: #ffad73;"/>
  </g>
  <path d="m63.74,34.25s.93-10.61,8.3-16.61c14.26,4.95,24.11,7.51,25.77,16.72,2.82-12.27-1.93-25.68-17.18-25.68s-20.69,10.79-16.89,25.57Z" style="fill: #965947;"/>
</svg>