<svg id="Layer_1" height="512" viewBox="0 0 64 64" width="512" xmlns="http://www.w3.org/2000/svg"><g><path d="m48 17-3.87-3.87c-.72-.72-1.13-1.71-1.13-2.73 0-1.47.83-2.81 2.15-3.47l13.94-6.93h4.91v64h-9l-3-15h-8.74c-2.07 0-4.02-.92-5.35-2.5-1.06-1.28-1.61-2.86-1.61-4.45 0-1.06.24-2.13.74-3.12l1.96-3.93-.02-.05 5.32-1.71-1.58-4.9-.53-1.66z" fill="#f4baa6"/><path d="m25 39.45v-3.45c0-1.94.78-3.68 2.05-4.95s3.01-2.05 4.95-2.05v13c0 1.58-.37 3.1-1.06 4.47-.68 1.37-1.68 2.59-2.94 3.53v14h-17v-20.05z" fill="#e09b8d"/><circle cx="14.5" cy="34.5" fill="#7cd4f2" r="2.5"/><path d="m11 43.95-3.26 1.05-6.74-20.94 4.84-1.56 1.15 3.56c.51 1.58 2.2 2.45 3.78 1.94 1.57-.51 2.44-2.2 1.93-3.78.51 1.58 2.2 2.45 3.78 1.94 1.57-.51 2.44-2.2 1.93-3.77.51 1.57 2.2 2.44 3.78 1.93 1.58-.5 2.44-2.19 1.94-3.77.5 1.58 2.19 2.44 3.77 1.94 8.5.58 6.7 4.84 10.38 5.81 1.53.4 2.96.26 4.44.04l1.58 4.9-5.32 1.71-6.98 2.25v-8.2c-1.94 0-3.68.78-4.95 2.05s-2.05 3.01-2.05 4.95v3.45zm6-9.45c0-1.38-1.12-2.5-2.5-2.5s-2.5 1.12-2.5 2.5 1.12 2.5 2.5 2.5 2.5-1.12 2.5-2.5z" fill="#4bb9ea"/><path d="m42.19 26.68.53 1.66c-1.48.22-2.91.36-4.44-.04-3.68-.97-1.88-5.23-10.38-5.81 1.58-.51 2.44-2.2 1.94-3.78l-1.15-3.56 8.87-2.85z" fill="#e6e6e6"/><path d="m27.9 22.49c-1.58.5-3.27-.36-3.77-1.94l-1.84-5.71c-.51-1.58.36-3.27 1.94-3.78.3-.1.61-.14.91-.14 1.27 0 2.45.8 2.86 2.08l.69 2.15 1.15 3.56c.5 1.58-.36 3.27-1.94 3.78z" fill="#e09b8d"/><path d="m24.13 20.55c.5 1.58-.36 3.27-1.94 3.77-1.58.51-3.27-.36-3.78-1.93l-1.83-5.71c-.51-1.58.36-3.27 1.93-3.78.31-.1.62-.15.92-.15 1.27 0 2.45.82 2.86 2.09z" fill="#f4baa6"/><path d="m18.41 22.39c.51 1.57-.36 3.26-1.93 3.77-1.58.51-3.27-.36-3.78-1.94l-1.84-5.71c-.5-1.57.36-3.26 1.94-3.77.31-.1.62-.15.92-.15 1.27 0 2.45.82 2.86 2.09z" fill="#e09b8d"/><path d="m12.7 24.22c.51 1.58-.36 3.27-1.93 3.78-1.58.51-3.27-.36-3.78-1.94l-1.15-3.56-.69-2.15c-.5-1.58.36-3.27 1.94-3.77.31-.1.62-.15.92-.15 1.27 0 2.45.81 2.85 2.08z" fill="#f4baa6"/></g><g fill="#252525"><circle cx="21.5" cy="29.5" r="1.5"/><path d="m57.974.555c-.246-.495-.846-.698-1.341-.45l-11.931 5.931c-1.667.834-2.703 2.507-2.703 4.365 0 1.28.519 2.532 1.423 3.437l3.318 3.318-4.275 7.122-3.954-12.284c-.168-.525-.73-.812-1.258-.646l-7.916 2.544-.386-1.196c-.532-1.66-2.063-2.775-3.812-2.775-.433 0-.845.064-1.218.188-1.144.37-1.993 1.214-2.435 2.239-.949-.574-2.126-.773-3.287-.398-1.14.37-1.986 1.215-2.426 2.239-.95-.574-2.127-.773-3.282-.4-1.138.367-1.985 1.207-2.427 2.229-.943-.569-2.114-.767-3.277-.39-1.02.322-1.85 1.024-2.338 1.977-.486.947-.576 2.029-.252 3.052l.386 1.198-3.891 1.254c-.525.17-.814.733-.645 1.259l6.74 20.94c.082.252.26.462.496.583.329.154.663.095.763.062l1.953-.628v17.676c0 .553.448 1 1 1s1-.447 1-1v-18.319l12-3.859v1.178c0 .553.448 1 1 1s1-.447 1-1v-6c0-1.603.624-3.109 1.757-4.243.894-.894 2.021-1.471 3.243-1.675v11.918c0 1.411-.321 2.764-.956 4.025-.62 1.248-1.534 2.346-2.643 3.173-.253.189-.402.486-.402.802v13c0 .553.448 1 1 1s1-.447 1-1v-12.514c1.179-.972 2.153-2.196 2.833-3.566.774-1.538 1.167-3.193 1.167-4.92v-4.071l4.076-1.312-.929 1.862c-.555 1.099-.848 2.333-.848 3.571 0 1.848.653 3.655 1.845 5.094 1.528 1.815 3.757 2.856 6.115 2.856h7.92l2.639 13.196c.095.476.513.804.979.804.933 0 1.09-.654.981-1.196l-2.8-14c-.093-.467-.504-.804-.98-.804h-8.74c-1.767 0-3.438-.781-4.58-2.138-.89-1.075-1.38-2.43-1.38-3.812 0-.927.219-1.85.635-2.674l1.804-3.617 4.556-1.467c.686.218 2.334.665 4.333.665 1.507 0 3.206-.257 4.819-1.063.494-.247.694-.848.447-1.342s-.847-.692-1.342-.447c-2.88 1.44-6.264.684-7.459.339l-1.814-5.637 5.578-9.293c.236-.394.174-.897-.15-1.222l-3.87-3.87c-.532-.532-.837-1.27-.837-2.022 0-1.097.612-2.084 1.595-2.575l11.932-5.93c.494-.246.696-.846.45-1.341zm-21.06 13.003 4.485 13.938c-.94.091-1.883.094-2.865-.162-1.045-.275-1.473-.863-2.121-1.753-1.014-1.393-2.249-3.07-6.091-3.793.624-.973.844-2.198.468-3.385l-.84-2.607 6.963-2.238zm-12.369-1.549c.177-.059.377-.089.595-.089.875 0 1.642.557 1.908 1.386l1.838 5.706c.334 1.055-.245 2.187-1.291 2.526-.512.161-1.055.114-1.529-.128-.474-.243-.823-.655-.985-1.168l-1.84-5.71c-.339-1.05.242-2.181 1.304-2.523zm-5.727 1.843c1.122-.363 2.188.27 2.52 1.296l1.838 5.703c.163.513.118 1.057-.126 1.532-.243.474-.656.823-1.167.984-1.049.342-2.181-.238-2.521-1.284l-1.831-5.712c-.339-1.049.238-2.18 1.287-2.521zm-5.71 1.84c1.122-.364 2.188.27 2.52 1.296l1.83 5.71c.339 1.044-.239 2.17-1.286 2.51-1.054.344-2.182-.242-2.521-1.294l-1.839-5.705s0 0 0 0v-.003c-.335-1.048.246-2.176 1.295-2.515zm-6.879 2.825c.243-.474.656-.823 1.166-.984 1.157-.376 2.191.267 2.511 1.278v.003l1.841 5.712c.339 1.051-.239 2.182-1.286 2.521-1.05.344-2.182-.242-2.521-1.296l-1.838-5.704c-.163-.513-.118-1.057.126-1.531zm26.771 17.311v-6.827c0-.553-.448-1-1-1-2.137 0-4.146.832-5.657 2.343-1.511 1.512-2.343 3.521-2.343 5.657v2.721l-15.614 5.02-6.128-19.037 2.94-.947.841 2.608c.547 1.696 2.123 2.778 3.814 2.778.406 0 .819-.062 1.226-.193 1.137-.37 1.982-1.211 2.423-2.233.617.371 1.325.586 2.061.586.406 0 .819-.062 1.226-.193 1.138-.37 1.983-1.21 2.424-2.229.617.37 1.324.584 2.058.584.405 0 .816-.062 1.221-.193 1.979-.581 2.401-2.145 2.437-2.228.077.046.904.626 2.052.589.328-.011.657-.052.981-.134 4.709.348 5.792 1.827 6.835 3.258.7.962 1.494 2.052 3.229 2.51.806.211 1.579.287 2.323.287.577 0 1.131-.052 1.675-.118l1.016 3.158-10.041 3.233z"/><path d="m48.316 12.052c-.526-.177-1.091.108-1.265.632-.175.524.108 1.091.632 1.265 0 0 3.212 1.052 3.316 1.052.419 0 .809-.265.949-.684.175-.524-.108-1.091-.632-1.265z"/><path d="m14.5 31c-1.93 0-3.5 1.57-3.5 3.5 0 .553.448 1 1 1s1-.447 1-1c0-.827.673-1.5 1.5-1.5s1.5.673 1.5 1.5-.673 1.5-1.5 1.5c-.552 0-1 .447-1 1s.448 1 1 1c1.93 0 3.5-1.57 3.5-3.5s-1.57-3.5-3.5-3.5z"/></g></svg>