<?xml version="1.0" encoding="UTF-8"?><svg id="Layer_1" xmlns="http://www.w3.org/2000/svg" xmlns:xlink="http://www.w3.org/1999/xlink" viewBox="0 0 464.61 512.06"><defs><linearGradient id="linear-gradient" x1="-1156.99" y1="957.24" x2="-1117.28" y2="1026.02" gradientTransform="translate(9317.26 -7613.43) scale(8)" gradientUnits="userSpaceOnUse"><stop offset=".34" stop-color="#4bb9ea"/><stop offset=".69" stop-color="#1686c9"/><stop offset=".88" stop-color="#0071bc"/></linearGradient><linearGradient id="linear-gradient-2" x1="-1148.51" y1="952.7" x2="-1109.18" y2="1020.82" gradientTransform="translate(9317.26 -7613.43) scale(8)" gradientUnits="userSpaceOnUse"><stop offset=".34" stop-color="#369fff"/><stop offset=".88" stop-color="#004afe"/></linearGradient><linearGradient id="linear-gradient-3" x1="-1129.4" y1="940.52" x2="-1090.35" y2="1008.16" gradientTransform="translate(9317.26 -7613.43) scale(8)" gradientUnits="userSpaceOnUse"><stop offset=".34" stop-color="#4bb9ea"/><stop offset=".69" stop-color="#1686c9"/><stop offset=".88" stop-color="#0071bc"/></linearGradient><linearGradient id="linear-gradient-4" x1="-1164.11" y1="961.7" x2="-1124.39" y2="1030.49" gradientTransform="translate(9317.26 -7613.43) scale(8)" gradientUnits="userSpaceOnUse"><stop offset=".34" stop-color="#4bb9ea"/><stop offset=".69" stop-color="#1686c9"/><stop offset=".88" stop-color="#0071bc"/></linearGradient></defs><circle cx="171.96" cy="236.06" r="12" style="fill:url(#linear-gradient);"/><path d="m463.76,4.46c-2-4-6.8-5.6-10.7-3.6l-95.4,47.4c-13.4,6.8-21.7,20.1-21.7,35,0,10.2,4.2,20.3,11.4,27.5l26.5,26.5-34.2,57-31.6-98.2c-1.3-4.2-5.8-6.5-10.1-5.2l-63.3,20.4-3.1-9.6c-4.3-13.3-16.5-22.2-30.5-22.2-3.5,0-6.8.5-9.7,1.5-9.2,3-15.9,9.7-19.5,17.9-7.6-4.6-17-6.2-26.3-3.2-9.1,3-15.9,9.7-19.4,17.9-7.6-4.6-17-6.2-26.3-3.2-9.1,2.9-15.9,9.7-19.4,17.8-7.5-4.6-16.9-6.1-26.2-3.1-8.2,2.6-14.8,8.2-18.7,15.8-3.9,7.6-4.6,16.2-2,24.4l3.1,9.6-31.1,10c-4.2,1.4-6.5,5.9-5.2,10.1l53.9,167.5c.7,2,2.1,3.7,4,4.7,2.6,1.2,5.3.8,6.1.5l15.6-5v141.4c0,4.4,3.6,8,8,8s8-3.6,8-8v-146.5l96-30.9v9.4c0,4.4,3.6,8,8,8s8-3.6,8-8v-48c0-12.8,5-24.9,14.1-33.9,7.2-7.2,16.2-11.8,25.9-13.4v95.3c0,11.3-2.6,22.1-7.6,32.2-5,10-12.3,18.8-21.1,25.4-2,1.5-3.2,3.9-3.2,6.4v104c0,4.4,3.6,8,8,8s8-3.6,8-8v-100.1c9.4-7.8,17.2-17.6,22.7-28.5,6.2-12.3,9.3-25.5,9.3-39.4v-32.6l32.6-10.5-7.4,14.9c-4.4,8.8-6.8,18.7-6.8,28.6,0,14.8,5.2,29.2,14.8,40.8,12.2,14.5,30.1,22.8,48.9,22.8h63.4l21.1,105.6c.8,3.8,4.1,6.4,7.8,6.4,7.5,0,8.7-5.2,7.8-9.6l-22.4-112c-.7-3.7-4-6.4-7.8-6.4h-70.1c-14.1,0-27.5-6.2-36.6-17.1-7.1-8.6-11-19.4-11-30.5,0-7.4,1.8-14.8,5.1-21.4l14.4-28.9,36.4-11.7c5.5,1.7,18.7,5.3,34.7,5.3,12.1,0,25.6-2.1,38.6-8.5,4-2,5.6-6.8,3.6-10.7s-6.8-5.5-10.7-3.6c-23,11.5-50.1,5.5-59.7,2.7l-14.5-45.1,44.6-74.3c1.9-3.2,1.4-7.2-1.2-9.8l-31-31c-4.3-4.3-6.7-10.2-6.7-16.2,0-8.8,4.9-16.7,12.8-20.6l95.5-47.4c3.8-2,5.5-6.8,3.5-10.8h0Zm-168.5,104.1l35.9,111.5c-7.5.7-15.1.8-22.9-1.3-8.4-2.2-11.8-6.9-17-14-8.1-11.1-18-24.6-48.7-30.3,5-7.8,6.8-17.6,3.7-27.1l-6.7-20.9,55.7-17.9h0Zm-98.9-12.4c1.4-.5,3-.7,4.8-.7,7,0,13.1,4.5,15.3,11.1l14.7,45.6c2.7,8.4-2,17.5-10.3,20.2-4.1,1.3-8.4.9-12.2-1s-6.6-5.2-7.9-9.3l-14.7-45.7c-2.9-8.4,1.8-17.5,10.3-20.2h0Zm-45.9,14.7c9-2.9,17.5,2.2,20.2,10.4l14.7,45.6c1.3,4.1.9,8.5-1,12.3s-5.2,6.6-9.3,7.9c-8.4,2.7-17.4-1.9-20.2-10.3l-14.7-45.7c-2.7-8.4,2-17.5,10.3-20.2h0Zm-45.6,14.7c9-2.9,17.5,2.2,20.2,10.4l14.6,45.7c2.7,8.4-1.9,17.4-10.3,20.1-8.4,2.8-17.5-1.9-20.2-10.4l-14.7-45.6h0c-2.7-8.4,2-17.5,10.4-20.2h0Zm-55.1,22.6c1.9-3.8,5.2-6.6,9.3-7.9,9.3-3,17.5,2.1,20.1,10.2h0l14.8,45.8c2.7,8.4-1.9,17.5-10.3,20.2-8.4,2.8-17.5-1.9-20.2-10.4l-14.7-45.6c-1.3-4.1-.9-8.5,1-12.3h0Zm214.2,138.5v-54.6c0-4.4-3.6-8-8-8-17.1,0-33.2,6.7-45.3,18.7-12,12.1-18.7,28.2-18.7,45.3v21.8l-124.9,40.1L18.06,197.66l23.5-7.6,6.7,20.9c4.4,13.6,17,22.2,30.5,22.2,3.2,0,6.6-.5,9.8-1.5,9.1-3,15.9-9.7,19.4-17.9,4.9,3,10.6,4.7,16.5,4.7,3.2,0,6.6-.5,9.8-1.5,9.1-3,15.9-9.7,19.4-17.8,4.9,3,10.6,4.7,16.5,4.7,3.2,0,6.5-.5,9.8-1.5,15.8-4.6,19.2-17.2,19.5-17.8.6.4,7.2,5,16.4,4.7,2.6-.1,5.3-.4,7.8-1.1,37.7,2.8,46.3,14.6,54.7,26.1,5.6,7.7,12,16.4,25.8,20.1,6.4,1.7,12.6,2.3,18.6,2.3,4.6,0,9-.4,13.4-.9l8.1,25.3-80.3,25.6h0Z" style="fill:url(#linear-gradient-2);"/><path d="m386.46,96.46c-4.2-1.4-8.7.9-10.1,5.1s.9,8.7,5.1,10.1c0,0,25.7,8.4,26.5,8.4,3.4,0,6.5-2.1,7.6-5.5,1.4-4.2-.9-8.7-5.1-10.1l-24-8Z" style="fill:url(#linear-gradient-3);"/><path d="m115.96,248.06c-15.4,0-28,12.6-28,28,0,4.4,3.6,8,8,8s8-3.6,8-8c0-6.6,5.4-12,12-12s12,5.4,12,12-5.4,12-12,12c-4.4,0-8,3.6-8,8s3.6,8,8,8c15.4,0,28-12.6,28-28s-12.6-28-28-28Z" style="fill:url(#linear-gradient-4);"/></svg>