<?xml version="1.0" encoding="UTF-8"?>
<svg id="Layer_1" data-name="Layer 1" xmlns="http://www.w3.org/2000/svg" viewBox="0 0 464.64 512.01">
  <circle cx="172.01" cy="236.01" r="12" style="fill: #fff;"/>
  <path d="m463.8,4.45c-1.97-3.96-6.77-5.58-10.73-3.6l-95.45,47.45c-13.34,6.67-21.62,20.06-21.62,34.92,0,10.24,4.15,20.26,11.38,27.5l26.54,26.54-34.2,56.98-31.63-98.27c-1.34-4.2-5.84-6.5-10.06-5.17l-63.33,20.35-3.09-9.57c-4.26-13.28-16.5-22.2-30.5-22.2-3.46,0-6.76.51-9.74,1.5-9.15,2.96-15.94,9.71-19.48,17.91-7.59-4.59-17.01-6.18-26.3-3.18-9.12,2.96-15.89,9.72-19.41,17.91-7.6-4.59-17.02-6.18-26.26-3.2-9.1,2.94-15.88,9.66-19.42,17.83-7.54-4.55-16.91-6.14-26.22-3.12-8.16,2.58-14.8,8.19-18.7,15.82-3.89,7.58-4.61,16.23-2.02,24.42l3.09,9.58-31.13,10.03c-4.2,1.36-6.51,5.86-5.16,10.07l53.92,167.52c.66,2.02,2.08,3.7,3.97,4.66,2.63,1.23,5.3.76,6.1.5l15.62-5.02v141.41c0,4.42,3.58,8,8,8s8-3.58,8-8v-146.55l96-30.87v9.42c0,4.42,3.58,8,8,8s8-3.58,8-8v-48c0-12.82,4.99-24.87,14.06-33.94,7.15-7.15,16.17-11.77,25.94-13.4v95.34c0,11.29-2.57,22.11-7.65,32.2-4.96,9.98-12.27,18.77-21.14,25.38-2.02,1.51-3.22,3.89-3.22,6.42v104c0,4.42,3.58,8,8,8s8-3.58,8-8v-100.11c9.43-7.78,17.22-17.57,22.66-28.53,6.19-12.3,9.34-25.54,9.34-39.36v-32.57l32.61-10.5-7.43,14.9c-4.44,8.79-6.78,18.66-6.78,28.57,0,14.78,5.22,29.24,14.76,40.75,12.22,14.52,30.06,22.85,48.92,22.85h63.36l21.11,105.57c.76,3.81,4.1,6.43,7.83,6.43,7.46,0,8.72-5.23,7.85-9.57l-22.4-112c-.74-3.74-4.03-6.43-7.84-6.43h-69.92c-14.14,0-27.5-6.25-36.64-17.1-7.12-8.6-11.04-19.44-11.04-30.5,0-7.42,1.75-14.8,5.08-21.39l14.43-28.94,36.45-11.74c5.49,1.74,18.67,5.32,34.66,5.32,12.06,0,25.65-2.06,38.55-8.5,3.95-1.98,5.55-6.78,3.58-10.74s-6.78-5.54-10.74-3.58c-23.04,11.52-50.11,5.47-59.67,2.71l-14.51-45.1,44.62-74.34c1.89-3.15,1.39-7.18-1.2-9.78l-30.96-30.96c-4.26-4.26-6.7-10.16-6.7-16.18,0-8.78,4.9-16.67,12.76-20.6l95.46-47.44c3.95-1.97,5.57-6.77,3.6-10.73h0Zm-168.48,104.02l35.88,111.5c-7.52.73-15.06.75-22.92-1.3-8.36-2.2-11.78-6.9-16.97-14.02-8.11-11.14-17.99-24.56-48.73-30.34,4.99-7.78,6.75-17.58,3.74-27.08l-6.72-20.86,55.7-17.9h0Zm-98.95-12.39c1.42-.47,3.02-.71,4.76-.71,7,0,13.14,4.46,15.26,11.09l14.7,45.65c2.67,8.44-1.96,17.5-10.33,20.21-4.1,1.29-8.44.91-12.23-1.02-3.79-1.94-6.58-5.24-7.88-9.34l-14.72-45.68c-2.71-8.4,1.94-17.45,10.43-20.18h0Zm-45.82,14.74c8.98-2.9,17.5,2.16,20.16,10.37l14.7,45.62c1.3,4.1.94,8.46-1.01,12.26-1.94,3.79-5.25,6.58-9.34,7.87-8.39,2.74-17.45-1.9-20.17-10.27l-14.65-45.7c-2.71-8.39,1.9-17.44,10.3-20.17v.02Zm-45.68,14.72c8.98-2.91,17.5,2.16,20.16,10.37l14.64,45.68c2.71,8.35-1.91,17.36-10.29,20.08-8.43,2.75-17.46-1.94-20.17-10.35l-14.71-45.64h0v-.02c-2.68-8.38,1.97-17.41,10.36-20.12h0Zm-55.03,22.6c1.94-3.79,5.25-6.58,9.33-7.87,9.26-3.01,17.53,2.14,20.09,10.22v.02l14.73,45.7c2.71,8.41-1.91,17.46-10.29,20.17-8.4,2.75-17.46-1.94-20.17-10.37l-14.7-45.63c-1.3-4.1-.94-8.46,1.01-12.25h0Zm214.17,138.49v-54.62c0-4.42-3.58-8-8-8-17.1,0-33.17,6.66-45.26,18.74-12.09,12.1-18.74,28.17-18.74,45.26v21.77l-124.91,40.16L18.07,197.65l23.52-7.58,6.73,20.86c4.38,13.57,16.98,22.22,30.51,22.22,3.25,0,6.55-.5,9.81-1.54,9.1-2.96,15.86-9.69,19.38-17.86,4.94,2.97,10.6,4.69,16.49,4.69,3.25,0,6.55-.5,9.81-1.54,9.1-2.96,15.86-9.68,19.39-17.83,4.94,2.96,10.59,4.67,16.46,4.67,3.24,0,6.53-.5,9.77-1.54,15.83-4.65,19.21-17.16,19.5-17.82.62.37,7.23,5.01,16.42,4.71,2.62-.09,5.26-.42,7.85-1.07,37.67,2.78,46.34,14.62,54.68,26.06,5.6,7.7,11.95,16.42,25.83,20.08,6.45,1.69,12.63,2.3,18.58,2.3,4.62,0,9.05-.42,13.4-.94l8.13,25.26-80.33,25.86h0Z" style="fill: #fff;"/>
  <path d="m386.54,96.42c-4.21-1.42-8.73.86-10.12,5.06-1.4,4.19.86,8.73,5.06,10.12,0,0,25.7,8.42,26.53,8.42,3.35,0,6.47-2.12,7.59-5.47,1.4-4.19-.86-8.73-5.06-10.12l-24-8Z" style="fill: #fff;"/>
  <path d="m116.01,248.01c-15.44,0-28,12.56-28,28,0,4.42,3.58,8,8,8s8-3.58,8-8c0-6.62,5.38-12,12-12s12,5.38,12,12-5.38,12-12,12c-4.42,0-8,3.58-8,8s3.58,8,8,8c15.44,0,28-12.56,28-28s-12.56-28-28-28Z" style="fill: #fff;"/>
</svg>