<?xml version="1.0" encoding="UTF-8"?>
<svg id="Illustration" xmlns="http://www.w3.org/2000/svg" xmlns:xlink="http://www.w3.org/1999/xlink" viewBox="0 0 1754 1703.81">
  <defs>
    <linearGradient id="linear-gradient" x1="290.91" y1="1541.1" x2="471.34" y2="1541.1" gradientUnits="userSpaceOnUse">
      <stop offset="0" stop-color="#0643a3"/>
      <stop offset="1" stop-color="#2c7efe"/>
    </linearGradient>
    <linearGradient id="linear-gradient-2" x1="283.99" y1="1466.57" x2="478.25" y2="1466.57" gradientUnits="userSpaceOnUse">
      <stop offset="0" stop-color="#2c7efe"/>
      <stop offset="1" stop-color="#84b2fe"/>
    </linearGradient>
  </defs>
  <path d="m1252.58,1703.81c263.04,0,477.59-23.5,477.59-52.35s-214.55-52.35-477.59-52.35-477.63,23.5-477.63,52.35,214.55,52.35,477.63,52.35h0Z" fill="#dfe6ff" fill-rule="evenodd"/>
  <path d="m397.93,1651.46c176.29,0,320.08-23.5,320.08-52.35s-143.79-52.35-320.08-52.35-320.11,23.5-320.11,52.35,143.79,52.35,320.11,52.35h0Z" fill="#dfe6ff" fill-rule="evenodd"/>
  <path d="m1091.45,1389.21c21.65,18.52,121.07,158.12,480.8-47.38,141.22-80.7,222.75-202.48,160.7-347.18-84.8-197.68-137.55-231.19-82.08-423.08,32.23-111.52,193.74-551.51-327.68-551.5-239.36,0-270.74,228.01-706.13,47.31C-106.85-233.08-197.32,1411.35,364.18,1411.33c231.63,0,373.86-25.36,644.71-39.82,15.47-.83,49.81-2.45,65.44,7.97l17.1,9.73Z" fill="#c7e9f4" fill-rule="evenodd" opacity=".5"/>
  <g>
    <g>
      <g>
        <path d="m305.49,65.47c-11.04,8.16-28.68,9.71-45.45,2.7-16.82-7.01-28.09-20.62-30.06-34.23,11.04-8.16,28.64-9.71,45.45-2.7,16.82,7.01,28.09,20.62,30.06,34.23h0Z" fill="#d1d2e8" fill-rule="evenodd"/>
        <path d="m359.28,160.22c13.65-1.56,27.58-12.46,35.1-29,7.51-16.59,6.51-34.27-1.37-45.54-13.65,1.56-27.58,12.42-35.1,29-7.51,16.59-6.46,34.23,1.37,45.54h0Z" fill="#d1d2e8" fill-rule="evenodd"/>
        <path d="m153.47,0h942c11.32,0,20.57,9.26,20.57,20.57v932.92c0,11.32-9.26,20.57-20.57,20.57H153.47c-11.32,0-20.57-9.25-20.57-20.57V20.57c0-11.32,9.25-20.57,20.57-20.57h0Z" fill="#84b2fe" fill-rule="evenodd"/>
        <path d="m1116.04,121.09H132.9V20.57c0-11.32,9.25-20.57,20.57-20.57h942c11.32,0,20.57,9.26,20.57,20.57v100.52Z" fill="#2c7efe" fill-rule="evenodd"/>
        <path d="m192.73,77.48c9.3,0,16.91-7.61,16.91-16.95s-7.61-16.95-16.91-16.95-16.95,7.65-16.95,16.95,7.61,16.95,16.95,16.95h0Z" fill="#ea718b" fill-rule="evenodd"/>
        <path d="m257.7,77.48c9.3,0,16.91-7.61,16.91-16.95s-7.61-16.95-16.91-16.95-16.95,7.65-16.95,16.95,7.61,16.95,16.95,16.95h0Z" fill="#feb542" fill-rule="evenodd"/>
        <path d="m326.43,77.48c9.35,0,16.95-7.61,16.95-16.95s-7.61-16.95-16.95-16.95-16.95,7.65-16.95,16.95,7.61,16.95,16.95,16.95h0Z" fill="#fff" fill-rule="evenodd"/>
      </g>
      <g>
        <path d="m266.58,329.32c47.07,0,85.44-38.42,85.44-85.49s-38.37-85.49-85.44-85.49-85.49,38.42-85.49,85.49,38.37,85.49,85.49,85.49h0Z" fill="#fff" fill-rule="evenodd"/>
        <path d="m281.49,257.34c22.78,5.64,40.54,23.87,45.57,46.86-15.48,15.53-36.87,25.11-60.48,25.11s-45.05-9.58-60.53-25.11c5.02-22.99,22.78-41.22,45.57-46.86-9.11-5.23-15.27-15.02-15.27-26.3,0-16.67,13.51-30.24,30.24-30.24s30.24,13.57,30.24,30.24c0,11.29-6.16,21.07-15.33,26.3h0Z" fill="#2c7efe" fill-rule="evenodd"/>
      </g>
    </g>
    <g>
      <path d="m624.47,646.98c104.92,0,190.63-85.22,190.63-190.63s-85.71-190.14-190.63-190.14-190.63,85.22-190.63,190.14,85.71,190.63,190.63,190.63h0Z" fill="#db3a55" fill-rule="evenodd"/>
      <g>
        <path d="m804.26,397.68c-1.79,0-3.47-1.1-4.11-2.88-11.65-32.02-31.46-60.33-57.31-81.87-1.86-1.55-2.11-4.31-.56-6.17,1.55-1.86,4.31-2.11,6.17-.56,27.03,22.53,47.76,52.13,59.93,85.6.83,2.27-.35,4.78-2.62,5.61-.49.18-1,.27-1.5.27Z" fill="#fff"/>
        <path d="m624.47,651.36c-52.15,0-101.14-20.27-137.94-57.07-36.8-36.8-57.07-85.79-57.07-137.94,0-107.26,87.48-194.51,195.01-194.51,32.96,0,64.32,7.97,93.22,23.68,2.12,1.16,2.91,3.81,1.75,5.94-1.15,2.12-3.81,2.91-5.94,1.75-27.6-15.01-57.55-22.62-89.04-22.62-102.7,0-186.25,83.33-186.25,185.76s83.55,186.25,186.25,186.25,186.25-83.55,186.25-186.25c0-14.15-1.61-27.54-4.78-39.79-.61-2.34.8-4.73,3.14-5.34,2.34-.61,4.73.8,5.34,3.14,3.36,12.97,5.07,27.09,5.07,41.98,0,107.53-87.48,195.01-195.01,195.01Z" fill="#fff"/>
      </g>
      <rect x="248.28" y="724.95" width="752.38" height="135.49" rx="50.9" ry="50.9" fill="#db3a55"/>
      <g>
        <path d="m398.22,840.85l-13.75-26.83h-15.17v26.83h-16.5v-96.32h30.86c6.31,0,11.8,1.42,16.45,4.27,4.65,2.84,8.23,6.88,10.74,12.11,2.51,5.23,3.77,11.42,3.77,18.58s-1.27,13.33-3.82,18.51c-2.55,5.18-6.16,9.15-10.85,11.9l15.99,30.96h-17.72Zm-4.18-73.82c-2.58-2.89-6.35-4.33-11.31-4.33h-13.44v33.57h13.44c4.96,0,8.72-1.47,11.31-4.4,2.58-2.93,3.87-7.06,3.87-12.38s-1.29-9.56-3.87-12.45Z" fill="#fff"/>
        <path d="m482.85,822.96v17.89h-55.2v-96.32h53.88v17.89h-37.48v20.92h33.1v17.34h-33.1v22.29h38.8Z" fill="#fff"/>
        <path d="m495.84,838.85c-4.04-2.43-7.35-5.89-9.93-10.39l9.17-14.86c3.87,7.06,8.28,10.6,13.24,10.6,6.72,0,10.08-5.32,10.08-15.96v-45.82h-25.05v-17.89h41.45v62.47c0,11.83-2.17,20.71-6.52,26.63-4.35,5.92-10.73,8.88-19.15,8.88-4.82,0-9.25-1.22-13.29-3.65Z" fill="#fff"/>
        <path d="m606.29,822.96v17.89h-55.2v-96.32h53.88v17.89h-37.48v20.92h33.1v17.34h-33.1v22.29h38.8Z" fill="#fff"/>
        <path d="m633.63,836.1c-5.87-4.27-10.49-10.18-13.85-17.75-3.36-7.57-5.04-16.12-5.04-25.66s1.68-18.1,5.04-25.66c3.36-7.57,7.98-13.49,13.85-17.75,5.87-4.27,12.48-6.4,19.81-6.4,6.18,0,11.76,1.47,16.75,4.4,4.99,2.94,9.18,7.15,12.58,12.66l-10.59,13.21c-4.82-7.52-10.8-11.28-17.92-11.28-4.41,0-8.35,1.31-11.81,3.92-3.46,2.61-6.16,6.26-8.1,10.94s-2.9,10-2.9,15.96.97,11.28,2.9,15.96c1.93,4.68,4.63,8.32,8.1,10.94,3.46,2.61,7.4,3.92,11.81,3.92,7.13,0,13.1-3.81,17.92-11.42l10.59,13.21c-3.4,5.6-7.61,9.86-12.63,12.8-5.03,2.93-10.63,4.4-16.8,4.4-7.27,0-13.84-2.13-19.71-6.4Z" fill="#fff"/>
        <path d="m707.93,762.69h-22.81v-18.16h62.13v18.16h-22.81v78.16h-16.5v-78.16Z" fill="#fff"/>
        <path d="m811.3,822.96v17.89h-55.2v-96.32h53.88v17.89h-37.48v20.92h33.1v17.34h-33.1v22.29h38.8Z" fill="#fff"/>
        <path d="m824.44,744.53h32.39c7.74,0,14.58,1.99,20.52,5.99,5.94,3.99,10.56,9.61,13.85,16.86,3.29,7.25,4.94,15.69,4.94,25.32s-1.65,18.07-4.94,25.32c-3.29,7.25-7.91,12.87-13.85,16.86-5.94,3.99-12.78,5.99-20.52,5.99h-32.39v-96.32Zm31.57,78.02c7.13,0,12.82-2.68,17.06-8.05,4.24-5.37,6.37-12.64,6.37-21.81s-2.12-16.44-6.37-21.81c-4.24-5.37-9.93-8.05-17.06-8.05h-15.07v59.72h15.07Z" fill="#fff"/>
      </g>
      <path d="m664.85,562.28l-40.91-57.2-42.3,57.2h-58.94l71.76-93.95-69.34-92.56h60.67l39.52,54.43,40.56-54.43h57.55l-69.34,91.18,72.11,95.34h-61.36Z" fill="#fff"/>
    </g>
  </g>
  <g>
    <path d="m1455.77,1571.43c-4.94,6.44-9.74,12.88-14.68,19.17-6.74,21.42-38.04,47.93-19.92,64.41,21.42,6.14,67.85,5.39,92.86-3.89,8.99-17.22-10.78-49.73-19.17-71.74l-39.09-7.94Z" fill="#153663" fill-rule="evenodd"/>
    <path d="m1427.61,1509.88l58.11,4.49c3,21.72,6.14,43.29,9.14,65-3,15.43-31.45,14.68-53.77,11.23l-13.48-80.73Z" fill="#ffcdad" fill-rule="evenodd"/>
    <path d="m1260.16,1543.43l-34.45,41.19c-29.21,58.71-119.22,19.77-80.58,79.53l145.29-4.49c6.14-33.25-3.59-42.99-10.48-75.04l-19.77-41.19Z" fill="#153663" fill-rule="evenodd"/>
    <path d="m1279.93,1502.39l-56.32,16.48c.45,21.87,1.05,43.74,1.65,65.75,18.12,0,22.47,28.16,54.67,0v-82.23Z" fill="#ffcdad" fill-rule="evenodd"/>
    <polygon points="1398.11 971.27 1436.45 968.57 1495.01 1554.36 1430.91 1561.25 1338.94 1100.23 1286.97 1562.9 1214.78 1559.45 1237.54 967.23 1398.11 971.27" fill="#153663" fill-rule="evenodd"/>
    <path d="m1180.63,503.66l34.6,28.91,21.27-22.02c13.48,1.2,33.1,8.69,40.44,3.74,12.13-10.63-19.92-9.59-22.02-21.27,9.89-18.12,34.6-20.37,46.88-34.3,23.52-34.3-20.07-37.59-47.18-25.61-16.03,5.24-31,24.41-44.04,44.78l-29.96,25.76Z" fill="#ffcdad" fill-rule="evenodd"/>
    <path d="m1272.59,665.42l-33.25-18.57-131.96,23.52,132.25-141.54-46.73-41.79-143.34,141.24c-58.41,48.98-53.32,93.91,0,120.57l246.24,49.88-23.22-133.3Z" fill="#0ebaa0" fill-rule="evenodd"/>
    <path d="m1488.27,497.67l-35.95,27.11-20.22-22.92c-13.48.6-33.4,7.04-40.44,1.8-11.83-11.23,20.22-8.69,22.92-20.22-8.99-18.57-33.55-21.87-45.23-36.55-21.87-35.35,21.72-36.4,48.38-23.37,15.73,5.99,29.66,25.91,41.79,46.88l28.76,27.26Z" fill="#ffcdad" fill-rule="evenodd"/>
    <path d="m1399.9,650.14l33.25-18.57,131.96,23.66-131.96-131.51,43.29-46.58,146.48,136c58.41,48.83,53.32,93.91,0,120.57l-246.39,49.88,23.37-133.45Z" fill="#0ebaa0" fill-rule="evenodd"/>
    <path d="m1379.09,620.04c-20.22-.3-40.29-.75-60.51-1.05-40.14,13.93-43.59,15.88-89.27,29.66l9.29,319.48c54.22,43.59,161.16,41.34,198.91,2.4l35.65-316.63c-20.07-24.26-59.46-28.76-94.06-33.85h0Z" fill="#0ebaa0" fill-rule="evenodd"/>
    <path d="m1388.07,502.01l-74.14,74.89c-1.05,13.63-2.1,27.26-3,40.89-2.85,45.23,46.43,14.53,66.8,7.79l10.33-123.57Z" fill="#f9bc9b" fill-rule="evenodd"/>
    <path d="m1413.09,474.45l-135.25-27.26c-3.15,49.13-56.32,159.96,40.29,152.77,71.15-4.34,81.93-72.64,94.96-125.51h0Z" fill="#ffcdad" fill-rule="evenodd"/>
    <path d="m1383.13,485.54c-31-26.21-95.11,7.49-110.54-7.64-14.38-19.47-83.43-8.24-70.4-31.45,11.98-15.13,28.16-15.88,42.24-23.81-4.64-9.14-15.73-15.58-28.31-19.92,35.05-24.86,60.36-8.99,86.57,8.24,54.82-19.47,90.62-9.29,118.77,19.02,26.36,25.61-4.19,68.75-12.43,99.3,3.59,7.79,15.43,1.05,22.17,5.09-3,7.34-7.79,10.93-12.88,13.18,0,7.79,5.69,4.49,9.44,10.78-13.48,7.79-33.25,7.79-44.18,4.34,5.54-29.66,12.43-60.21-.45-77.14h0Z" fill="#060352" fill-rule="evenodd"/>
    <path d="m1284.87,547.69c-9.29-4.79-13.78,13.63-8.99,21.57,2.55,3.89,16.78,13.48,23.37,9.14,9.14-6.29,31.6,13.78,37.59,3.44,2.4-3.89,10.04-6.74,7.04-19.32-1.95-7.79-18.57-14.83-27.86-13.03-4.64.9-29.66-.9-31.15-1.8h0Z" fill="#fff"/>
  </g>
  <g>
    <path d="m391.47,1494.16c8.03-27.98,44.74-36.57,59.6-53.68,7.85-11.19-19.25-16.44-14.01-20.28,11.54-7.53,46.15,4.72,60.83-6.65,20.8-14.68-42.22-23.5-22.3-43.78,7.88-8.91,54.65,22.62,75.27,7.06,14.15-10.64-20.33-22.68-18.02-28.66,2.64-8.38,64.52,15.73,78.32-8.38,4.72-22.56-31.29-9.61-34.25-20.28-1.23-10.14,56.08-7.53,43.69-48.26-16.61-33.37-80.4,40.9-92.3,34.28-12.92-11.72,35.13-35.48-3.66-45.62-40.02-4.01-30.94,61-42.49,59.6-14.5,1.9-8.03-32.35-30.06-20.98-19.75,9.61,6.12,49.81-12.57,57.87-13.62,1.2,3.84-35.31-22.03-33.4-26.37,3.16-.53,64.14-19.22,72.02-8.56,5.42-5.77-36.19-22.36-27.98-18.02,11.54-9.35,58.75-14.01,88.11,10.96,14.45,18.64,24.55,29.56,39h0Z" fill="#65b646" fill-rule="evenodd"/>
    <path d="m404.86,1489.33c-10.99-26.96,12.57-56.37,13.65-79.02-.73-13.65-25.26-1.03-23.53-7.3,4.42-13.04,39.2-24.82,43.72-42.84,7.27-24.38-47.7,7.65-44.6-20.63.67-11.87,56.93-15.97,63.52-40.93,4.54-17.14-30-5.27-31.85-11.43-3.14-8.2,60.42-27.48,56.37-55-10.23-20.63-30.56,11.78-39.47,5.24-7.24-7.21,39.44-40.58,4.51-64.93-33.67-15.97-37.91,81.84-51.36,83.98-17.4-1.2,5.68-49.61-31.09-33.58-33.93,21.57,13.39,67.07,3.46,73.1-10.2,10.46-26.31-20.45-36.6,2.08-9.58,19.78,35.6,35.37,25.87,53.27-9.96,9.38-18.81-30.15-37.94-12.63-18.81,18.78,39.23,50.75,29.39,68.48-3.37,9.55-26.9-24.88-34.87-8.15-7.03,20.19,28.98,51.92,43.45,77.88,17.55,4.6,29.8,7.79,47.35,12.39h0Z" fill="#65b646" fill-rule="evenodd"/>
    <path d="m351.97,1498.97c-.94-29.1-34.43-46.38-44.65-66.6-4.89-12.77,22.65-11.25,18.52-16.26-9.38-10.11-45.91-6.68-57.37-21.3-16.58-19.31,46.68-12.45,32.29-36.98-5.45-10.58-58.48,8.59-74.69-11.54-11.13-13.77,25.26-17.02,24.47-23.38-.5-8.79-66.39-.5-73.9-27.25.94-23.03,32.67-1.7,38.18-11.31,3.66-9.52-52.59-20.98-30.62-57.46,24.26-28.3,68.01,59.3,81.13,55.76,15.41-8.2-25.4-42.98,14.71-43.34,39.79,5.86,15.09,66.72,26.63,68.15,13.6,5.42,15.68-29.39,34.28-12.98,16.79,14.12-18.11,46.79-1.93,59.16,12.92,4.51,4.89-35.16,29.51-26.99,24.82,9.49-15.15,62.32,1.08,74.51,6.97,7.35,14.42-33.67,28.51-21.65,14.65,15.59-5.3,59.25-7.94,88.84-14.15,11.34-24.06,19.28-38.21,30.62h0Z" fill="#65b646" fill-rule="evenodd"/>
    <g>
      <path d="m476.53,1357.24c-45.03,36.36-80.9,76.15-103.61,112.46l18.55,24.47c8.03-27.98,44.74-36.57,59.6-53.68,7.85-11.19-19.25-16.44-14.01-20.28,11.54-7.53,46.15,4.72,60.83-6.65,20.8-14.68-42.22-23.5-22.3-43.78,7.88-8.91,54.65,22.62,75.27,7.06,14.15-10.64-20.33-22.68-18.02-28.66,2.64-8.38,64.52,15.73,78.32-8.38,4.72-22.56-31.29-9.61-34.25-20.28-1.2-9.82,52.3-7.68,44.68-44.3-43.1,13.16-94.96,41.55-145.07,82.01h0Z" fill="#97cb69" fill-rule="evenodd"/>
      <path d="m387.07,1329.11c-12.92,56.43-16.5,109.88-11.93,152.45l29.71,7.76c-10.99-26.96,12.57-56.37,13.65-79.02-.73-13.65-25.26-1.03-23.53-7.3,4.42-13.04,39.2-24.82,43.72-42.84,7.27-24.38-47.7,7.65-44.6-20.63.67-11.87,56.93-15.97,63.52-40.93,4.54-17.14-30-5.27-31.85-11.43-3.14-8.2,60.42-27.48,56.37-55-10.23-20.63-30.56,11.78-39.47,5.24-7-6.97,36.36-38.38,7.76-62.44-25.78,36.98-48.99,91.36-63.38,154.12h0Z" fill="#97cb69" fill-rule="evenodd"/>
      <path d="m302.92,1345.4c34.81,46.27,59.86,93.61,73.02,134.34l-23.97,19.22c-.94-29.1-34.43-46.38-44.65-66.6-4.89-12.77,22.65-11.25,18.52-16.26-9.38-10.11-45.91-6.68-57.37-21.3-16.58-19.31,46.68-12.45,32.29-36.98-5.45-10.58-58.48,8.59-74.69-11.54-11.13-13.77,25.26-17.02,24.47-23.38-.5-8.79-66.39-.5-73.9-27.25.94-23.03,32.67-1.7,38.18-11.31,3.52-9.2-48.87-20.22-32.55-53.85,38.62,23.26,81.95,63.46,120.66,114.92h0Z" fill="#97cb69" fill-rule="evenodd"/>
    </g>
    <polygon points="428.47 1612.36 471.34 1469.84 381.12 1469.84 290.91 1469.84 333.77 1612.36 383.97 1612.36 428.47 1612.36" fill="url(#linear-gradient)" fill-rule="evenodd"/>
    <path d="m289.59,1457.68h183.07c3.08,0,5.6,2.52,5.6,5.6v6.59c0,3.11-2.52,5.6-5.6,5.6h-183.07c-3.11,0-5.6-2.49-5.6-5.6v-6.59c0-3.08,2.49-5.6,5.6-5.6h0Z" fill="url(#linear-gradient-2)" fill-rule="evenodd"/>
  </g>
</svg>