<?xml version="1.0" encoding="UTF-8"?>
<svg id="Layer_1" data-name="Layer 1" xmlns="http://www.w3.org/2000/svg" viewBox="0 0 428.53 317.15">
  <g id="OBJECTS">
    <g>
      <g>
        <path d="m387.62,311.8c45.6-34.67,65.91-130.82-8.13-177.97-49.02-31.21-79.51-13.4-134.65-34.05C177.51,74.59,167.47-1.54,85.59,35.92,42.2,55.76,12.13,111.67,6.84,175.22c-5.19,62.23,16.87,104.93,61.94,134.15,105.85,4.5,211.9,3.69,318.84,2.43Z" fill="#e0f3fd"/>
        <path d="m200.28,38.32c-6.89,27.65,18.69,55.03,45.64,66.38,26.95,11.36,57.85,10.01,86.72,4.59,12.46-2.33,25.26-5.62,34.94-13.56,9.68-7.94,15.29-21.73,9.98-32.87-4.68-9.82-16.07-14.85-26.94-17.44s-22.4-3.64-32.08-9.07c-9.18-5.16-15.69-13.69-23.67-20.45-14.75-12.47-35.46-18.66-54.63-14.71-19.18,3.95-34.11,13.63-39.96,37.13Z" fill="#e0f3fd"/>
      </g>
      <g>
        <g>
          <g>
            <path d="m406.6,165.51v-20.92h-7.93c-.95-3.66-2.41-7.11-4.27-10.28l5.61-5.62-14.8-14.8-5.62,5.61c-3.18-1.86-6.63-3.31-10.28-4.27v-7.93h-20.92v7.93c-3.66.95-7.11,2.41-10.28,4.27l-5.62-5.61-14.8,14.8,5.61,5.62c-1.86,3.18-3.3,6.63-4.27,10.28h-7.93v20.92h7.93c.96,3.66,2.41,7.11,4.27,10.28l-5.61,5.62,14.8,14.8,5.62-5.61c3.18,1.86,6.63,3.3,10.28,4.27v7.93h20.92v-7.93c3.66-.96,7.11-2.41,10.28-4.27l5.62,5.61,14.8-14.8-5.61-5.62c1.86-3.18,3.31-6.63,4.27-10.28h7.93Zm-47.74,7.67c-10.01,0-18.13-8.12-18.13-18.13s8.12-18.12,18.13-18.12,18.12,8.12,18.12,18.12-8.12,18.13-18.12,18.13Z" fill="#a3c7e9"/>
            <path d="m343.37,217.93l-3.98-10.38-3.93,1.51c-1.17-1.63-2.54-3.07-4.07-4.29l1.71-3.85-10.15-4.52-1.72,3.85c-1.93-.32-3.92-.38-5.91-.16l-1.51-3.93-10.38,3.98,1.51,3.93c-1.63,1.17-3.07,2.54-4.29,4.07l-3.85-1.71-4.52,10.15,3.85,1.72c-.32,1.93-.38,3.91-.16,5.91l-3.93,1.51,3.98,10.38,3.93-1.51c1.17,1.63,2.54,3.07,4.07,4.29l-1.71,3.85,10.15,4.52,1.72-3.85c1.93.32,3.91.38,5.91.16l1.51,3.93,10.38-3.98-1.51-3.93c1.63-1.17,3.07-2.54,4.29-4.07l3.85,1.71,4.52-10.15-3.85-1.72c.32-1.93.38-3.92.16-5.91l3.93-1.51Zm-22.22,12.89c-4.97,1.91-10.54-.58-12.44-5.54-1.9-4.96.58-10.53,5.54-12.44,4.96-1.9,10.53.58,12.43,5.54,1.91,4.97-.58,10.54-5.54,12.44Z" fill="none" stroke="#a3c7e9" stroke-miterlimit="10"/>
            <path d="m309.38,181.54l-2.69-7.01-2.66,1.02c-.79-1.1-1.72-2.07-2.75-2.9l1.16-2.6-6.86-3.06-1.16,2.6c-1.3-.22-2.65-.26-3.99-.11l-1.02-2.66-7.01,2.69,1.02,2.66c-1.1.79-2.07,1.72-2.9,2.75l-2.6-1.16-3.06,6.86,2.6,1.16c-.22,1.3-.26,2.65-.11,3.99l-2.66,1.02,2.69,7.01,2.66-1.02c.79,1.1,1.72,2.07,2.75,2.9l-1.16,2.6,6.86,3.06,1.16-2.6c1.3.22,2.65.26,3.99.11l1.02,2.66,7.01-2.69-1.02-2.66c1.1-.79,2.07-1.72,2.9-2.75l2.6,1.16,3.06-6.86-2.6-1.16c.22-1.3.26-2.65.11-3.99l2.66-1.02Zm-15.01,8.71c-3.36,1.29-7.12-.39-8.41-3.74-1.29-3.35.39-7.12,3.75-8.4,3.35-1.29,7.12.39,8.4,3.74,1.29,3.36-.39,7.12-3.74,8.4Z" fill="none" stroke="#a3c7e9" stroke-miterlimit="10"/>
          </g>
          <g>
            <path d="m306.94,58.8c0,10.51-4.91,19.88-12.56,25.94-5.63,4.47-12.75,7.12-20.5,7.12s-14.85-2.65-20.5-7.12c-7.65-6.06-12.56-15.43-12.56-25.94,0-18.26,14.8-33.06,33.06-33.06s33.06,14.8,33.06,33.06Z" fill="#1897d4" stroke="#1897d4" stroke-miterlimit="10"/>
            <g>
              <circle cx="273.89" cy="47.92" r="10.82" transform="translate(-3.81 33.91) rotate(-7.04)" fill="#fff"/>
              <path d="m294.38,80.56c-5.63,4.47-12.75,7.12-20.5,7.12s-14.85-2.65-20.5-7.12c2.11-9.3,4.06-17.33,6.08-19.37,2.86-2.86,10.45-4.53,14.4-4.53s11.9,2.03,13.37,3.49c3,2.99,5.58,11.24,7.14,20.4Z" fill="#fff"/>
            </g>
          </g>
          <g>
            <g>
              <path d="m226.37,140.28v-16.32c0-4.46,3.61-8.07,8.07-8.07h51.43c4.46,0,8.07,3.61,8.07,8.07v16.32c0,4.46-3.61,8.07-8.07,8.07h-51.42c-4.46,0-8.08-3.61-8.08-8.07Z" fill="#1897d4"/>
              <polyline points="248.1 139.43 223.21 163.68 263.55 143.29" fill="#1897d4"/>
            </g>
            <g>
              <path d="m232.62,123.56v-.09c0-.66.54-1.2,1.2-1.2h25.43c.66,0,1.2.54,1.2,1.2v.09c0,.66-.54,1.2-1.2,1.2h-25.43c-.66,0-1.2-.54-1.2-1.2Z" fill="#fff"/>
              <path d="m261.59,123.56v-.09c0-.66.54-1.2,1.2-1.2h22.19c.66,0,1.2.54,1.2,1.2v.09c0,.66-.54,1.2-1.2,1.2h-22.19c-.66,0-1.2-.54-1.2-1.2Z" fill="#fff"/>
              <path d="m251.9,129.02v-.09c0-.66.54-1.2,1.2-1.2h31.88c.66,0,1.2.54,1.2,1.2v.09c0,.66-.54,1.2-1.2,1.2h-31.88c-.66,0-1.2-.54-1.2-1.2Z" fill="#fff"/>
              <path d="m232.62,129.02v-.09c0-.66.54-1.2,1.2-1.2h14.24c.66,0,1.2.54,1.2,1.2v.09c0,.66-.54,1.2-1.2,1.2h-14.24c-.66,0-1.2-.54-1.2-1.2Z" fill="#fff"/>
              <path d="m256.32,134.48v-.09c0-.66.54-1.2,1.2-1.2h27.45c.66,0,1.2.54,1.2,1.2v.09c0,.66-.54,1.2-1.2,1.2h-27.45c-.66,0-1.2-.54-1.2-1.2Z" fill="#fff"/>
              <path d="m232.62,134.48v-.09c0-.66.54-1.2,1.2-1.2h18.96c.66,0,1.2.54,1.2,1.2v.09c0,.66-.54,1.2-1.2,1.2h-18.96c-.66,0-1.2-.54-1.2-1.2Z" fill="#fff"/>
              <path d="m232.62,139.95v-.09c0-.66.54-1.2,1.2-1.2h7.04c.66,0,1.2.54,1.2,1.2v.09c0,.66-.54,1.2-1.2,1.2h-7.04c-.66,0-1.2-.54-1.2-1.2Z" fill="#fff"/>
              <path d="m244.54,139.95v-.09c0-.66.54-1.2,1.2-1.2h39.24c.66,0,1.2.54,1.2,1.2v.09c0,.66-.54,1.2-1.2,1.2h-39.24c-.66,0-1.2-.54-1.2-1.2Z" fill="#fff"/>
            </g>
          </g>
          <g>
            <g>
              <circle cx="70.6" cy="103.76" r="31.8" fill="#1897d4"/>
              <g>
                <g>
                  <circle cx="63.09" cy="119.37" r="7.71" fill="#fff"/>
                  <polygon points="59.04 122.13 58.67 117.25 62.72 114.48 67.14 116.6 67.51 121.49 63.46 124.26 59.04 122.13" fill="#1897d4"/>
                </g>
                <g>
                  <circle cx="78.07" cy="88.15" r="7.71" fill="#fff"/>
                  <polygon points="74.26 90.45 74.52 84.24 79.2 80.14 83.62 82.26 83.36 88.48 78.67 92.57 74.26 90.45" fill="#1897d4"/>
                </g>
                <path d="m68.43,115.81l-5.89-2.83,4.36-10.05c.28-.64.58-1.26.9-1.88l5.12-9.68,5.89,2.83-4.2,9.9c-.32.77-.69,1.52-1.08,2.25l-5.1,9.47Z" fill="#fff"/>
              </g>
            </g>
            <path d="m92.68,120.87c1.14-.53,19.38.31,19.38.31l-13.15-12.08-6.23,11.77Z" fill="#1897d4"/>
          </g>
          <g>
            <circle cx="144.51" cy="37.57" r="31.26" fill="#1897d4"/>
            <g>
              <rect x="143.47" y="10.94" width="2.09" height="26.25" fill="#fff"/>
              <rect x="119.68" y="44.59" width="26.61" height="2.09" transform="translate(-2.33 83.8) rotate(-34.69)" fill="#fff"/>
              <path d="m147.39,37.57c0,1.59-1.29,2.88-2.88,2.88s-2.88-1.29-2.88-2.88,1.29-2.88,2.88-2.88,2.88,1.29,2.88,2.88Z" fill="#fff"/>
            </g>
          </g>
        </g>
        <g>
          <g>
            <g>
              <g>
                <path d="m229.38,249.23c-1.85-28.58,10.65-58.15,31.71-75.07.65,28.72-11.72,57.79-31.71,75.07Z" fill="#a3c7e9"/>
                <path d="m257.65,181.85c-8.87,16.54-16.54,33.84-22.92,51.69-7.75,21.67-13.85,44.7-27.12,62.87" fill="none" stroke="#6f8bbf" stroke-linecap="round" stroke-miterlimit="10"/>
              </g>
              <g>
                <path d="m222.74,267.21c10.66-23.84,31.81-41.86,55.14-46.96-9.93,25.55-32.26,45.04-55.14,46.96Z" fill="#a3c7e9"/>
                <path d="m272.15,225.5c-15.93,14.02-32.13,27.65-48.6,40.87" fill="none" stroke="#6f8bbf" stroke-linecap="round" stroke-miterlimit="10"/>
              </g>
              <g>
                <path d="m216.45,287.98c14.24-21.27,40.51-32.37,62.25-26.3-15.99,21-42.32,32.13-62.25,26.3Z" fill="#a3c7e9"/>
                <path d="m273.48,263.21c-18.67,11.68-38.8,20.3-59.56,25.48" fill="none" stroke="#6f8bbf" stroke-linecap="round" stroke-miterlimit="10"/>
              </g>
              <g>
                <path d="m224.14,259.98c4.55-23.95-2.28-50.64-17.48-68.3-6.23,23.54-.29,51.11,17.48,68.3Z" fill="#a3c7e9"/>
                <path d="m208.23,197.78c3,22.28,8.33,43.14,16.58,63.54" fill="none" stroke="#6f8bbf" stroke-linecap="round" stroke-miterlimit="10"/>
              </g>
              <g>
                <path d="m216.32,280.37c-1.94-24.62-14.56-47.74-33.01-60.5,1.07,13.04,4.53,25.61,10.03,37.04,6.33,13.13,15.62,21.45,22.98,23.47Z" fill="#a3c7e9"/>
                <path d="m186.04,224.85c7.26,20.53,17.71,39.56,30.74,56.04" fill="none" stroke="#6f8bbf" stroke-linecap="round" stroke-miterlimit="10"/>
              </g>
            </g>
            <g>
              <g>
                <path d="m358.85,274.47c10.07-26.2,33.24-47.46,58.8-53.94-11.2,25.85-34.05,46.69-58.8,53.94Z" fill="#a3c7e9"/>
                <path d="m411.45,225.98c-14.61,11.11-28.5,23.39-41.44,36.69-15.73,16.15-30.56,34.17-49.74,44.94" fill="none" stroke="#6f8bbf" stroke-linecap="round" stroke-miterlimit="10"/>
              </g>
              <g>
                <path d="m345.61,287.77c19.2-16.89,45.27-24.3,67.97-19.33-19.24,18.71-46.97,26.96-67.97,19.33Z" fill="#a3c7e9"/>
                <path d="m406.37,270.79c-19.83,5.99-39.73,11.51-59.71,16.57" fill="none" stroke="#6f8bbf" stroke-linecap="round" stroke-miterlimit="10"/>
              </g>
              <g>
                <path d="m331.53,303.71c21.31-13.14,49.08-12.3,65.8,1.98-22.74,12.18-50.58,11.34-65.8-1.98Z" fill="#a3c7e9"/>
                <path d="m392.1,304.92c-21.28,2.78-42.62,2.25-63.09-1.6" fill="none" stroke="#6f8bbf" stroke-linecap="round" stroke-miterlimit="10"/>
              </g>
              <g>
                <path d="m349.81,281.9c13.84-19.47,18.74-46.04,12.55-67.97-15.16,18.42-21.21,45.41-12.55,67.97Z" fill="#a3c7e9"/>
                <path d="m361.24,219.99c-6.49,21.07-10.32,41.83-11.38,63.38" fill="none" stroke="#6f8bbf" stroke-linecap="round" stroke-miterlimit="10"/>
              </g>
              <g>
                <path d="m334.54,296.88c8.37-22.72,6.7-48.47-4.38-67.37-4.4,12.05-6.49,24.66-6.31,37.08.2,14.27,5,25.48,10.69,30.29Z" fill="#a3c7e9"/>
                <path d="m330.53,235.06c-2,21.25-.57,42.47,4.2,62.46" fill="none" stroke="#6f8bbf" stroke-linecap="round" stroke-miterlimit="10"/>
              </g>
            </g>
            <g>
              <path d="m73.37,228.65c-10.27-31.41-38.92-56.79-72.26-63.99,14.02,27.17,39.44,48.8,72.26,63.99Z" fill="#a3c7e9"/>
              <path d="m75.11,233.52c-22.49-12.72-50.68-15.53-75.11-7.48,22.66,11.32,49.51,14.47,75.11,7.48Z" fill="#a3c7e9"/>
              <path d="m81.33,240.33c-24.31-3.37-49.77,2.62-69.51,16.36,22.39,8.14,49.25,2.86,69.51-16.36Z" fill="#a3c7e9"/>
              <path d="m88.91,255.21c-24.07-.1-47.74,11.34-61.89,29.92,10.71,2.15,22.09.86,31.92-3.59,9.83-4.45,18.06-12.05,29.97-26.33Z" fill="#a3c7e9"/>
              <path d="m105.88,280.11c-23.74-4.07-49.03,3.29-66.15,19.24,10.22,3.88,21.66,4.5,32.11,1.74,10.45-2.76,19.86-8.88,34.04-20.98Z" fill="#a3c7e9"/>
              <path d="m80.25,230.14c-15.67-21.13-19.93-49.6-11.02-73.82,6.8,11.52,12.67,23.69,15.41,36.63,2.74,12.94,2.21,26.74-4.38,37.19Z" fill="#a3c7e9"/>
              <path d="m89.83,250.52c-3.71-22.45,3.96-46.24,20.17-62.49,1.87,23.22-5.24,46.88-20.17,62.49Z" fill="#a3c7e9"/>
              <g>
                <path d="m8.4,170.29c47.71,30.52,85.02,76.02,104.71,127.72" fill="none" stroke="#6f8bbf" stroke-linecap="round" stroke-miterlimit="10"/>
                <path d="m70.71,167.46c5.8,23.56,9.33,47.62,10.53,71.75" fill="none" stroke="#6f8bbf" stroke-linecap="round" stroke-miterlimit="10"/>
                <path d="m106.44,197.14c-1.9,19.01-7.78,37.59-17.16,54.33" fill="none" stroke="#6f8bbf" stroke-linecap="round" stroke-miterlimit="10"/>
                <path d="m10.04,226.59c21.87,4.16,44.1,6.41,66.34,6.74" fill="none" stroke="#6f8bbf" stroke-linecap="round" stroke-miterlimit="10"/>
                <path d="m23.22,254.83c20.17-1.47,40.01-6.35,58.35-14.38" fill="none" stroke="#6f8bbf" stroke-linecap="round" stroke-miterlimit="10"/>
                <path d="m35.3,281.74c18.61-9.28,37.22-18.58,55.83-27.86" fill="none" stroke="#6f8bbf" stroke-linecap="round" stroke-miterlimit="10"/>
                <path d="m47.41,298.13c24.3-4.69,31.52-10.28,58.48-18.02" fill="none" stroke="#6f8bbf" stroke-linecap="round" stroke-miterlimit="10"/>
              </g>
            </g>
          </g>
          <g>
            <g>
              <path d="m201.23,253.63s2.1,19.27,4.46,20.82c4.21,2.78,52.89,9.19,52.89,9.19l-1.59,12.67s-66.68,5.99-69.51,2.66c-4.92-5.78-13.56-33.67-13.56-33.67l27.32-11.67Z" fill="#e06b58"/>
              <path d="m169.08,204.01l5.39-12.93s14.61,6.87,19.44,15.34c5.16,9.06,11.47,57.26,11.47,57.26,0,0-25.8,5.94-30.54,3.42-4.74-2.53-5.74-63.09-5.74-63.09Z" fill="#f2ae2f"/>
            </g>
            <path d="m128.05,143.98c-3.77-1.38-7.77-2.59-11.81-2.29-4.04.31-8.17,2.45-9.54,6-.98,2.52-.53,5.48-2.07,7.75-1.48,2.17-4.42,3.07-7.16,3.26-2.76.19-5.53-.17-8.27.18-8.45,1.12-14.48,10.3-11.71,17.82,1.1,3,3.37,5.86,2.85,8.98-.55,3.34-4.05,5.54-5.49,8.64-1.91,4.13.37,9.13,4.15,11.95,3.77,2.8,8.68,3.87,13.44,4.58,6.56.98,13.33,1.44,19.81.06s12.68-4.8,16.03-10.14c1.49-2.36,2.39-5.03,4.12-7.25,3.57-4.58,9.9-6.36,14.88-9.6,5.44-3.56,9.44-10.5,6.23-15.92-3.09-5.21-11.14-6.38-14.37-11.51-1.33-2.12-1.65-4.65-2.52-6.96-.88-2.32-3-3.5-8.57-5.54Z" fill="#0c2340"/>
            <g>
              <path d="m150.04,207.94c.95,1.09,2.07,2.29,3.63,2.4,1.64.12,3.02-1.05,4.07-2.17,5.45-5.77,9.05-12.86,10.51-20.16-1.35-.77-2.66-1.51-3.84-2.2-1.09-.65-1.92-1.57-2.39-2.63-.33-.79-.44-1.61-.36-2.48.77-7.22,1.45-11.24,3.98-18.57-12.04-2.72-23.4-5.94-29.93-11.4-.8,3.36-1.74,9.94-3.74,16.46-2.14,6.9-5.48,13.73-11.15,16.67,11.12,6.57,21.04,14.73,29.21,24.08Z" fill="#f8a17c"/>
              <path d="m161.66,180.71c-.09.86.03,1.7.36,2.48-7.12,8.64-23.06-2.65-30.05-15.99,2.01-6.52,2.95-13.1,3.74-16.46,6.52,5.45,17.89,8.69,29.93,11.4-2.53,7.33-3.22,11.34-3.98,18.57Z" fill="#e06b58"/>
            </g>
            <g>
              <path d="m181.5,285.18c-1.57,10.43,9.68,21.65,9.96,27.22-23.9,0-73.97,1.46-99.46-2.01-1.16-6.43,11.43-20.9,11.43-35.19,0-1.89-.08-3.97-.23-6.19-.4-6.38-1.34-13.96-2.39-21.74-2.84-20.87-6.63-43.18-3.83-47.81,5.47-9.02,18.27-15.14,24.62-17.77,2.18-.9,3.6-1.39,3.71-1.45,7.96,13.58,24.16,25.16,30.28,24.64,1.7-.13,6.74-1.89,10.07-18.67,1.3.74,2.59,1.42,3.88,2.08,6.33,3.29,12.26,6.01,13.97,10.25,4.51,11.15,8.94,39.25,7.96,49.25-.99,10.08-5.04,17.78-7.88,27.9-.66,2.37-1.27,4.89-1.76,7.6-.12.6-.22,1.24-.32,1.89Z" fill="#ffc83e"/>
              <path d="m191.46,312.41c-23.9,0-73.97,1.46-99.46-2.01-1.16-6.43,11.43-20.9,11.43-35.19,0-1.89-.08-3.97-.23-6.19-.4-6.38-1.34-13.96-2.39-21.74,4.52,4.77,11.12-15.39,14.04-9.49,15.8,31.88,28.25,40.26,49.89,40.26,6.45,0,12.41-.89,18.84-2.35-.66,2.37-1.27,4.89-1.76,7.6-.12.61-.22,1.25-.32,1.9-1.57,10.41,9.68,21.63,9.96,27.21Z" fill="#fdba34"/>
              <path d="m169.53,188.3c-1.03,7.46-4.07,17.51-12.92,20.16-11.96,3.58-29.28-18.77-35.01-26.77,2.18-.9,3.6-1.39,3.71-1.45,7.96,13.58,24.16,25.16,30.28,24.64,1.7-.13,6.74-1.89,10.07-18.67,1.3.73,2.59,1.41,3.88,2.08Z" fill="#fce273"/>
            </g>
            <g>
              <g>
                <polygon points="174.45 301.18 174.36 309.51 323.19 310.39 323.5 300.95 174.45 301.18" fill="#336074"/>
                <g>
                  <polygon points="387.7 226.91 384.39 223.55 275.98 222.84 221.59 301.49 224.43 303.77 387.7 226.91" fill="#336074"/>
                  <polygon points="278.07 225.74 224.43 303.77 326.89 304.28 387.7 226.91 278.07 225.74" fill="#102e50"/>
                </g>
              </g>
              <ellipse cx="303.96" cy="269.59" rx="11.93" ry="5.96" fill="#3e748d"/>
            </g>
            <g>
              <path d="m176.65,148.72c1.69-9.07,7.91-15.51,13.89-14.4,5.98,1.11,9.46,9.37,7.77,18.43-1.69,9.07-7.91,15.51-13.89,14.4-5.98-1.11-9.46-9.37-7.77-18.43Z" fill="#61c2ee"/>
              <path d="m198.32,124.3c-1.11,7.89-4.64,16.59-9.78,26.2-1.81-7.87-2.96-17.47-4.55-27.06-1.62-9.61-3.69-19.22-7.27-27.08-.81-1.74-1.68-3.4-2.63-4.94,2.12-.2,4.27,0,6.32.57,3.2.85,6.19,2.51,8.64,4.71,4.07,3.62,6.8,8.56,8.42,13.76,1.33,4.32,1.57,8.91.85,13.83Z" fill="#102e50"/>
              <g>
                <path d="m192.29,132.46c-.06,1.56-.16,3.14-.31,4.71-2.19,25.54-12.92,43.07-29.33,43.07-23.17,0-38.19-25.98-38.19-51.44s15.38-43.29,33.39-41.18c10.38,1.19,17.97,4.64,23.35,9.69,3.56,3.36,6.14,7.42,7.89,12.04,2.01,5.18,2.98,11.03,3.18,17.34,0,.02.02.04.02.06.08,1.86.06,3.76,0,5.71Z" fill="#f8a17c"/>
                <path d="m192.29,132.46c-.69-2.47-1.72-4.88-3.12-7.04-13.66,7.14-29.95,9.9-45.39,7.29-2.94,2.45-5.81,4.86-8.7,7.27.06-11.62.22-19.48,4.75-25.11,4.25-5.28,11.35-7.27,18.07-8.13,7.57-.99,15.26-.95,22.81.14,2.89.4,5.89,1.03,8.4,2.49,2.01,5.18,2.98,11.03,3.18,17.34,0,.02.02.04.02.06.07,1.84.05,3.74-.02,5.69Z" fill="#e06b58"/>
              </g>
              <path d="m195.63,116.73c-3.18,2.69-7.16,4.92-11.64,6.72-12.73,5.14-29.28,6.84-42.17,6.21-6.34,13.92-8.9,18.92-10.52,31.06-6.19-5.81-11.23-16.45-12.73-24.81-1.48-8.33-1.33-17.08.99-25.27,3.66-12.92,12.89-19.83,19.28-23.19,1.59-.87,3.03-1.48,4.15-1.92,8.17-3.16,17.38-2.87,25.76-.31,4.57,1.42,8.42,3.82,11.66,6.78,6.54,5.91,10.58,13.9,13.19,19.9.83,1.83,1.49,3.5,2.04,4.83Z" fill="#102e50"/>
              <path d="m198.32,124.3c-.53-2.79-1.32-5.5-2.43-8.11-.62-1.48-1.39-2.91-2.29-4.29-2.91-4.57-7.14-8.33-12.26-10-1.46-2.05-3-3.89-4.61-5.52-5.81-5.91-12.63-9.29-19.85-10.47-6.01-.97-12.26-.42-18.03,1.54,1.59-.87,3.03-1.48,4.15-1.92,8.17-3.16,17.38-2.87,25.76-.31,4.57,1.42,8.42,3.82,11.66,6.78,3.2.85,6.19,2.51,8.64,4.71,4.07,3.62,6.8,8.56,8.42,13.76,1.33,4.32,1.57,8.91.84,13.83Z" fill="#225570"/>
              <g>
                <g>
                  <path d="m149.2,139.96c4.28-2.45,8.73-3.55,14.96-1.28" fill="none" stroke="#102e50" stroke-linecap="round" stroke-miterlimit="10" stroke-width="2"/>
                  <path d="m178.53,139.78c3.67-2.74,9.1-3.02,11.94,0" fill="none" stroke="#102e50" stroke-linecap="round" stroke-miterlimit="10" stroke-width="2"/>
                  <path d="m174.1,153.75c.37,1.94.17,6.23-.75,8.16" fill="none" stroke="#cc474f" stroke-linecap="round" stroke-miterlimit="10" stroke-width="2"/>
                  <ellipse cx="159.63" cy="152.27" rx="1.77" ry="2.78" fill="#272d40"/>
                  <ellipse cx="182.72" cy="150.97" rx="1.77" ry="2.78" fill="#272d40"/>
                </g>
                <g>
                  <path d="m171.91,165.7s-.35.67-1.01,1.58c-1.04,1.39-2.8,3.31-5.21,4.06h0c-1.02.33-2.12.44-3.35.22-3.61-.64-4.56-3.98-4.73-6.54-.04-.5-.04-.96-.03-1.38.02-1.04.13-1.73.13-1.73,5.75,3.17,14.21,3.78,14.21,3.78Z" fill="#cc474f"/>
                  <path d="m171.91,165.7s-.35.67-1.01,1.58c-2.94-.04-8.95-1.55-13.34-3.64.02-1.04.13-1.73.13-1.73,5.75,3.17,14.21,3.78,14.21,3.78Z" fill="#fff"/>
                  <path d="m165.68,171.34c-1.02.33-2.12.44-3.35.22-3.61-.64-4.56-3.98-4.73-6.54,1.75.21,3.44.88,4.84,1.95,1.47,1.12,2.59,2.65,3.25,4.37Z" fill="#e8729b"/>
                </g>
              </g>
              <g>
                <path d="m131.35,135.55s-.2-11.97,4.78-23.87c6.25-14.93,18.99-21.32,31.35-21.75,14.89-.53,24.22,9.47,24.22,9.47,0,0-4.85-8.56-14.41-11.01-6.28-1.61-15.76-1.87-23.36,1.22-7.84,3.18-17.6,12-21.13,21.33-3.52,9.32-5.24,23.84-5.24,23.84l3.8.78Z" fill="#4d82c3"/>
                <g>
                  <ellipse cx="129.28" cy="149.22" rx="11.61" ry="17.59" transform="translate(-14.74 14.17) rotate(-5.94)" fill="#61c2ee"/>
                  <path d="m124.23,137.39c4.12-.62,8.34,4.75,9.42,11.99,1.09,7.24-1.37,13.62-5.48,14.23-4.12.62-8.34-4.75-9.42-11.99-1.09-7.24,1.37-13.62,5.48-14.23Z" fill="#4d82c3"/>
                </g>
                <g>
                  <ellipse cx="167.58" cy="176.74" rx="6.18" ry="3.85" fill="#3b93ca"/>
                  <path d="m136.52,163.87s9.08,11.68,24.88,12.88" fill="none" stroke="#3b93ca" stroke-linecap="round" stroke-miterlimit="10" stroke-width="2"/>
                </g>
              </g>
            </g>
            <g>
              <g>
                <g>
                  <g>
                    <path d="m174.36,278.95l-.6,15.35s-55.53,16.64-64.7,11.38c-4.47-2.57-8.65-16.73-11.77-30.54-3.26-14.52-5.36-28.65-5.36-28.65l32.55-6.38s.02,19.85,1.12,31.32c.39,4.27.96,7.38,1.72,7.89,2.87,1.89,47.03-.37,47.03-.37Z" fill="#f8a17c"/>
                    <path d="m125.61,271.41c-5.92,1.92-17.33,4.89-28.32,3.72-3.26-14.52-5.36-28.65-5.36-28.65l32.55-6.38s.02,19.84,1.12,31.31Z" fill="#e06b58"/>
                  </g>
                  <g>
                    <path d="m172.77,279.11c8.26-1.77,22.24-6.01,28.04-7.47,4.12-1.04,14.85,4.51,17.68,9.75,1.24,2.29,2.41,15.23-1.88,13.89-2.15-.67-1.8-6.22-2.47-8.49-.55-1.84-2.29-3.63-4.95-5.17,1.78,4.43,1.71,8.29,1.52,13.07-.04,1.06-.11,2.16-.61,3.07-.52.91-1.63,1.57-2.59,1.16-.98-.4-1.32-1.62-1.54-2.69-.76-3.69-1.53-7.37-1.83-11.54.08,4.1,0,8.21-.27,12.3-.19,3.13-1.75,4.85-3.66,4.3-.85-.24-1.2-1.03-1.57-2.06-.58,2.01-2.02,4.23-3.88,3.38-1.13-.51-1.83-4.6-1.63-8.81-3.57,2.22-7.61,3.16-12.25,3.37-4.17.19-8.43-.59-10.94-3.42.25-4.43,1.71-10.98,2.84-14.65Z" fill="#f8a17c"/>
                    <path d="m198.72,298.6c.28-3.32,0-6.69-.85-9.9" fill="none" stroke="#cc474f" stroke-linecap="round" stroke-miterlimit="10"/>
                  </g>
                </g>
                <path d="m120.83,207.9c-2.36-6.65-11.01-20.27-11.01-20.27,0,0-13.2,5.49-17.89,14.82-7.93,15.79-3.9,61.11-3.9,61.11,10.69,4.47,32.14,4.54,41.27,3.26,0,0-3.74-45.61-8.47-58.91Z" fill="#ffc83e"/>
              </g>
              <path d="m122.51,210.69c3.6,17.24,5.53,33.31,6.15,49.06" fill="none" stroke="#f2ae2f" stroke-linecap="round" stroke-miterlimit="10"/>
            </g>
          </g>
          <rect x="26.5" y="307.65" width="378.6" height="9.5" fill="#102e50"/>
        </g>
      </g>
    </g>
  </g>
</svg>