<svg width="40" height="40" viewBox="0 0 40 40" fill="none" xmlns="http://www.w3.org/2000/svg">
<path d="M30.7837 13.7722C32.0664 13.4623 34.0683 13.1202 35.6426 14.4361C37.2489 15.7788 36.7738 18.6114 35.5345 19.6738C33.975 21.0106 29.3769 22.0569 29.1049 23.2874C28.833 24.5178 29.792 25.0113 28.6578 25.826C27.6423 26.5547 26.634 25.0083 27.0758 23.8105C27.6435 22.2736 28.216 21.5741 30.5421 20.5883C33.0184 19.5396 35.3937 17.6405 33.9632 16.049C32.5326 14.4575 29.7766 16.4992 29.7766 16.4992L30.7837 13.7722Z" fill="#B0DCF9"/>
<path d="M18.309 27.4546H22.0585C22.1214 27.4546 22.1844 27.4457 22.2443 27.4267C27.2183 25.8554 30.3924 16.8035 31.0456 14.0504C31.1329 13.6834 30.8544 13.3337 30.4773 13.3337H18.309H6.14055C5.76287 13.3337 5.48436 13.6834 5.57165 14.0504C6.22547 16.8035 9.39898 25.8554 14.373 27.4267C14.433 27.4457 14.4959 27.4546 14.5589 27.4546H18.309Z" fill="#4AA9FF"/>
<path d="M18.3089 27.4546H22.1534C27.1755 25.9664 30.3829 16.8349 31.0444 14.0569C31.1323 13.687 30.8514 13.3337 30.4702 13.3337H18.3089V27.4546Z" fill="#369FFF"/>
<path d="M22.1249 28.3896H14.5588V27.4543H22.1249V28.3896Z" fill="#B0DCF9"/>
</svg>
