<svg width="41" height="40" viewBox="0 0 41 40" fill="none" xmlns="http://www.w3.org/2000/svg">
<path d="M30.3065 22.3501C30.2228 22.3501 30.151 22.3435 30.0912 22.328L30.4797 20.762C30.402 20.7435 30.3423 20.7411 30.3124 20.7411C30.3064 20.7411 30.3064 20.7411 30.3004 20.7411C30.6112 20.7238 33.2232 20.1811 34.3409 18.642C34.825 17.978 34.9505 17.2255 34.7174 16.3421C34.4664 15.3595 33.779 14.7374 32.6195 14.4397C32.0696 14.2998 31.5377 14.2693 31.1851 14.2693C30.9161 14.2693 30.7428 14.2866 30.7368 14.2872L30.5634 12.6831C30.7607 12.6609 30.9878 12.6478 31.2329 12.6478C32.9721 12.6478 35.596 13.3113 36.2833 15.9357C36.6957 17.5363 36.3132 18.9941 35.1716 20.1512C34.2631 21.0651 33.0618 21.6144 32.2071 21.9138C32.1533 21.9335 30.9579 22.3501 30.3065 22.3501Z" fill="#DCF2FF"/>
<path d="M22.5964 28.7969H17.1395C9.94932 28.7969 7.55554 24.484 7.55554 19.2123V12.9312C7.55554 11.9307 8.37738 11.1113 9.37552 11.1113H30.3604C31.3585 11.1113 32.1774 11.9307 32.1774 12.9312V19.2123C32.1774 24.484 29.697 28.7969 22.5964 28.7969Z" fill="#C5EAFF"/>
<path d="M19.8649 28.4371C19.8649 28.6355 20.0263 28.7969 20.2295 28.7969H23.2538C29.2128 28.7969 32.1773 24.368 32.1773 20.0354V12.8206C32.1773 11.8805 31.4123 11.1113 30.468 11.1113H20.2295C20.0263 11.1113 19.8649 11.2727 19.8649 11.4711V28.4371Z" fill="#B0DCF9"/>
<path d="M28.7107 30.9409H11.0251C10.4333 30.9409 9.94922 30.4586 9.94922 29.8687C9.94922 29.2793 10.4333 28.797 11.0251 28.797H28.7107C29.3024 28.797 29.7865 29.2793 29.7865 29.8687C29.7865 30.4586 29.3024 30.9409 28.7107 30.9409Z" fill="#4AA9FF"/>
<path d="M19.8649 30.9409H28.7107C29.3024 30.9409 29.7866 30.4586 29.7866 29.8687C29.7866 29.2793 29.3024 28.797 28.7107 28.797H19.8649V30.9409Z" fill="#369FFF"/>
<path d="M30.7668 15.8811V20.6626C30.7668 24.5709 27.5691 27.7686 23.6602 27.7686H16.0755C12.1667 27.7686 8.96906 24.5709 8.96906 20.6626V15.8811H30.7668Z" fill="#4AA9FF"/>
<path d="M19.8649 27.7686H23.6603C27.5691 27.7686 30.7668 24.5709 30.7668 20.6626V15.8811H19.8649V27.7686Z" fill="#369FFF"/>
</svg>
