<svg width="41" height="40" viewBox="0 0 41 40" fill="none" xmlns="http://www.w3.org/2000/svg">
<path d="M29.1543 13.2205C30.695 12.4085 33.2991 11.7717 35.734 12.9408C38.2173 14.1335 38.3683 17.4541 37.1297 19.2117C35.5769 21.4237 30.0486 24.2501 30.0969 25.908C30.1513 27.5665 31.5348 27.8861 30.3506 29.2933C29.2873 30.5524 27.4989 28.9054 27.6801 27.2336C27.9037 25.0881 28.4051 24.0096 31.0575 21.9982C33.8791 19.8564 36.2959 16.6626 33.9517 15.0953C31.6074 13.5281 28.7556 17.0269 28.7556 17.0269L29.1543 13.2205Z" fill="#4AA9FF"/>
<path d="M26.4052 30.7363H10.3518C9.96508 30.7363 9.63883 30.4536 9.57841 30.0705L6.78702 12.0178C6.71452 11.5417 7.07708 11.1115 7.56044 11.1115H29.1966C29.6799 11.1115 30.0485 11.5417 29.976 12.0178L27.1846 30.0705C27.1242 30.4536 26.7919 30.7363 26.4052 30.7363Z" fill="#4AA9FF"/>
<path d="M18.3998 30.7363H26.4295C26.8162 30.7363 27.1424 30.4536 27.2029 30.0705L29.9943 12.0178C30.0668 11.5417 29.6982 11.1115 29.2209 11.1115H18.3817L18.3998 30.7363Z" fill="#369FFF"/>
<path d="M7.4577 16.3687H29.3778L28.7736 19.9038H7.92896L7.4577 16.3687Z" fill="#C5EAFF"/>
<path d="M18.4179 16.3687H29.3418L28.7376 19.9038H18.4179V16.3687Z" fill="#B0DCF9"/>
</svg>
