<svg width="40" height="40" viewBox="0 0 40 40" fill="none" xmlns="http://www.w3.org/2000/svg">
<path d="M26.8704 25.5308L27.1951 22.2238C27.1951 22.2238 28.1322 21.4162 29.4928 20.4805C30.1423 20.0334 30.8147 19.5706 31.4013 19.0391C32.5816 17.969 33.3184 15.9238 32.1481 13.9624C31.0286 12.0875 28.5986 12.4738 28.2695 12.5961L28.2002 10.2784C29.4999 10.0424 32.3427 9.85205 34.1002 12.7964C35.8464 15.7207 34.832 18.9976 32.9285 20.7237C32.2296 21.3575 31.4936 21.864 30.7811 22.354C29.575 23.1838 27.3647 24.4477 26.8704 25.5308Z" fill="#4AA9FF"/>
<path d="M17.8299 31.3315C28.1143 31.3315 28.4391 20.814 28.4391 19.5349C28.4391 18.2559 28.4391 11.2921 28.4391 9.44443H17.8299H7.22223C7.22223 11.2921 7.22223 18.2559 7.22223 19.5349C7.22223 20.814 7.54699 31.3315 17.8299 31.3315Z" fill="#4AA9FF"/>
<path d="M17.8298 31.3315C28.1142 31.3315 28.439 20.814 28.439 19.5349C28.439 18.2559 28.439 11.2921 28.439 9.44443H17.8298V31.3315Z" fill="#369FFF"/>
<path d="M23.1442 32.8628L22.5118 32.0459C22.4646 31.9851 22.3652 31.9472 22.2557 31.9472H22.1892V30.4307H13.4721V31.9472H13.4049C13.2954 31.9472 13.196 31.9851 13.1495 32.0459L12.5164 32.8628C12.4277 32.978 12.5651 33.1104 12.7725 33.1104H22.8881C23.0962 33.1104 23.2329 32.978 23.1442 32.8628Z" fill="#C5EAFF"/>
<path d="M17.8298 33.1104H22.888C23.0961 33.1104 23.2328 32.978 23.1441 32.8628L22.5117 32.0459C22.4645 31.9851 22.3651 31.9472 22.2556 31.9472H22.1884V30.4307H17.8298V33.1104Z" fill="#B0DCF9"/>
</svg>
