<svg width="40" height="40" viewBox="0 0 40 40" fill="none" xmlns="http://www.w3.org/2000/svg">
<path d="M27.8453 32.7036H12.1546C11.1907 32.7036 10.4094 31.9223 10.4094 30.9584L10 8.55375C10 8.13416 10.3402 7.79394 10.7604 7.79394H29.2396C29.6592 7.79394 30 8.13416 30 8.55375L29.5906 30.9584C29.5906 31.9223 28.8092 32.7036 27.8453 32.7036Z" fill="#C5EAFF"/>
<path d="M20.0005 32.6875H27.8456C28.8095 32.6875 29.5908 31.9062 29.5908 30.9422L30.0002 8.53819C30.0002 8.11804 29.6594 7.77783 29.2398 7.77783H20.0005V32.6875Z" fill="#B0DCF9"/>
<path d="M28.7095 18.7491L28.3534 28.0995C28.3534 28.5016 27.673 28.8281 26.8333 28.8281H13.1668C12.327 28.8281 11.6466 28.5016 11.6466 28.0995L11.2905 18.7491H28.7095Z" fill="#4AA9FF"/>
<path d="M19.9531 28.8281H26.7861C27.6258 28.8281 28.3062 28.5016 28.3062 28.0995L28.6629 18.7491H19.9531V28.8281Z" fill="#369FFF"/>
</svg>
