<svg width="41" height="40" viewBox="0 0 41 40" fill="none" xmlns="http://www.w3.org/2000/svg">
<path d="M26.8044 35.7627H13.8622C13.2995 35.7627 12.8455 35.3061 12.8455 34.7422L10.8889 5.0001H29.7777L27.8211 34.7422C27.8211 35.3061 27.3671 35.7627 26.8044 35.7627Z" fill="#C5EAFF"/>
<path d="M26.7786 35.7627H20.3331V5.0001H29.7775L27.8209 34.7198C27.8209 35.2959 27.3541 35.7627 26.7786 35.7627Z" fill="#B0DCF9"/>
<path d="M25.193 34.3608H15.4672C14.361 34.3608 14.0541 32.7296 14.0541 30.2109L12.8839 12.5829H27.7827L26.6125 32.1631C26.6125 32.7296 26.3184 34.3608 25.193 34.3608Z" fill="#4AA9FF"/>
<path d="M20.3331 34.3608H25.1928C26.4141 34.3608 26.6123 32.7296 26.6123 32.1631L27.7825 12.5829H20.3331V34.3608Z" fill="#369FFF"/>
<path d="M23.9013 30.7077C23.9013 31.5895 23.1851 32.3037 22.309 32.3037C21.4266 32.3037 20.7104 31.5895 20.7104 30.7077C20.7104 29.8265 21.4266 29.1117 22.309 29.1117C23.1851 29.1117 23.9013 29.8265 23.9013 30.7077Z" fill="#B0DCF9"/>
<path d="M21.0496 27.7533C21.0496 28.3172 20.5892 28.7744 20.0265 28.7744C19.4638 28.7744 19.0034 28.3172 19.0034 27.7533C19.0034 27.1886 19.4638 26.7314 20.0265 26.7314C20.5892 26.7314 21.0496 27.1886 21.0496 27.7533Z" fill="#B0DCF9"/>
<path d="M22.4688 23.7105C22.4688 24.1179 22.1363 24.4478 21.7334 24.4478C21.3242 24.4478 20.9917 24.1179 20.9917 23.7105C20.9917 23.3032 21.3242 22.9732 21.7334 22.9732C22.1363 22.9732 22.4688 23.3032 22.4688 23.7105Z" fill="#B0DCF9"/>
<path d="M12.8839 12.583L12.4427 5.63745H28.192L27.7827 12.583H12.8839Z" fill="#C5EAFF"/>
<path d="M20.3331 12.583H27.8017L28.2046 5.63745H20.3331V12.583Z" fill="#B0DCF9"/>
</svg>
