<svg width="41" height="40" viewBox="0 0 41 40" fill="none" xmlns="http://www.w3.org/2000/svg">
<path d="M27.2929 35.9468H14.0404C13.4635 35.9468 12.9936 35.4786 12.9936 34.9017L12.3334 4.44438H28.9999L28.3397 34.9017C28.3397 35.4786 27.8698 35.9468 27.2929 35.9468Z" fill="#C5EAFF"/>
<path d="M27.2691 35.9468H20.6667V4.44438H29L28.3398 34.8791C28.3398 35.4685 27.858 35.9468 27.2691 35.9468Z" fill="#B0DCF9"/>
<path d="M25.6451 34.5107H15.6879C14.5518 34.5107 14.2366 32.8411 14.2366 30.2614L14.3734 12.2095H26.9596L27.0964 32.2606C27.0964 32.8411 26.7931 34.5107 25.6451 34.5107Z" fill="#4AA9FF"/>
<path d="M20.6667 34.5107H25.6453C26.8944 34.5107 27.0966 32.8411 27.0966 32.2606L26.9598 12.2095H20.6667V34.5107Z" fill="#369FFF"/>
<path d="M24.3247 30.7709C24.3247 31.6732 23.5931 32.4048 22.689 32.4048C21.7849 32.4048 21.0533 31.6732 21.0533 30.7709C21.0533 29.8679 21.7849 29.1363 22.689 29.1363C23.5931 29.1363 24.3247 29.8679 24.3247 30.7709Z" fill="#B0DCF9"/>
<path d="M21.3984 27.7444C21.3984 28.3219 20.9285 28.79 20.3515 28.79C19.7746 28.79 19.3046 28.3219 19.3046 27.7444C19.3046 27.1662 19.7746 26.6981 20.3515 26.6981C20.9285 26.6981 21.3984 27.1662 21.3984 27.7444Z" fill="#B0DCF9"/>
<path d="M22.8555 23.6045C22.8555 24.0214 22.5165 24.3599 22.1001 24.3599C21.6837 24.3599 21.3447 24.0214 21.3447 23.6045C21.3447 23.1875 21.6837 22.8496 22.1001 22.8496C22.5165 22.8496 22.8555 23.1875 22.8555 23.6045Z" fill="#B0DCF9"/>
<path d="M14.3439 11.7529L13.9216 5.0969H27.3762L26.9598 11.7725L14.3439 11.7529Z" fill="#4AA9FF"/>
<path d="M20.6667 11.7725H26.9598L27.394 5.0969H20.6667V11.7725Z" fill="#369FFF"/>
</svg>
