<svg width="40" height="40" viewBox="0 0 40 40" fill="none" xmlns="http://www.w3.org/2000/svg">
<path d="M27.5788 6.49344H12.4211C11.4768 6.49344 10.5555 7.83597 10.5555 8.16731V9.28325V31.9701V33.1327V33.1694C10.5555 33.6197 11.7797 34.9688 12.4211 34.9688H27.5788C28.1031 34.9688 29.4444 33.5256 29.4444 33.1694V33.1327V31.9701V9.28325V8.16731C29.4444 7.74899 28.6764 6.49344 27.5788 6.49344Z" fill="#C5EAFF"/>
<path d="M20 34.9688H27.5789C28.1031 34.9688 29.4444 33.5256 29.4444 33.1694V33.1327V31.9701V9.28325V8.16731C29.4444 7.74899 28.6764 6.49344 27.5789 6.49344H20V34.9688Z" fill="#B0DCF9"/>
<path d="M29.4444 32.9648H10.5555V8.43312H29.4444V32.9648Z" fill="#4AA9FF"/>
<path d="M29.4444 32.9648H20V8.43312H29.4444V32.9648Z" fill="#369FFF"/>
<path d="M28.0729 6.65039H12.0714C11.7868 6.65039 11.5537 6.41727 11.5537 6.13267V6.0735C11.5537 5.7889 11.7868 5.55578 12.0714 5.55578H28.0729C28.3581 5.55578 28.5906 5.7889 28.5906 6.0735V6.13267C28.5906 6.41727 28.3581 6.65039 28.0729 6.65039Z" fill="#C5EAFF"/>
<path d="M20 6.65039H27.9404C28.2984 6.65039 28.5907 6.40366 28.5907 6.10308C28.5907 5.80192 28.2984 5.55578 27.9404 5.55578H20V6.65039Z" fill="#B0DCF9"/>
</svg>
