<?xml version="1.0" encoding="UTF-8"?>
<svg id="Layer_1" data-name="Layer 1" xmlns="http://www.w3.org/2000/svg" viewBox="0 0 17.4 23.93">
  <path d="m3.92,19.08c-1.08-7.24-1.91-9.67-1.91-9.67h13.38l-1.91,9.67-.9.58-2.39.33h-4.3l-1.97-.91Z" style="fill: #dcf2ff;"/>
  <path d="m16.86,0H.54C.2,0-.06.31.01.65c.03.14,2.96,14.34,3.23,21.7.03.88.75,1.57,1.63,1.57h7.66c.88,0,1.6-.69,1.63-1.57.27-7.36,3.2-21.56,3.23-21.7.07-.34-.19-.65-.53-.65h0Zm-4.33,22.84h-7.66c-.29,0-.53-.23-.54-.52-.03-.71-.08-1.5-.15-2.32.55.41,1.24.67,1.98.67h5.08c.74,0,1.42-.25,1.98-.67-.07.82-.13,1.6-.15,2.32-.01.29-.25.52-.54.52h0Zm.94-5.27c-.12,1.15-1.07,2.01-2.22,2.01h-5.08c-1.15,0-2.11-.86-2.22-2.01-.4-3.98-1.84-12.04-2.72-16.48h14.98c-2.07,10.31-2.76,16.83-2.72,16.48Z" style="fill: #369fff;"/>
</svg>