<svg width="40" height="40" viewBox="0 0 40 40" fill="none" xmlns="http://www.w3.org/2000/svg">
<path d="M27.4233 27.2646L27.2937 23.5908C27.2937 23.5908 28.2035 22.5685 29.5571 21.3427C30.2044 20.7569 30.8738 20.1511 31.4381 19.4822C32.5752 18.1354 33.0838 15.7851 31.512 13.8064C30.01 11.9152 27.4017 12.6948 27.0596 12.8778L26.6431 10.3462C28.0336 9.89672 31.1227 9.27107 33.4816 12.242C35.8251 15.1913 35.1943 18.9333 33.36 21.1052C32.6866 21.9025 31.9535 22.5662 31.2454 23.2078C30.0447 24.2949 27.8057 26.0048 27.4233 27.2646Z" fill="#4AA9FF"/>
<path d="M27.5632 33.1226H9.31845C9.07296 33.1226 8.87802 32.9174 8.88939 32.6725L10.0197 8.7428C10.0305 8.51379 10.2192 8.33364 10.4487 8.33364H26.4329C26.6619 8.33364 26.8511 8.51379 26.8619 8.7428L27.9922 32.6725C28.0042 32.9174 27.8087 33.1226 27.5632 33.1226Z" fill="#4AA9FF"/>
<path d="M27.5553 33.1226H18.4409V8.33364H26.4165C26.6552 8.33364 26.8518 8.52118 26.8626 8.75928L27.9923 32.6645C28.0037 32.914 27.8048 33.1226 27.5553 33.1226Z" fill="#369FFF"/>
<path d="M27.6906 26.2891H9.19073L9.45384 20.728H27.4287L27.6906 26.2891Z" fill="#C5EAFF"/>
<path d="M27.6923 26.2891H18.4409L18.4426 20.728H27.4298L27.6923 26.2891Z" fill="#B0DCF9"/>
<path d="M27.2525 17.0059H9.63226L9.89195 11.4442H26.9899L27.2525 17.0059Z" fill="#C5EAFF"/>
<path d="M27.2525 17.0059H18.4409V11.4442H26.9899L27.2525 17.0059Z" fill="#B0DCF9"/>
</svg>
