<svg width="41" height="40" viewBox="0 0 41 40" fill="none" xmlns="http://www.w3.org/2000/svg">
<path d="M19.1188 32.6577C13.3702 32.6577 9.02944 26.8651 9.02944 21.1166L8.66663 8.66418C8.66663 8.17697 9.0652 7.7779 9.5524 7.7779H28.6846C29.1723 7.7779 29.5709 8.17697 29.5709 8.66418L29.2081 21.1166C29.2081 26.8651 24.8673 32.6577 19.1188 32.6577Z" fill="#4AA9FF"/>
<path d="M19.1184 32.6577C24.8669 32.6577 29.2077 26.8651 29.2077 21.1166L29.5706 8.66418C29.5706 8.17697 29.172 7.7779 28.6843 7.7779H19.1184V32.6577Z" fill="#369FFF"/>
<path d="M22.7354 32.6577H15.5018C15.1453 32.6577 14.853 32.3659 14.853 32.0089C14.853 31.6525 15.1453 31.3601 15.5018 31.3601H22.7354C23.0924 31.3601 23.3847 31.6525 23.3847 32.0089C23.3847 32.3659 23.0924 32.6577 22.7354 32.6577Z" fill="#4AA9FF"/>
<path d="M19.1184 32.6577H22.735C23.0919 32.6577 23.3843 32.3659 23.3843 32.0089C23.3843 31.6525 23.0919 31.3601 22.735 31.3601H19.1184V32.6577Z" fill="#369FFF"/>
<path d="M28.5672 20.2183C28.4756 20.2183 28.3939 20.2104 28.3258 20.1938L28.7543 18.4673C28.6451 18.4403 28.5652 18.4442 28.5613 18.4442C28.9046 18.4247 31.7789 17.8268 33.0157 16.1297C33.5494 15.3971 33.6856 14.5677 33.4319 13.5937C33.1504 12.5101 32.3919 11.8241 31.1134 11.4965C30.0538 11.2243 29.052 11.3266 29.0422 11.3276L28.8468 9.55948C30.6531 9.35823 34.2952 9.84738 35.1535 13.1457C35.6128 14.9104 35.1888 16.5175 33.927 17.7935C32.931 18.8012 31.6011 19.4064 30.661 19.7369C30.5983 19.759 29.2831 20.2183 28.5672 20.2183Z" fill="#4AA9FF"/>
</svg>
