<?xml version="1.0" encoding="UTF-8"?>
<svg id="Layer_1" data-name="Layer 1" xmlns="http://www.w3.org/2000/svg" viewBox="0 0 1567.34 1250.24">
  <path d="m945.23,1110.29v-40.68h21.64c-7.49,13.01-14.79,26.62-21.64,40.68Z" style="fill: #f6af4e;"/>
  <path d="m972.49,1011.07h-50.5v-59.36h126.93c-18.67,22.65-48.44,61.18-76.43,108.3v-48.95Z" style="fill: #f6af4e;"/>
  <path d="m973.77,1242.38l-29.82.88v-32.98c10.14,11.17,20.32,22.2,29.82,32.1Z" style="fill: #f6af4e;"/>
  <path d="m1231.11,1164.03l3.89,16.26s-3.91,1.81-3.89,3.04c.52,35.75,13.28,60.88,13.28,60.88h-165.96c4.11-14.66-4.34-37.91-14.39-39.05-37.85-4.15-45.52-9.09-54.2-27.9-1.19-2.56-7.95-10.64-10.27-10.96-16.03-2.15-40.45-23.83-54.33-44.38v-7.31l61.14,42.6s131.59-181.91,133.42-186.79l7.08-18.72h46.66c.05,21.69,2.51,96.34,30.82,212.31h6.76Z" style="fill: #f6af4e;"/>
  <path d="m997.7,1165.99c-17.35-3.79-43.01-27.9-55.61-48.99l3.93-4.52,50.27,35.8c-.5,6.71.05,12.51,1.42,17.72Z" style="fill: #f5ae9f;"/>
  <path d="m901.67,1157.47c2.15-2,29.24-27.86,42.17-39.9,12.93,22.01,40.39,47.51,57.82,49.83,2.34.31,9.09,8.43,10.27,10.97,8.71,18.8,16.35,23.77,54.21,27.92,10.91,1.2,20.55,24.77,13.61,39.46l-103.86-4.44c-19.51-18.84-69.49-70.08-73.84-74.4-1.56-1.55-3.23-3.42-2.98-5.53.19-1.59,1.43-2.81,2.6-3.9Z" style="fill: #789ed3;"/>
  <path d="m1314.62,1143.53l-90.27,20.5c-34.02-139.17-30.73-218.89-30.73-218.89,0,0-12.01-17.44-27.9-43.15l-25.93,68.44c-1.83,4.89-133.42,186.79-133.42,186.79l-62.74-43.7c49.72-103.46,124.24-183.78,124.24-183.78,0,0-1.05-106.61,4.89-170.86,8.72.5,19.82,1.14,24.93,1.32,2.19.09,34.29.5,36.62.5,7.4,0,15.11-.18,22.97-.46,2.28-.04,22.1-1.05,29.82-1.69,2.28-.18,12.01-1.1,14.61-1.37,5.07-.55,10.14-1.19,15.16-1.92.82-.14,2.69-7.08,2.69-7.08l4.06-20.78,3.38-6.16,13.93-2.01,2.6,8.17,3.15,9.82.96,3.01,30.23,176.52,36.76,226.74Z" style="fill: #4c3685;"/>
  <g>
    <path d="m1523.28,1163.48c-37.03,70.09-123.78,97.03-193.96,60.32,29.36-7.81,58.67-15.98,87.71-25.02,1.78-.55,3.83-1.32,4.52-3.06.27-.69.27-1.42.32-2.15.09-3.97-4.11-30.46-11.55-35.75-8.72-6.21-23.01-2.47-33.51.78-33.06,10.14-38.81,5.43-58.22-3.47-2.56-1.19-5.66-.68-8.4.05-1.92.5-4.06,1.1-5.57,2.42-9.09-3.29-15.71-6.16-15.71-6.16l25.71-7.9-23.61-145.61c43.19-46.25,113.55-59.81,172.23-28.86,70.27,37.12,97.16,124.15,60.04,194.42Z" style="fill: #f6af4e;"/>
    <path d="m1433.41,1145.12c-4.9,9.27-13.42,14.93-25.55,16.99-11.15,1.81-22.77.29-34.86-4.56l-7.91,14.99-16.19-8.55,7.91-14.99c-11.32-7.52-19.44-16.5-24.32-26.94-4.9-10.44-4.99-20.11-.29-29.02l1.15-2.17,17.43,9.21c-3.81,7.22-3.89,14.81-.22,22.74,3.66,7.94,10.39,14.5,20.19,19.68,9.63,5.09,18.65,6.93,27.04,5.51,8.4-1.41,14.34-5.43,17.84-12.06,4.2-7.95,3.48-16.25-2.14-24.91-3.26-5.11-9.23-11.27-17.95-18.49-11.33-9.52-19.16-17.82-23.5-24.88-6.85-11.16-7.57-21.86-2.17-32.09,4.39-8.31,11.51-13.56,21.38-15.73,9.86-2.18,20.51-1.03,31.94,3.47l7.91-14.99,16.19,8.55-7.91,14.99c11.45,7.29,19.29,15.96,23.52,26.05,4.23,10.09,4.06,19.46-.52,28.13l-17.44-9.21c3.56-6.74,3.56-13.59.02-20.55-3.55-6.96-9.72-12.76-18.53-17.41-8.31-4.39-16.08-5.95-23.32-4.7-7.25,1.25-12.59,5.13-16.03,11.63-3.43,6.5-2.92,13.17,1.55,19.99,2.94,4.48,8.64,10.18,17.09,17.11,11.55,9.49,19.84,18.33,24.86,26.52,7.73,12.71,8.68,24.6,2.83,35.68Z" style="fill: #b16628;"/>
  </g>
  <path d="m725.25,144.97v148.21c0,7.4-5.57,13.47-12.47,13.47h-7.67v895.74c0,23.74-17.44,43.01-38.95,43.01H107.62c-21.51,0-38.95-19.27-38.95-43.01V45.02c0-23.79,17.44-43.06,38.95-43.06h558.55c21.51,0,38.95,19.27,38.95,43.06v86.48h7.67c6.89,0,12.47,6.03,12.47,13.47Z" style="fill: #5a8ec0;"/>
  <rect x="95.37" y="63.32" width="583.03" height="1130.78" rx="14.18" ry="14.18" style="fill: #9fc1e6;"/>
  <rect x="297.04" y="32.61" width="163.54" height="6.85" style="fill: #2c2150;"/>
  <path d="m678.4,77.48v1102.44c0,7.85-6.35,14.2-14.2,14.2H109.54c-7.81,0-14.15-6.35-14.15-14.2V77.48c0-7.81,6.35-14.15,14.15-14.15h554.67c7.85,0,14.2,6.35,14.2,14.15Z" style="fill: #9fc1e6;"/>
  <g>
    <path d="m678.4,1015.82v101.59c-12.24,32.37-36.03,60.09-68.03,76.71h-133.23c-.36-.18-.78-.41-1.14-.64-14.93-7.95-28.45-18.54-39.81-31.32-13.06-14.66-23.29-32.24-29.59-52.19-23.97-75.75,17.99-156.61,93.78-180.58,31.46-9.95,63.79-8.54,92.55,1.92-.23.55-.5,1.14-.73,1.78-1.46,3.47-3.24,8.31-5.3,14.57-.46,1.37-.91,2.83-1.37,4.38-.14.32-.23.68-.32,1.1-.78,2.6-1.6,5.39-2.42,8.36-.09.18-.14.41-.18.59-.32,1.28-.69,2.65-1.05,4.02-2.42,9.13-4.89,19.95-7.31,32.65-1.05,5.48-2.05,11.28-3.06,17.49-1.8,11.14-3.67,22.4-4.61,33.65-.41,4.86-1.15,9.7-1.55,14.57-1.44,17.37-3.01,34.73-3.84,52.14-.24,4.95-.52,9.89-.69,14.84-.14,4.02-.27,8.13-.41,12.28l10.36.64,41.78,2.51,44.02-170.13c9.18,11.51,16.71,24.61,22.14,39.08Z" style="fill: #f6af4e;"/>
    <path d="m560.1,1143.71c.14-4.16.27-8.26.41-12.28.14-3.33.27-6.58.41-9.82.09-1.69.18-3.38.27-5.02-.69.27-1.37.5-2.1.73-10.55,3.33-19.95,3.51-28.17.55-8.26-2.97-13.61-8.36-16.07-16.12l-18.77,5.94.73,2.33c3.01,9.63,10,16.35,20.87,20.18,10.87,3.84,22.97,4.38,36.25,1.6l5.11,16.16,11.41-3.61-10.36-.64Zm-35.71-138.8c9.5-3.01,17.99-3.33,25.43-.96,7.44,2.33,12.33,7.17,14.61,14.43l6.76-2.15c1-6.21,2.01-12.01,3.06-17.49-2.97-2.65-6.53-4.75-10.68-6.44-10.14-4.06-21.83-4.61-35.07-1.55l-5.11-16.16-17.44,5.53,5.11,16.16c-11.23,4.98-19.54,11.74-24.93,20.32-5.34,8.54-6.62,17.3-3.79,26.25,3.52,11.05,11.6,18.03,24.38,21,8.08,1.87,19.5,2.1,34.2.73,10.23-1.05,18.22-1.1,24.06-.14h.05c.09-1,.18-2.01.27-3.01.37-3.15.69-6.26,1-9.31.09-.78.18-1.51.27-2.24-7.31-.55-15.75-.32-25.34.68-10.87,1.14-18.95,1.19-24.2.14-7.99-1.6-13.1-5.89-15.34-12.92-2.19-7.03-1.19-13.51,2.97-19.59,4.2-6.03,10.78-10.46,19.72-13.29Z" style="fill: #b16628;"/>
    <path d="m109.54,1194.12c-7.81,0-14.15-6.35-14.15-14.2v-84.7c40-51.14,94.15-120.63,95.29-123.64l6.85-18.08c7.44.41,14.98,1.51,22.46,3.15,10.59,2.37,20.64,5.8,30.04,10.27,1.11.53-.07,20.76,0,22.78.91,30.19,4.91,60.28,11.38,89.77.95,5.72,2.56,11.33,4.02,16.94,7.54,28.89,17.21,57.11,29.4,84.38l3.61,4.66c.59.87,1.23,7.9,1.92,8.68H109.54Z" style="fill: #f6af4e;"/>
    <path d="m250.07,1070.11c2.15-9.54-.18-18.63-6.89-27.26-6.76-8.63-16.62-14.93-29.54-18.95l3.65-16.53-17.85-3.97-3.7,16.53c-12.24-1.32-22.78.37-31.73,5.11-8.95,4.7-14.43,11.6-16.44,20.78-2.56,11.32,1,21.46,10.55,30.41,6.03,5.66,15.8,11.6,29.22,17.81,10.32,4.66,17.72,9.04,22.19,13.1,7.72,6.85,10.59,14.66,8.63,23.47-1.64,7.31-6.3,12.74-14.02,16.3-7.72,3.61-16.89,4.2-27.53,1.83-10.82-2.42-19.04-6.94-24.66-13.65-5.66-6.67-7.58-14.02-5.8-22.01l-19.27-4.25-.5,2.37c-2.19,9.82.46,19.13,7.9,27.9,7.49,8.81,17.67,15.3,30.59,19.59l-3.7,16.53,17.9,3.97,3.65-16.53c12.97,1.51,24.56-.09,34.84-4.79,11.19-5.21,17.9-12.92,20.18-23.15,2.69-12.19-1.32-23.42-12.15-33.65-7.03-6.58-17.35-12.92-31-19.04-9.95-4.43-16.94-8.45-20.96-11.96-6.12-5.43-8.4-11.73-6.8-18.9,1.6-7.17,5.75-12.33,12.42-15.43,6.62-3.1,14.57-3.65,23.7-1.6,9.73,2.15,17.21,6.12,22.46,11.87,5.25,5.8,7.08,12.37,5.43,19.82l19.22,4.29Z" style="fill: #b16628;"/>
    <path d="m479.28,1192.57s-11.14,3.06-27.58,8.17l-144.1,42.6s-17.4-28.08-13.15-51.82c.64-3.61,1.92-5.98,3.61-7.44l.37,1.37c8.77,13.52,36.44,11.83,41.55,4.11,13.47-20.23,24.15-25.98,26.67-27.08.37-.18.55-.23.55-.23,0,0,51.14,8.31,71.05-.96,30.41-14.2,41.05,31.28,41.05,31.28Z" style="fill: #303c84;"/>
    <path d="m367.19,1162.25s-11.83,4.2-27.21,27.3c-5.11,7.72-32.78,9.41-41.55-4.11l-1.42-5.34,66.21-20.59-.55-3.24,4.52,5.98Z" style="fill: #f5ae9f;"/>
    <path d="m363.22,1159.51l-68.4,21.28c-2.92-4.18-4.17-9.25-6.01-13.94-2.05-5.22-4.21-10.4-6.18-15.65-3.92-10.4-7.5-20.93-10.74-31.57-6.48-21.27-11.6-42.96-15.3-64.89-5.05-29.92-7.82-60.35-6.48-90.71.12-2.66.26-5.33.51-7.98,0,0-15.11-21.64-34.2-52.37l-25.75,67.9c-1.14,3.01-55.29,72.51-95.29,123.64v-135.01c14.75-18.26,24.47-28.72,24.47-28.72,0,0,.33-69.6.5-78.81.45-23.8,1.1-47.71,2.88-71.46.75-9.81,1.46-19.63,2.6-29.41.71-6.06,1.53-12.15,2.74-18.13.49-3.08,1.27-6.28,2.28-9.22,2.23-6.45,7.13-.68,14.32-1.58,40.53-25.34,30.15-28.64,30.15-28.64,86.18,25.84,116.02,18.72,116.02,18.72l3.47,21.46,31.69,212.27,36.71,212.82Z" style="fill: #70c2ba;"/>
    <path d="m494.72,635.53s.5-2.97,1.42-8.13c.32-1.96.73-4.2,1.19-6.76.46-2.65.96-5.66,1.55-8.86l-89.54-46.66-74.61-106.98-.59-.82s-1.87-2.79-4.43-6.03c-2.15-2.74-4.75-5.84-7.08-7.85l-20.09-9.41-.78,2.79-4.29,15.11c0,.14-.05.23-.09.37l-1.64,5.84-2.42,8.58c-.05.23-.09.32-.09.32,0,0-1.69-1.42-4.43-3.74-1.14-.96-2.42-2.06-3.84-3.24-.73-.59-1.46-1.23-2.24-1.92-2.42-2.06-5.16-4.38-7.99-6.85-2.6-2.24-5.34-4.61-8.08-7.03-1.1-1-2.24-2.01-3.38-2.97-.23-.23-.46-.46-.73-.69-1.32-1.19-2.69-2.42-4.02-3.61-2.65-2.33-5.2-4.66-7.53-6.85-.46-.41-.91-.82-1.32-1.23-1.32-1.23-2.56-2.42-3.7-3.56-.78-.78-1.51-1.46-2.15-2.15-1.19-1.19-2.19-2.28-2.97-3.24-.64-.64-1.1-1.23-1.46-1.74-.05-.09-.09-.18-.14-.23-.09-.14-.18-.23-.23-.36-.64-.91-.73-1.46-.27-1.6-1.69.46-3.42.64-5.25.46,0,0-10.36,1.28-14.61,1.51-11.73.69-35.11,5.07-35.11,5.07-7.03,1.19-17.3,6.53-28.99,14.06,0,.05-.05.05-.05.05-14.15,9.13-30.45,21.6-45.8,34.11-2.19,1.78-4.38,3.56-6.53,5.34-1.64,1.32-3.24,2.65-4.79,3.97-.73.59-1.51,1.23-2.24,1.83v187.06l6.03-4.2,3.24-2.19,34.52-23.88.87-.59-40.09-78.62s14.93-8.86,30.87-18.54c16.07-9.77,35.61-21.83,51.46-32.1-16.48,50.18-29.86,125.93-30.13,126.29-1.51,3.2-2.92,6.03-4.38,8.49,1.74.82,3.56,1.64,5.25,2.47,1.46.68,2.83,1.37,3.97,1.92h.05c1.23.68,2.19,1.19,2.65,1.51,4.43,3.1,6.94,7.94,10.23,12.05.41.55.87,1.1,1.32,1.6l.18.18c1.1,1.19,2.33,2.24,3.7,3.15,1.6,1.05,3.42,1.83,5.16,2.69.68.32,1.37.69,2.05,1.1.5.32,1,.64,1.46,1.01,1.42,1.1,2.6,2.97,1.51,4.34-.46.5-1.19.82-1.87,1.05-2.79.96-5.75,1.32-8.68,1.14h-.14c-3.56-.18-7.08-1.14-10.04-2.88-.41-.18-.64-.32-.64-.32l9.09,12.92c1.05,1.64,1.87,3.88,2.33,6.16,10.18,3.33,19.36,6.07,25.71,7.67,50.54,12.74,76.02,12.6,85.61,11.69.32,0,.64-.04.91-.09,1.05-.09,1.87-.18,2.47-.32h.09c.37-.05.64-.09.82-.14.09-.05.14-.05.23-.05.14-.05.18-.05.18-.05l8.45-41.73s19.86-51.37,30.73-106.29l43.7,47.67c6.62,7.21,73.42,41.09,104.74,56.75,1.19-4.06,2.88-7.99,4.98-11.46,1.32-2.15,3.65-5.57,6.35-9.36,1.6-2.19,3.33-4.52,5.02-6.85,1.55-2.15,3.1-4.25,4.57-6.16h-5.16Z" style="fill: #4c3685;"/>
    <path d="m185.28,676.16c-.46.5-1.22.74-1.87,1.05-8.08,3.84-19.5-2.06-19.5-2.06l9.09,12.92c1.05,1.64,1.87,3.88,2.33,6.16.82,4.15.23,8.63-3.47,10.36,0,0-33.92,19.5-36.76,18.22-.96-.41-4.89-2.69-5.89-3.38-6.48-4.52-13.52-11.78-17.31-19.4-2.88-5.8-5.57-23.83-6.8-33.15-.23-1.55-.37-2.83-.46-3.79l34.52-23.88.87,1.46s17.08,7.58,19.63,9.36c6.44,4.52,8.81,12.65,15.43,16.98,2.74,1.78,6.07,2.79,8.67,4.79,1.42,1.1,2.6,2.97,1.51,4.34Z" style="fill: #f5ae9f;"/>
    <path d="m252.49,370.02c-3.1-5.52-8.95-13.47-19.54-24.75-.5-.55-.91-1.1-1.28-1.69l-.05-.05c-.78-1.42-1.42-2.83-1.87-4.2-.09-.27-.18-.59-.23-.87-.69-3.56.09-7.31,2.37-10.27,3.97-5.02,12.37-6.44,16.8-1.87,1.19,1.23,2.69,3.74,4.2,6.26.41,9.77-.64,23.38-.41,37.44Z" style="fill: #f5ae9f;"/>
    <path d="m301.85,436.82c.55,1.83-8.63,30.23-8.63,30.23,0,0-59.4-49.63-54.47-51,8.08-2.24,13.38-21.82,15.16-26.71.36,2.42.78,4.84,1.32,7.21,4.34,18.81,25.75,25.11,44.15,26.98-.73,7.44-.55,13.29,2.47,13.29Z" style="fill: #f5ae9f;"/>
    <path d="m363.17,355.09c-1.37,4.06-8.4,8.81-11.42,11.19-11.14,8.86-18.95,3.33-31.73,2.88-9.82-.32-23.7,2.79-33.51,2.15-8.45-.55-16.53-5.84-20.45-13.38-3.06-5.75-1.83-15.34-1.87-21.55,0-.55-.27-3.01-.37-3.7v-.09c-1.55-15.8,8.22-22.97,15.93-27.35,11.96-6.71,27.53-3.33,39.91-1.05,7.4,1.32,15.02,1.46,22.42-.14,5.02-1.05,11.51-2.47,17.76-4.52.09.23.14.41.18.64,1.14,4.15,2.1,8.63,2.83,13.42.87,5.62,1.46,11.69,1.83,18.26.41,8.04-.09,15.84-1.51,23.24Z" style="fill: #f5ae9f;"/>
    <path d="m340.74,363.11c-.9,7.69,4.61,14.67,12.3,15.57.76.09,1.48.13,2.21.06,3.83-7.5,6.64-15.93,8.14-24.96-1.95-1.6-4.37-2.65-7.08-2.97-7.69-.9-14.67,4.57-15.57,12.3Z" style="fill: #ed7e94;"/>
    <path d="m324.42,363.95c-2.84,0-5.65-.58-7.65-2.35-1.42-1.25-1.55-3.42-.3-4.84,1.25-1.41,3.41-1.55,4.83-.3.8.7,4.22,1.07,9.34-.33l-3.13-25.69c-.23-1.88,1.11-3.59,2.99-3.81,1.88-.2,3.59,1.11,3.81,2.98l3.18,26.1c.38,3.15-1.68,6.09-4.91,6.98-2.13.59-5.16,1.24-8.16,1.24Z" style="fill: #2c2150;"/>
    <path d="m345.19,343.84c-1.84-.03-3.69-1.36-3.4-3.72l.6-5.07c.22-1.88,1.9-3.26,3.8-3,1.88.22,3.22,1.92,3,3.8,0,0-.6,5.05-.6,5.07-.24,2.03-1.82,2.95-3.39,2.92Z" style="fill: #2c2150;"/>
    <path d="m302.77,340.96c-1.84-.03-3.69-1.35-3.41-3.72l.6-5.07c.22-1.88,1.93-3.27,3.8-3,1.88.22,3.22,1.92,3,3.8,0,0-.59,5.05-.6,5.07-.24,2.02-1.82,2.95-3.39,2.92Z" style="fill: #2c2150;"/>
    <path d="m277.4,359.32c-.9,7.7,4.6,14.67,12.3,15.57,7.7.9,14.67-4.6,15.57-12.3.9-7.7-4.6-14.67-12.3-15.57-7.7-.9-14.67,4.6-15.57,12.3Z" style="fill: #ed7e94;"/>
    <path d="m296.59,320.85c-1.7,0-3.18-1.27-3.39-3.01-.23-1.88,1.1-3.58,2.98-3.82,5.03-.62,10.13-.91,15.23-.83,1.44.02,3.01,1.07,3.48,2.43.49,1.4-.02,3.04-1.2,3.94-.97.74-2.32.91-3.45.47-4.44,0-13.5.81-13.64.81Z" style="fill: #2c2150;"/>
    <path d="m352.56,319.62c-1.88.02-3.93-.94-5.76-1.33-2.07-.44-4.09-.64-6.21-.67-1.88-.02-3.46-1.45-3.51-3.34-.04-1.89,1.45-3.46,3.34-3.51,4.59-.13,9.06,1.07,13.01,2.11,1.83.48,2.92,2.36,2.43,4.19-.4,1.5-1.81,2.53-3.31,2.54Z" style="fill: #2c2150;"/>
    <g>
      <path d="m252.98,430.16c2.3,2.33,4.59,4.66,6.97,6.85h-98.28c1.57-1.23,3.15-2.51,4.72-3.79,1.32-1.05,2.59-2.1,3.95-3.06h82.63Z" style="fill: #a49acb;"/>
      <path d="m275.45,451.3c2.79,2.1,5.5,4.34,7.85,6.85h-152.7l9.04-6.85h135.81Z" style="fill: #a49acb;"/>
      <path d="m337.25,458.15h-41.91c.87-2.24,1.64-4.52,2.37-6.85h34.24c1.87,2.19,3.61,4.52,5.3,6.85Z" style="fill: #a49acb;"/>
      <path d="m345.75,479.33H104.57l9.23-6.85h227.66c1.43,2.28,2.81,4.57,4.28,6.85Z" style="fill: #a49acb;"/>
      <path d="m359.81,500.47H93.69c-.31-2.28-.58-4.57-.89-6.85h262.41c1.52,2.28,3.04,4.61,4.6,6.85Z" style="fill: #a49acb;"/>
      <path d="m374.4,521.61h-192.53l2.79-6.85h186.21c1.48,2.28,2.08,4.52,3.53,6.85Z" style="fill: #a49acb;"/>
      <path d="m132.36,536.09l-10.8,6.85h-25.87c-.05-1.55-.09-3.15-.18-4.75-.05-.68-.09-1.42-.14-2.1h36.99Z" style="fill: #a49acb;"/>
      <path d="m388.95,542.75l-212.46.05,1.45-6.85h206.48c.98,2.24,4.53,6.8,4.53,6.8Z" style="fill: #a49acb;"/>
      <path d="m404.71,563.94h-234.1l1.51-6.85h228.02c1.15,2.15,2.44,4.2,3.95,6.12.18.23.4.5.62.73Z" style="fill: #a49acb;"/>
      <path d="m108.62,585.06l-13.26-.07s-.14-4.19,0-6.47l9.82-.22,3.44,6.76Z" style="fill: #a49acb;"/>
      <path d="m167.16,578.23h156.39c-.22,2.33-.47,4.57-.86,6.85h-156.99l1.47-6.85Z" style="fill: #a49acb;"/>
      <path d="m438.39,585.08h-84.73c-1.57-1.78-3.13-3.56-4.7-5.34-.43-.5-.87-1-1.3-1.51h79.33c3.61,2.51,7.43,4.79,11.39,6.85Z" style="fill: #a49acb;"/>
      <path d="m95.37,606.49c.17-.68,0-7.04,0-7.04l20.96-.03,2.86,6.85-23.82.22Z" style="fill: #a49acb;"/>
      <path d="m162.67,599.42h155.77c-.51,2.33-1.15,4.61-1.88,6.85h-155.35l1.45-6.85Z" style="fill: #a49acb;"/>
      <path d="m480.27,606.39l-108.26-.13c-1.83-2.19-3.63-4.52-5.39-6.85h102.72l10.94,6.97Z" style="fill: #a49acb;"/>
      <path d="m130.83,627.4h-36.25c.05-2.28.18-4.57.41-6.85h32.74l3.1,6.85Z" style="fill: #a49acb;"/>
      <path d="m158.47,620.56h154.53c-.39,1.23-.77,2.47-1.16,3.7-.3,1.05-.6,2.1-.82,3.15h-154.02l1.46-6.85Z" style="fill: #a49acb;"/>
      <path d="m500.12,623.98c0,1.6-1.05,2.97-2.47,3.33-.25.05-.5.09-.75.09h-92.6c-3.26-2.1-6.35-4.38-9.41-6.85h102c.67,0,1.3.23,1.8.59.88.59,1.42,1.64,1.42,2.83Z" style="fill: #a49acb;"/>
      <path d="m152.87,641.7l153.61.18c-.22,1.28-2.47,5.67-2.7,6.67h-150.75c-.03-1.51-.13-6.07-.16-6.85Z" style="fill: #a49acb;"/>
      <path d="m500.12,645.12c0,1.92-1.4,3.42-3.18,3.42h-51.77c-.45-.32-.87-.59-1.32-.87-3.51-2.24-7.18-4.15-10.89-5.98h63.98c1.77,0,3.18,1.55,3.18,3.42Z" style="fill: #a49acb;"/>
      <path d="m171.18,662.88h127.51c-.53,2.28-1.05,4.57-1.61,6.85h-123.11c.03-1.23-2.76-4.93-2.79-6.85Z" style="fill: #a49acb;"/>
      <path d="m293.53,684.02c-.42,2.28-.85,4.57-1.19,6.85h-114.41l-3.95-6.85h119.55Z" style="fill: #a49acb;"/>
    </g>
  </g>
  <path d="m356.32,257.15c-49.63-74.79-127.53-19.63-123.37-.59-14.02,5.66-43.38,27.03-22.51,78.9,5.25,13.01,21.64,37.49,42.51,45.25.41,5.39,1.14,10.73,2.28,15.84,5.34,23.1,36.39,27.3,56.02,27.71,27.53.55,47.03-23.56,49.54-49.27.55-5.8,1.87-14.25,2.51-20.32-1,4.15-8.45,9.13-11.55,11.6-11.14,8.86-18.95,3.33-31.73,2.88-9.82-.32-23.7,2.79-33.51,2.15-8.45-.55-16.53-5.84-20.45-13.38-3.06-5.75-1.83-15.34-1.87-21.55,0-.55-.27-3.01-.37-3.7v-.09c-1.55-15.8,8.22-22.97,15.93-27.35,11.96-6.71,27.53-3.33,39.91-1.05,7.4,1.32,15.02,1.46,22.42-.14,5.16-1.1,11.87-2.56,18.26-4.7-.37.69,5.94,33.15,4.47,47.21,1.28-1.28,2.42-2.79,3.29-4.38,1.78-3.2,2.65-6.76,3.38-10.32,2.69-12.97,3.88-26.25,3.56-39.49-.32.18,2.33-2.19,3.52-3.74,6.99-9.13,10.46-36.07-22.24-31.46Zm-103.83,112.87c-3.1-5.52-8.95-13.47-19.54-24.75-4.34-4.66-4.98-12.05-1.05-17.08,3.97-5.02,12.37-6.44,16.8-1.87,1.19,1.23,2.69,3.74,4.2,6.26.41,9.77-.64,23.38-.41,37.44Z" style="fill: #f6af4e;"/>
  <path d="m315.75,389.17c-1.85,0-3.7-.25-5.48-.75-3.7-1.05-7.11-3.25-9.38-6.36-.68-.93-1.28-2-1.28-3.16,0-2.51,2.88-4.24,5.11-2.85.99.61,1.58,1.68,2.31,2.58,3.63,4.4,9.97,4.3,14.89,2.5,2.72-1,3.48-2.79,5.38-4.69,2.35-2.34,5.87.33,5.47,3.23-.22,1.56-1.2,2.91-2.32,4.01-2.4,2.36-5.52,3.89-8.78,4.73-1.93.5-3.93.76-5.93.75Z" style="fill: #2c2150;"/>
  <path d="m899.16,1220.1l-57.9,9.59c-7.31,1.19-14.66-1.69-20.14-7.31-5.66-5.75-12.88-10.32-20.09-13.88l1.83,27.53-17.17,2.88-10.73-40.27c-16.04-6.8-5.83-37.67,2.1-47.3,6.53,9.22,26.21,19.68,34.06,21.92,29.4,8.45,34.11.78,26.71-9.72,17.35,17.26,34.38,23.88,45.98,26.3,9.36,2.01,16.8,9.91,19.13,20l.64,2.92c.82,3.42-1.23,6.8-4.43,7.35Z" style="fill: #2ab19e;"/>
  <path d="m811.13,1173.25c-8.58-2.47-31.32-14.75-35.57-24.47l45.16-13.97c4.48,10.59,9.41,19.45,14.88,25.84,10.27,11.87,7.53,21.83-24.47,12.6Z" style="fill: #f5ae9f;"/>
  <path d="m669.91,1234.48l-.05,3.01c0,3.56-2.79,6.35-6.03,6.12l-58.53-4.15c-7.4-.5-13.83-5.07-17.9-11.78-4.15-6.89-10.14-13.01-16.3-18.17l-4.61,27.21-17.35-1.23-1.1-41.64s-2.6-1.96-2.79-2.28c-6.48-12.92,5.25-35.25,15.84-43.28,4.2,10.5,20.91,25.3,28.03,29.31,26.94,15.2,33.1,8.49,28.08-3.65,12.88,21.09,27.99,31.55,38.76,36.71,8.58,4.11,14.02,13.51,13.93,23.83Z" style="fill: #2ab19e;"/>
  <path d="m615.89,1171.02c7.17,13.93,2.24,22.97-26.76,6.58-8.22-4.66-29.31-23.7-29.04-33.88l49.08,2.97c1.14,9.41,3.29,17.67,6.71,24.34Z" style="fill: #f5ae9f;"/>
  <path d="m820.72,1134.81l-53.65,16.62c-50.86-135.47-45.34-206.29-45.34-206.29-.27-.41-17.9-35.2-38.63-76.25l-15.16,62.6-55.7,215.37-52.14-3.15c4.7-162,35.39-217.93,35.39-217.93-.41.14,5.89-90.59-6.8-167.34-2.65-15.98-27.58-51.32-1.92-86.89l.23.09s.09-.14.09-.18c5.11,9.45,53.79,21.19,76.34,24.79,47.21,7.49,66.02,3.24,72.51.68l8.13,43.51,48.95,206.29,27.71,188.07Z" style="fill: #303c84;"/>
  <path d="m907.11,676.85c-.5,1.51-7.99,5.75-10.87,6.35-3.93.78-19.18.18-19.18.18,5.34,4.79,29.95,45.07,21.14,51.64-13.38,9.22-29.49,14.38-37.49,4.16-13.29-13.01-31.05-36.25-34.61-52.51l37.44-29.27c4.66.5,9.13,1.28,11,2.05,2.65,1.1,20.55,13.88,28.54,12.6,4.43-.73,5.62.18,4.02,4.79Z" style="fill: #f5ae9f;"/>
  <path d="m808.35,590.28l-8.4-9.31-13.33-58.81c12.1-17.21,19.41-51.55-25.75-112.41-2.28-3.1-6.39-4.29-10.18-4.29h-5.02s16.76,57.94-51.59-2.33c0,0,.64-1.87,1.51-5.02-2.79.82-5.62,1.83-8.4,3.01-7.4-.05-20.04.18-30.82,4.34-52.6,20.23-130.77,74.38-133.05,83.24-10.59,41.41-28.58,146.84-28.58,146.84h49.04l20.5-122.09c1.96-1.74,51.37-25.02,78.44-36.85,8.95,107.12-4.06,114.97-26.57,143.96-9.04,11.6-26.44,40.09-29.36,48.44-3.42,9.73,52.1,23.33,76.66,27.26,59.22,9.41,73.78.32,75.29-.78-.23-2.24,17.26-87.25,17.26-87.25l67.94,80.18,42.74-33.47-58.31-64.65Zm-145.06-128.12c-.09,0-.23-.05-.32-.14l.55-.37-.23.5Z" style="fill: #dc74aa;"/>
  <path d="m560.37,658.95l-17.62,42.96c-1.6,3.93-5.43,6.12-8.54,4.84l-6.71-2.74c-.73-.32-1.42-.73-2.05-1.23-3.33,4.2-8.67,7.94-13.01,5.57l-32.97-12.37c-5.43-3.01-3.83-24.47,4.47-38.08,2.83-4.61,10.27-14.79,15.94-22.37h43.88l1.05-6.26,1.32,5.8c1.19,1.74,2.19,6.12,2.92,11.1.64.14,1.28.27,1.92.55l6.71,2.74c3.1,1.28,4.29,5.53,2.69,9.5Z" style="fill: #f5ae9f;"/>
  <path d="m734.66,530.09c-.06,0-.12,0-.18,0-11.68-.9-23.13-4.58-33.13-10.65-1.08-.66-1.42-2.06-.76-3.14.66-1.07,2.06-1.41,3.14-.77,9.39,5.71,20.15,9.17,31.11,10,1.26.1,2.2,1.19,2.1,2.45-.09,1.2-1.09,2.11-2.27,2.11Z" style="fill: #2c2150;"/>
  <path d="m1313.24,337.56l3.15,9.73-2.83,1c-5.98,2.15-9.31,8.68-8.17,15.39-.95.44-7.32-2.89-14.61,5.75l-4.34-13.42-8.99,6.67c-12.78,9.5-30.5,7.17-39.63-5.11l-.37-.46c-9.13-12.33-6.21-29.95,6.58-39.45l32.6-24.2,78.67-119.31,91.73,123.51-133.78,39.91Z" style="fill: #9bd2d4;"/>
  <path d="m1338.77,443.3l-6.85-2.05-22.97-6.94-6.85-2.05-12.37-3.74-6.39,23.88-1.83,6.85-2.33,8.77-6.85,25.66-4.89,18.31-.37,1.37s-1.23-1.37-1.23-1.37c-5.82-6.46-9.13-14.84-14.85-21.53-6.89-8.06-13.55-16.33-19.71-24.96-2.98-4.31-18.16-20.54-22.9-24.5-4.09-3.41-8.51-7.4-13.85-8.59-.82-.18-1.69-.37-2.65-.5-2.36-.34-4.71-.77-7.07-1.09-1.75-.24-3.76-.36-5.47-.07,1.09,4.06,4.19,8.21,6.15,11.98,4.02,7.77,8.05,15.55,12.05,23.33,2,3.9,3.86,7.88,5.75,11.83,2.69,5.55,5.34,11.22,7.3,17.08,18.4,54.88,26.16,224.37,26.16,224.37l-13.88,1.96s-41.5-186.97-52.19-215.19c-10.68-28.26-66.07-75.57-66.07-75.57,0,0-3.42-.46-4.25-.09-4.71,2.05-8.98,5-13.62,7.21-5.32,2.53-10.85,4.6-16.2,7.08-2.33,1.05-4.66,2.19-6.85,3.52-4.68,2.83-16.07,22.05-17.08,27.85-1.05,1.96-2.15,4.02-3.2,6.12-4.9,9.8-9.57,19.74-13.97,29.77-1,2.24-2.01,4.52-3.01,6.85-3.24,7.53-6.48,15.3-9.63,22.97-.96,2.28-1.87,4.57-2.78,6.85-1.05,2.6-2.06,5.16-3.06,7.67-2.97,7.35-5.79,14.76-8.68,22.14-6.64,17.35-14.51,34.8-19.4,52.74-.64,2.28-1.1,4.57-1.32,6.85-.82,8.04.96,16.03,4.89,22.97,1.42,2.47,3.06,4.75,4.93,6.85,3.64,4.09,8.05,6.96,12.74,9.68l6.85,3.93,22.92,13.24,5.02,2.92,24.79,14.29s6.85,3.97,6.89,4.02c-.37,1.6-.78,3.15-1.14,4.66-.55,2.24-6.12,24.06-7.35,29.77-.64,2.74-1.1,5.02-1.28,6.85-.09.37-.09.64-.14.96,0,0,27.9,1.73,36.98,2.06,2.19.09,34.29.5,36.62.5,7.4,0,15.11-.18,22.97-.46,2.28-.04,22.1-1.05,29.82-1.69,2.28-.18,12.01-1.1,14.61-1.37,5.07-.55,10.14-1.19,15.16-1.92.82-.14,2.69-7.08,2.69-7.08l4.06-20.78,3.38-6.16,12.08-1.38,2.01,8.61,1.46,9.28,7.81,11.03c1.05-.27,3.17-1.13,4.82-1.63,0,0-4.36-35.45-5.09-37.32,0,0-3.33-77.8-3.29-78.67.37-6.8,1.1-44.79.91-52.74,0-1.87-.05-3.74-.09-5.66l1.74.82,10.46,4.84,12.51,5.8.87.41c1.92.91,3.93,1.6,5.98,2.1,7.81,1.87,16.07.59,22.92-3.52,2.19-1.28,4.25-2.88,6.12-4.75,0-.05.73-2.37.73-2.37l1.42-4.52,7.08-22.97,2.15-6.85,7.08-22.97,2.15-6.85,3.1-10.09,3.97-12.83,2.1-6.85.78-2.42,6.35-20.59,1.92-6.07,2.06-6.71-10.32-3.1Zm-261.35,208.39l-6.85-3.83-6.85-3.84-10.64-5.98-4.06-2.28s.82-1.64,2.33-4.57c2.42-4.79,6.58-13.01,11.55-22.97.27-.55.55-1.14.82-1.69.87-1.69,1.69-3.38,2.56-5.16,1.42-2.78,2.83-5.66,4.29-8.63,2.28-4.66,4.66-9.45,6.99-14.29h.05v-.05c1.1-2.28,2.19-4.52,3.29-6.8.41-.82-3.52,76.34-3.47,80.09Z" style="fill: #5a8ec0;"/>
  <path d="m1189.28,730.82l-17.85,32.01c-3.97,5.2-26.57,2.56-39.86-6.44-5.25-3.52-15.89-16.8-22.05-24.79,1.37-3.15,2.28-6.57,3.29-9.91,2.1-7.08,4.93-13.93,8.31-20.45,2.28-4.47,4.93-8.86,6.67-13.52,3.84-.09,17.67-.27,22.37.23,8.26.87,14.61,6.94,22.92,7.58,3.42.23,7.03-.55,10.46,0,1.87.27,3.93,1.37,3.61,3.1-.18.68-.68,1.32-1.19,1.87-4.79,5.16-12.15,8.08-19.04,7.85l14.98,7.08c5.11,2.74,11.28,10.14,7.4,15.39Z" style="fill: #f5ae9f;"/>
  <path d="m1342.01,399.84c-5.43-14.38-16.89-47.9-16.89-47.9-1.32-3.79-5.16-5.89-8.58-4.7l-2.97,1.05c-5.98,2.15-9.31,8.68-8.17,15.39-.91.41-1.55.64-1.64.41-3.29-1.37-7.26.05-10.91,5.21-.59-2.05-16.21,39.59-3.1,55.8,1.6,1.96,4.38,3.88,7.67,5.75.05,0,.05.05.09.05l4.61,1.37,6.85,2.05,22.97,6.94,1.51.46c4.29-6.16,17.08-19.36,8.58-41.87Z" style="fill: #f5ae9f;"/>
  <path d="m1329.04,411.94c-6.3,0-12.1-4.29-14.34-10.73l-5.8-16.39c-2.28,4.06-5.69,6.4-6.97,8.22.05.41-.09,5.12,0,7.08l3.58,13.35c2.15,6.62,12.75,11.73,18.96,9.76,3.29-1.1,7.58-5.29,8.95-8.3.37-.73-2.15-2.45-1.97-3.22-.78.18-1.6.23-2.42.23Z" style="fill: #9bd2d4;"/>
  <polygon points="95.37 648.88 118.62 648.88 129.31 641.7 95.37 641.7 95.37 648.88" style="fill: #a49acb;"/>
  <polygon points="95.37 521.61 156.48 521.61 167.05 514.76 95.37 514.76 95.37 521.61" style="fill: #a49acb;"/>
  <g>
    <path d="m789.9,278.57c-2.33,4.34-8.81,7.44-13.2,9.63-11.42,5.75-28.17-.41-40.91-1.32-29.04-2.1-43.51,25.07-43.51,25.07-4.15-11.69-16.12-13.33-22.01-8.36-3.06,2.6-4.47,6.99-2.24,12.69.96,2.51,1.87,4.57,2.79,6.35,4.75,9.41,8.08,9.91,12.65,28.81-4.29-2.92-8.45-6.16-12.28-9.77-.09,6.99-.87,13.93-3.47,20.41-5.62,13.79-19.36,23.38-34.11,26.89-14.75,3.47-30.36,1.51-44.93-2.69,13.15-7.12,26.03-17.85,27.99-32.42,1.69-12.6-4.16-25.84-6.85-38.03-2.37-10.82-4.25-21.83-4.52-32.92-.46-21.37,6.26-42.97,27.85-52.05,7.49-3.15,15.85-4.25,23.91-3.3,4.04.48,8.02,1.47,11.78,3.03,1.58.66,3.59,2.25,5.22,1.99,1.42-.23,3.8-2.7,5.11-3.49,14.84-8.99,32.72-10.1,49.46-7,27.44,5.07,37.17,20.27,39.59,21.14,12.69,4.57,29.31,21.14,21.69,35.34Z" style="fill: #303c84;"/>
    <path d="m791.73,313.4c-.32,6.39-1.05,12.69-2.15,18.72-1.19,6.39-2.79,12.56-4.75,18.26-7.4,21-20.41,36.48-39.49,38.58l.32,16.48s16.76,57.94-51.59-2.33c0,0,5.52-15.52,5.75-32.37-6.62-5.84-12.56-12.69-17.17-19.86.27.18.55.36.82.55-4.57-18.9-7.9-19.41-12.65-28.81v-.05c-.91-1.74-1.83-3.79-2.79-6.3-2.24-5.71-.82-10.09,2.24-12.69,5.89-4.98,17.85-3.33,22.01,8.36,0,0,14.47-27.17,43.51-25.07,12.74.91,29.5,7.08,40.91,1.32,4.38-2.19,10.87-5.3,13.2-9.63,0,0,0-.05.05-.05,2.1,9.73,2.56,21.37,1.78,34.88Z" style="fill: #f5ae9f;"/>
    <path d="m752.32,366.87c-4.43,0-8.86-1.14-11.93-3.29-.41-.29-.79-.58-1.17-.88-1.49-1.17-1.93-3.47-.76-4.95,1.17-1.48,3.14-1.89,4.63-.72l.41.32c.26.2.53.42.82.63,3.03,2.12,9.28,2.67,13.37,1.18,1.5-.55,2.83-1.36,3.83-2.35,1.35-1.32,3.52-1.3,4.84.05,1.32,1.35,1.3,3.52-.05,4.84-1.69,1.66-3.87,3.01-6.28,3.89-2.37.87-5.05,1.28-7.72,1.28Z" style="fill: #2c2150;"/>
    <path d="m701.35,270.87c-.61,0-1.21-.24-1.67-.72-.86-.92-.82-2.37.1-3.23,4.92-4.61,11.19-7.24,19.18-8.03,1.24-.09,2.37.79,2.5,2.05.12,1.26-.79,2.37-2.05,2.5-6.95.69-12.36,2.92-16.51,6.82-.44.41-1,.62-1.56.62Z" style="fill: #2c2150;"/>
    <path d="m624.65,378.48c-1.22-.04-2.36-1-2.36-2.29,0-1.26,1.03-2.28,2.28-2.28.04.02.05,0,.07,0,14.18,0,22.76-11.93,26.62-19.06.6-1.11,1.99-1.52,3.09-.92,1.11.6,1.52,1.98.92,3.09-4.34,8.01-14.09,21.45-30.63,21.45Z" style="fill: #2c2150;"/>
    <path d="m739.14,343.11c0,7.71-6.25,13.95-13.95,13.95s-13.95-6.25-13.95-13.95,6.25-13.95,13.95-13.95,13.95,6.25,13.95,13.95Z" style="fill: #ed7e94;"/>
    <path d="m684.26,326.13c-.62,0-1.24-.25-1.69-.75-3.05-3.35-6.12-8.3-6.12-11.8,0-1.26,1.02-2.28,2.28-2.28s2.28,1.02,2.28,2.28c0,1.82,2.21,5.74,4.93,8.73.85.93.78,2.38-.16,3.22-.44.4-.99.59-1.53.59Z" style="fill: #2c2150;"/>
    <path d="m779.49,323.58c-1.89,0-3.42-1.53-3.42-3.42v-4.33c0-1.89,1.53-3.42,3.42-3.42s3.42,1.53,3.42,3.42v4.33c0,1.89-1.53,3.42-3.42,3.42Z" style="fill: #2c2150;"/>
    <path d="m731.57,326.07c-1.89,0-3.42-1.53-3.42-3.42v-3.99c0-1.89,1.53-3.42,3.42-3.42s3.42,1.53,3.42,3.42v3.99c0,1.89-1.53,3.42-3.42,3.42Z" style="fill: #2c2150;"/>
    <path d="m786.87,330.47c-.19,1.07-.42,2.14-.65,3.21-1.33,6.37-3.05,12.44-5.12,18.07-.66,1.81-1.36,3.58-2.09,5.26-5.91-1.44-10.2-7.32-9.92-14.13.31-7.73,6.34-13.71,13.44-13.42,1.54.06,3,.4,4.34,1.01Z" style="fill: #ed7e94;"/>
  </g>
  <g>
    <path d="m636.41,695.21v342.44c-2.28,8.81-4.57,17.67-6.85,26.48v-370.48c2.24.55,4.52,1.05,6.85,1.55Z" style="fill: #2ab19e;"/>
    <path d="m664.72,700.14v228.2c-2.28,8.81-4.57,17.67-6.85,26.57v-255.78c2.28.37,4.57.73,6.85,1Z" style="fill: #2ab19e;"/>
    <path d="m693.03,702.88v174.69c-2.79-6.44-5.16-12.19-6.85-16.39v-158.71c2.33.18,4.61.32,6.85.41Z" style="fill: #2ab19e;"/>
    <path d="m721.34,702.74v232.08c-2.1-5.16-4.98-11.83-6.85-14.52v-217.15c2.33-.09,4.61-.23,6.85-.41Z" style="fill: #2ab19e;"/>
    <path d="m749.69,778.22v318.84c-2.37-7.99-4.61-16.03-6.85-24.06v-326.42c2.28,10.5,4.57,21,6.85,31.64Z" style="fill: #2ab19e;"/>
    <path d="m778,897.57v251.27c-2.69.64-5.25,1.14-6.85,1.51v-279.08c2.15,8.49,4.43,17.26,6.85,26.3Z" style="fill: #2ab19e;"/>
    <path d="m806.31,1061.71v77.77l-6.85,2.28v-125.62c1.74,13.24,4.38,30.18,6.85,45.57Z" style="fill: #2ab19e;"/>
    <path d="m579.79,691.24v30.04c-2.24-13.06-2.65-21.83,0-30.04Z" style="fill: #2ab19e;"/>
    <path d="m579.79,984.28v161.4c-2.33-.18-4.66-.32-6.85-.46v-109.3c.96-11.64,2.06-23.19,3.42-34.56.82-6.71,2.06-12.19,3.42-17.08Z" style="fill: #2ab19e;"/>
    <path d="m608.1,687.81v458.75c-1.37.09-3.79-.04-6.85-.23v-460.94c2.15.82,4.43,1.6,6.85,2.42Z" style="fill: #2ab19e;"/>
  </g>
  <path d="m1182.93,430.56v7.35c.82,1.46,1.64,3.1,2.56,4.79.68,1.32,1.42,2.65,2.15,4.02.68,1.32,1.42,2.74,2.15,4.15v-19.36c-2.01-.32-4.29-.64-6.85-.96Zm29.77,245.51v14.7h-22.92v-22.92h21.05c-.5-2.24-1.01-4.52-1.55-6.85h-19.5v-22.97h14.2c-.5-2.28-1.05-4.57-1.55-6.85h-12.65v-22.97h7.26c-.55-2.28-1.1-4.57-1.6-6.85h-5.66v-22.92h.18c-2.42-10.05-4.79-19.68-7.03-28.49v21.64h-23.24l.04-22.97h22.87c-.59-2.37-1.19-4.61-1.73-6.85h-21.14l.05-22.97h14.93c-.73-2.56-1.42-4.84-2.05-6.85h-12.88l.05-22.92h1.1c-2.37-3.33-5.02-6.71-7.81-10.09v3.24h-22.97v-22.97h5.02c-4.11-4.2-8.13-8.13-11.87-11.73v4.89h-22.92v-21.96c-2.1.91-4.34,2.1-6.67,3.52-.05.05-.14.09-.18.09v18.35h-22.97v-7.67c-2.33,1.05-4.66,2.19-6.85,3.52v4.16h-2.63c-1.78,1.74-3.47,4.11-4.98,6.85h7.61v22.97h-20.27c-.87,1.69-1.74,3.47-2.65,5.25v.09c-.23.5-.5,1-.73,1.51h23.65v22.92h-22.97v-16.3c-.23.46-.46.96-.68,1.42h-3.79c-.82,1.69-1.6,3.38-2.37,5.07v9.82h-4.48c-.96,2.24-1.96,4.52-2.97,6.85h7.44v22.97h-17.08c-.96,2.28-1.87,4.57-2.78,6.85h19.86v22.97h-22.92v-15.3c-2.1,5.2-4.11,10.36-6.03,15.3-.27.73-.55,1.42-.82,2.15v27.62h-10.46c-.91,2.42-1.78,4.7-2.56,6.85h13.01v22.97h-18.81c-1.23,0-2.37.78-2.88,1.92-.14.5-.27,1-.37,1.51,0,1.87,1.51,3.42,3.24,3.42h18.81v22.97h-17.67c1.42,2.47,3.06,4.75,4.93,6.85h12.74v9.68l6.85,3.93v-13.61h22.92v26.85l5.02,2.92h24.79v14.29l6.85,3.97v-18.26h22.97v22.97h-22.97v-4.47c-.37,1.55-.73,3.01-1.1,4.47-.41,1.69-3.65,14.38-5.75,23.01v6.76h-1.6c-.64,2.74-1.1,5.02-1.28,6.85h32.69v3.01c2.19.09,4.47.14,6.85.23v-3.24h29.77v-1.83c-1.6-1.28-3.38-3.01-5.25-5.02h-24.52v-22.92h10.55c.05-1.19,1.37-5.75,1.83-6.85h-12.37v-22.97h25.2c1.19-2.24,2.28-4.47,3.1-6.85-.09.27-.23.23-.37,0h-27.94v-22.92h22.92v5.62c.68-1.23,3.74,15.3,5.02,17.3h1.83v-22.92h22.97v16.44s5.84,8.63,6.35,4.43l.05-20.87h23.42v50.86c.18-.64,6.85,1.87,6.85,1.87v-22.97h22.92v22.97h-27.49c.32.27.64.59.91.91.78.87,1.55,1.78,1.96,2.88.37,1.05.41,2.06.18,3.06h24.43v22.92h-22.92v-20.32c-.82,1.87-2.1,3.56-3.42,5.16-.64.78-11.83,22.01-11.83,22.01h15.25s24.61-2.15,25.43-2.28l3.42-3.61.91-.96v-44.11c-1.78-7.81-4.11-18.17-6.85-30.18Zm-178.8-15.07h-22.92v-22.97h22.92v22.97Zm0-29.82h-22.92v-22.97h22.92v22.97Zm0-29.82h-22.92v-22.92h22.92v22.92Zm36.66-142.14h22.97v22.97h-22.97v-22.97Zm0,29.81h22.97v22.92h-22.97v-22.92Zm0,29.77h22.97v22.97h-22.97v-22.97Zm0,29.82h22.97v22.97h-22.97v-22.97Zm-29.82-29.82h22.97v22.97h-22.97v-22.97Zm0,29.82h22.97v22.97h-22.97v-22.97Zm22.97,142.14h-22.97v-22.92h22.97v22.92Zm0-29.77h-22.97v-22.97h16.67c-2.24-2.65.05-2.33-3.42-3.15.14-1.28.5-2.51.91-3.7h-14.15v-22.97h22.97v-6.85h-22.97v-22.92h22.97v22.92h6.85v-22.92h22.97v22.92h-14.93c0,2.28-.09,4.57-.18,6.85h15.11v22.97h-15.39c0,.59.05,1.23.05,1.83.05,1.69.14,3.33.18,5.02h15.16v22.97h-22.97v-14.7c-2.37-.91-4.7-2.01-6.85-3.33v18.04Zm6.85,29.77v-22.92h22.97v22.92h-22.97Zm0,59.58v-22.92h22.97v22.92h-22.97Zm52.74-89.35h-22.92v-22.97h22.92v22.97Zm0-29.82h-22.92v-22.97h22.92v22.97Zm0-29.82h-22.92v-22.92h22.92v22.92Zm0-29.77h-22.92v-22.97h22.92v22.97Zm0-29.82h-22.92v-22.97h22.92v22.97Zm0-29.82h-22.92v-22.92h22.92v22.92Zm0-29.77h-22.92v-22.97h22.92v22.97Zm29.82,178.8h-22.97v-22.97h22.97v22.97Zm0-29.82h-22.97v-22.97h22.97v22.97Zm0-29.82h-22.97v-22.92h22.97v22.92Zm0-29.77h-22.97v-22.97h22.97v22.97Zm0-29.82h-22.97v-22.97h22.97v22.97Zm0-29.82h-22.97v-22.92h22.97v22.92Zm29.82,149.03h-23.42l.05-22.97h23.38v22.97Zm0-29.82h-23.38l.05-22.97h23.33v22.97Zm0-29.82h-23.29l.05-22.92h23.24v22.92Zm50.27,59.63c.18,2.33.32,4.61.5,6.85h8.81v-6.85h-9.31Zm2.01,29.77c.14,2.42.27,4.7.41,6.85h6.89v-6.85h-7.31Zm109.86-238.39h-6.3v-9.09l-6.85-2.05v11.14h-22.97v-18.08l-6.85-2.05v20.14h-18.77l-1.83,6.85h20.59v22.97h-22.92v-14.2l-6.85,25.66v18.31h-22.97v-23.74l-4.02-4.57-.23-.27-2.6-2.97v1.78h-22.97v-23.01c-1.19-2.37-2.42-4.66-3.7-6.8h-25.3c1.19,2.24,2.33,4.52,3.56,6.85h18.58v22.97h-7.35s.05.05.05.09c1.1,2.42,2.1,4.66,2.97,6.76h4.34v12.88c2.51,8.95,4.79,19.95,6.85,32.19v-15.3h22.97v22.97h-21.73c.37,2.24.68,4.52,1.05,6.85h20.68v22.97h-17.62c.27,2.28.55,4.57.78,6.85h16.85v22.92h-14.38l.68,6.85h13.7v22.97h-11.64c.23,2.28.41,4.57.59,6.85h15.62c-.18-4.15-.27-6.71-.27-6.85.37-6.8,1.1-44.79.91-52.74,0-1.87-.05-3.74-.09-5.66l1.74.82,10.46,4.84h12.51v5.8l.87.41c1.92.91,3.93,1.6,5.98,2.1v-8.31h22.92v4.79c2.19-1.28,4.25-2.88,6.12-4.75v-.05h.73v-29.82h8.49l2.15-6.85h-10.64v-22.97h17.72l1.1-3.52v-3.33h-18.81v-22.92h22.97v12.83l3.97-12.83,2.88-9.27v-20.55h6.35v-.05l1.92-6.07v-.05c-.55-.41-1.23-.68-1.96-.68Zm-102.55,59.58h-22.97v-22.92h22.97v22.92Zm29.82,59.63h-22.97v-22.97h22.97v22.97Zm0-29.82h-22.97v-22.97h22.97v22.97Zm29.77,29.82h-22.92v-22.97h22.92v22.97Zm0-29.82h-22.92v-22.97h22.92v22.97Zm0-29.82h-22.92v-22.92h22.92v22.92Zm29.82-29.77h-22.97v-22.97h22.97v22.97Z" style="fill: #2e7cbb;"/>
  <path d="m1236.77,719.31l-13.88,1.96s-41.5-186.97-52.19-215.19c-10.68-28.26-66.07-75.57-66.07-75.57l8.26-2.56c9.04,5.48,32.46,9.09,43.97,6.71,13.15-2.74,14.29-4.61,20.32-7.35h.09s27.58,50.54,33.33,67.62c18.4,54.88,26.16,224.37,26.16,224.37Z" style="fill: #f6af4e;"/>
  <path d="m1211.56,309.07c-3.74,6.3-11.28,10.05-17.76,7.26-4.57-1.92-7.76-6.53-10.68-10.96-2.6-3.84-5.25-7.95-6.89-12.28-10.55,3.52-22.69,3.79-33.19,4.75-16.57,1.51-33.7.59-48.95-6.76,10.91,8.95,14.38,20.23,18.77,28.95,4.11,8.22-2.37,17.4-7.53,13.61-5.71-4.15-11.19-5.8-16.48-3.33-12.28,6.94-.18,19.54,7.81,25.89,0,0,6.94,12.01.78,18.54,0,0-10.55,2.37-24.98-7.21-15.62-10.46-18.4-21.55-23.47-39.54-5.11-17.99,2.05-44.97,19.95-52.51,1.05-15.66,14.75-30.36,29.86-36.3,10-3.97,21.69-7.17,32.42-7.21,17.85-.18,28.99,2.19,28.99,2.19,0,0,4.89-4.7,9.5-5.57,13.61-2.51,24.02,5.57,30.04,14.11,1.51,2.05,2.33,4.52,2.83,7.03.69,3.29.82,6.62.46,9.91,6.21,7.85,10.27,17.49,11.69,27.44,1.1,7.58.59,15.75-3.15,22.01Z" style="fill: #c7378b;"/>
  <path d="m1174.17,399.7c-1.78.68-3.61,1.28-5.43,1.69,3.15,12.37,7.26,25.93,8.49,25.93-6.07,2.74-7.17,4.61-20.36,7.35-13.38,2.79-42.92-2.6-47.17-9.59,1.37-.23,6.67-34.24,6.8-34.56-6.85-4.29-13.38-9.59-19.09-15.8,6.16-6.53-.78-18.54-.78-18.54-7.99-6.35-20.09-18.95-7.81-25.89,5.3-2.47,10.78-.82,16.48,3.33,5.16,3.79,11.64-5.39,7.53-13.61-4.38-8.72-7.85-20-18.77-28.95,15.25,7.35,32.37,8.26,48.95,6.76,15.34-1.42,34.15-1.28,46.39-12.15,1.73-1.55,3.33-3.24,4.79-5.11,3.56,6.53,6.94,14.02,10.09,22.51,15.3,41.18,1.73,84.33-30.13,96.61Z" style="fill: #f5ae9f;"/>
  <path d="m1190.91,340.66c1.46,7.71,8.84,12.78,16.44,11.29.75-.15,1.45-.32,2.13-.62,1.38-8.43,1.51-17.45.22-26.64-2.35-.95-4.97-1.23-7.65-.7-7.61,1.48-12.61,8.92-11.14,16.67Z" style="fill: #ed7e94;"/>
  <path d="m1188.31,320.87c-1.61,0-3.05-1.14-3.36-2.79l-.96-5.08c-.35-1.86.87-3.65,2.73-4,1.83-.35,3.65.87,4,2.73l.96,5.08c.35,1.86-.87,3.65-2.73,4-.21.04-.43.06-.64.06Z" style="fill: #2c2150;"/>
  <path d="m1172.95,350.96c-1.43,0-2.84-.29-4.15-.98-1.67-.88-2.31-2.95-1.43-4.63.88-1.67,2.96-2.31,4.63-1.43,1.16.62,4.6-.27,8.68-3.12l-12.28-27.74c-.77-1.73.01-3.75,1.74-4.52,1.73-.76,3.75.01,4.52,1.74l12.27,27.63c1.35,3.04.37,6.61-2.34,8.5-2.72,1.9-7.29,4.53-11.64,4.53Z" style="fill: #2c2150;"/>
  <path d="m1146.97,331.09c-1.61,0-3.05-1.14-3.36-2.79l-.96-5.08c-.35-1.86.87-3.65,2.73-4,1.87-.35,3.65.87,4,2.73l.96,5.08c.35,1.86-.87,3.65-2.73,4-.22.04-.43.06-.64.06Z" style="fill: #2c2150;"/>
  <path d="m1129.33,356.41c1.47,7.72,8.83,12.78,16.45,11.29s12.61-8.95,11.14-16.67c-1.46-7.72-8.83-12.78-16.44-11.29s-12.61,8.95-11.14,16.67Z" style="fill: #ed7e94;"/>
  <path d="m1104.64,349.03c-.83,0-1.63-.45-2.04-1.25-1.17-2.29-5.57-4.02-7.01-4.44-1.21-.35-1.91-1.62-1.55-2.83.35-1.21,1.61-1.9,2.83-1.55.77.23,7.55,2.32,9.8,6.75.57,1.12.12,2.5-1,3.07-.33.17-.68.25-1.03.25Z" style="fill: #2c2150;"/>
  <path d="m1149.93,265.46c-.44,0-.89,0-1.34-.01-1.26-.03-2.26-1.07-2.23-2.33.03-1.26,1.2-2.15,2.33-2.23,6.47.15,11.35-.78,14.59-2.74,1.07-.65,2.48-.31,3.13.77.65,1.08.31,2.48-.77,3.13-3.74,2.26-9.02,3.41-15.71,3.41Z" style="fill: #2c2150;"/>
  <path d="m1135.86,288.24s-.06,0-.1,0c-10.22-.43-20.39-2.43-28.11-4.13-1.23-.27-2.01-1.49-1.74-2.72.27-1.23,1.49-2.01,2.72-1.74,7.54,1.66,17.45,3.62,27.32,4.03,1.26.05,2.24,1.12,2.18,2.38-.05,1.23-1.06,2.19-2.28,2.19Z" style="fill: #2c2150;"/>
  <path d="m1146.51,288.07c-1.18,0-2.18-.91-2.27-2.1-.1-1.26.84-2.36,2.09-2.46,1.99-.16,3.98-.4,5.96-.73,8.05-1.34,15.6-4.3,21.83-8.56,2.73-1.86,12.24-11.55,13.05-16.43.21-1.25,1.4-2.1,2.63-1.88,1.24.21,2.08,1.38,1.88,2.63-1.18,7.07-12.35,17.66-14.98,19.45-6.77,4.62-14.95,7.83-23.65,9.29-2.11.35-4.22.61-6.35.78-.06,0-.12,0-.18,0Z" style="fill: #2c2150;"/>
  <path d="m1169.42,374.04c-1.78,0-3.56-.18-5.3-.64.82,1.55,1.83,2.65,3.1,3.38,2.51,1.46,6.03,1.37,10.45-.18,4.16-1.46,6.42,5,2.28,6.48-3.06,1.05-5.89,1.6-8.49,1.6-2.83,0-5.43-.64-7.67-1.96-4.29-2.51-7.03-7.08-8.22-13.56-.59-3.2,3.41-6.5,6.21-4.29,4.34,3.42,11.73,2.65,16.8.09,3.19-1.6,4.2-3.28,4.2-3.7.02-4.39,6.74-4.68,6.85-.23.09,3.79-2.79,7.44-7.99,10.05-3.56,1.78-7.9,2.97-12.24,2.97Z" style="fill: #2c2150;"/>
  <path d="m1135.73,318.67c-1.03,0-2.05-.46-2.72-1.34-1.15-1.5-.87-3.65.64-4.8.82-.63,8.22-6.19,14.48-7.11,1.9-.27,3.61,1.02,3.89,2.89.27,1.87-1.02,3.61-2.89,3.89-3.82.56-9.59,4.45-11.31,5.76-.62.48-1.35.71-2.08.71Z" style="fill: #2c2150;"/>
  <path d="m1180.79,307.29c-1.24,0-2.44-.68-3.05-1.85-.87-1.68-.21-3.75,1.48-4.61,4.45-2.3,11.64-1.13,13.03-.88,1.86.34,3.09,2.12,2.75,3.98-.33,1.86-2.08,3.1-3.98,2.76-2.53-.46-6.9-.69-8.66.23-.5.26-1.04.38-1.56.38Z" style="fill: #2c2150;"/>
  <path d="m1288.91,1151.43s6.62,2.88,15.71,6.16c-.27.23-.5.46-.73.73-11.1,13.47-42.87,23.19-67.62,24.11l-3.84-18.4,56.48-12.6Z" style="fill: #f5ae9f;"/>
  <path d="m1231.5,1182.51c25.32.28,60.61-9.83,72.4-24.18,1.5-1.83,4.03-2.56,6.31-3.17,2.73-.72,5.83-1.21,8.37-.04,19.42,8.92,25.15,13.63,58.23,3.45,10.49-3.23,24.81-6.95,33.53-.73,7.41,5.28,11.61,31.76,11.52,35.74-.02.72-.04,1.46-.31,2.13-.7,1.72-2.71,2.49-4.5,3.04-48.45,15.13-97.59,27.73-146.7,40.32-5.94,1.52-11.89,3.05-17.83,4.57-2.13.55-4.59,1.03-6.28-.27-1.27-.97-17.21-36.87-14.72-60.88Z" style="fill: #789ed3;"/>
  <path d="m1064.04,1232.24s-.08,0-.13,0l-77.28-4.26-31.42-26.65c-.96-.81-1.08-2.25-.27-3.22.81-.96,2.26-1.07,3.22-.27l30.25,25.65,75.75,4.18c1.26.07,2.23,1.15,2.15,2.4-.07,1.22-1.07,2.16-2.28,2.16Z" style="fill: #2c2150;"/>
  <path d="m1563.91,1243.39h-145.97c45.93-6.89,86.25-35.02,108.35-76.89,18.4-34.79,22.1-74.65,10.5-112.23-11.6-37.62-37.17-68.44-71.96-86.8-21.14-11.19-44.88-17.12-68.67-17.12-39.13,0-75.79,15.34-102.87,41.78l-12.05-74.52-28.22-165.65c.82-.23,1.64-.46,2.42-.68,1.69-.5,2.74-2.19,2.37-3.97-.23-1.19-5.8-29.08-6.16-35.43,0,0,.73-87.62-2.28-132,0,0,22.33,9.31,22.37,9.31,18.99,9.59,37.58-1.74,39.77-8.22,11-32.74,40.82-132.05,40.86-132.14.55-1.87-.46-3.7-2.28-4.29l-11.05-3.33c5.39-7.35,13.7-20.82,6.3-40.77-.05-.14-16.98-48.22-16.98-48.22-1.51-4.25-5.43-7.08-9.54-7.21l-1.23-3.79s126.2-37.62,130.4-38.86c2.28-.69,3.1-3.42,1.78-5.34,0,0-91.41-123.14-91.68-123.51-1.37-1.83-4.38-1.78-5.62.18l-78.35,118.76-32.14,23.88c-6.89,5.11-11.41,12.51-12.83,20.82-3.2,18.81,11.92,36.21,30.82,36.21,7.03,0,13.79-2.24,19.5-6.53l5.16-3.84,2.56,7.81-.73,2.28c-5.8,17.99-12.74,38.58.37,55.16-.18.27-18.9,70.18-18.99,70.59-1.14,4.29,5.43,6.07,6.62,1.78l13.01-48.67s44.29,12.42,44.47,12.42c1.01,0,1.92-.64,2.19-1.64.37-1.23-.36-2.47-1.55-2.83l-43.97-12.37,3.56-13.24,4.02,1.19,48.63,14.66-39.59,127.98c-5.94,9.54-20.32,9.68-30.55,4.93,0,0-27.17-12.65-27.94-13.01,0,0-2.15-19.91-2.65-24.06-2.56-19.68-5.07-39.18-10.5-58.31-1.64-5.57-8.9-26.66-12.28-31.32,16.8,19.13,43.47,60.95,43.83,61.23,0,.09.05.14.05.23l2.65,9.09c1.23,4.25,7.85,2.33,6.58-1.92l-2.65-9.09c-.23-.78-43.19-75.66-72.19-85.34-1.46-.96-20-5.21-20.45-5.07-1.32-3.01-3.88-11.46-6.21-20.27.87-.27,1.69-.55,2.51-.87,19.5-7.53,33.51-26.57,37.44-51,1.51-8.99,1.55-18.31.27-27.67-.41-3.15-1-6.26-1.74-9.36,1.19-1.19,2.24-2.56,3.1-4.02,4.75-7.94,4.57-17.58,3.61-24.25-1.46-10.32-5.48-19.95-11.55-27.94.41-6.07-.41-12.92-4.02-17.99-4.2-5.98-13.47-15.98-27.81-15.98-1.87,0-3.74.18-5.62.5-4.02.73-7.94,3.61-9.95,5.25-3.65-.59-13.01-1.96-26.39-1.96-12.24.36-23.88,3.01-35.25,7.49-14.38,5.66-29.59,20.14-31.82,37.21-17.99,9.18-25.48,36.44-20,55.75,2.56,7.72,4.15,15.66,7.9,22.97,3.93,7.67,9.86,13.7,16.99,18.45,10.55,7.03,19.31,8.08,23.65,8.08.78,0,1.42-.05,1.96-.09,4.93,5.21,10.41,9.82,16.25,13.74-.41,1.96-4.34,26.48-5.2,30-12.92,3.2-38.26,20.41-42.05,23.01-.05.05-3.42,2.37-3.56,2.56-12.01,11.64-29.22,45.38-51.28,100.13-2.19,5.48-29.59,79.13-29.59,79.13-7.44,19.5.5,41.32,18.86,51.96l63.51,36.66c-1.55,7.53-6.44,31.14-9.82,41.6-.78,2.47.96,3.79,2.97,4.47.14.05,4.61.41,12.28.91-2.74,26.21-4.11,153.69-4.15,159.26,0,1.92,1.51,3.47,3.42,3.47s3.42-1.51,3.42-3.38c0-1.37,1.42-134.42,4.15-158.98,4.93.27,10.64.55,17.03.73,6.3,19.91,16.03,41.91,26.94,63.56l-11.87,117.16-133.55,183.87-24.93-17.76c57.53-113.6,116.25-169.44,116.84-170.03,1.37-1.28,1.46-3.42.14-4.84-1.28-1.37-3.42-1.42-4.84-.14-.14.14-3.61,3.42-9.54,9.86h-129.63c-1.87,0-3.42,1.51-3.42,3.42v59.36c0,1.87,1.55,3.42,3.42,3.42h47.07v47.9c-.73,1.23-1.46,2.51-2.24,3.79h-21.6c-1.87,0-3.43,1.55-3.43,3.42v42.92c-.41.82-.82,1.64-1.23,2.47,0,0-42.74,41.32-43.33,41.87-1.28,1.19-3.33,3.1-3.7,6.03-.46,3.93,2.56,6.94,3.97,8.36,0,0,41.37,41.78,43.01,43.42,0,0,.05,30,.14,30.32h-152.46l15.25-2.56c1.74-.27,2.97-1.83,2.83-3.61l-1.42-21.32c5.07,2.92,9.86,6.35,13.79,10.32,5.43,5.53,12.28,8.58,19.31,8.58,1.28,0,2.6-.09,3.88-.32l57.9-9.59c2.37-.41,4.43-1.78,5.84-3.84,1.46-2.19,1.96-4.98,1.37-7.67l-.69-2.92c-2.65-11.46-11.19-20.32-21.73-22.56-11.41-2.42-27.58-8.86-44.2-25.39-.64-.87-1.37-1.78-2.15-2.69-5.2-6.03-9.91-14.38-14.11-24.43l-27.76-188.02s-57.85-246.15-57.9-246.42c.59,1.32,3.7-4.43,3.74-4.93.73-6.35,7.35-42.23,14.79-79.9l64.33,75.89c.68.82,1.64,1.23,2.69,1.23,5.8,17.26,22.97,38.58,34.02,49.45,3.65,4.66,8.81,6.99,15.07,6.99,7.72,0,17.03-3.52,27.17-10.5,1.37-1.05,3.06-3.06,3.24-6.99.5-11.14-11.69-32.83-19.27-43.79,4.7.04,10.32.04,12.69-.46,2.74-.55,12.19-5.07,13.42-8.54.55-1.55,1.78-5.16-.32-7.67-2.1-2.51-5.71-1.92-7.49-1.64-4.89.73-17.58-6.94-22.33-9.86-2.37-1.46-3.52-2.19-4.38-2.51-1.23-.5-3.33-1.01-5.8-1.46-.05-.78-.32-1.6-.87-2.19,0,0-58.17-64.56-58.26-64.65-2.88-3.15-8.13,1.23-5.07,4.61,0,0,42.92,47.62,42.92,47.71-11.23,10.64-23.15,20.82-35.43,30.23l-54.11-63.79s9.77-51.28,13.61-67.62c2.88-1.46,7.44-4.47,12.01-9.31l11,48.49c-3.56.87-6.99,2.24-10.27,4.02-3.84,2.05-.55,8.17,3.33,6.03,3.61-2.01,12.19-4.15,12.37-4.25,1.46-.73,2.33-2.05,2.05-3.7-.04-.23-13.06-57.53-13.06-57.53,1.28-2.01,2.56-4.2,3.65-6.58,8.9-18.95,10.82-53.15-30.32-108.62-2.65-3.61-7.4-5.66-12.92-5.66h-1.64l-.18-10.14c17.4-3.24,31.09-17.31,39.18-40.41,1.83-5.21,3.33-10.78,4.47-16.62,6.12-3.47,10.23-10.04,10.23-17.58,0-6.21-2.79-11.78-7.21-15.48,0-8.68-.64-16.3-1.96-22.92,2.24-4.93,2.28-10.46.14-16.03-4.11-10.73-15.34-19.63-23.93-22.65-.41-.27-.96-.87-1.69-1.6-4.79-4.7-16.62-15.66-39.4-19.86-.18-.05,0-73.79,0-73.79,0-9.31-7.12-16.89-15.89-16.89h-4.61V46.44c0-25.61-18.99-46.44-42.37-46.44H107.25c-23.33,0-42.37,20.82-42.37,46.44v505.9c0,1.92,1.55,3.42,3.42,3.42s3.42-1.51,3.42-3.42V46.44c0-21.83,15.94-39.59,35.52-39.59h558.55c19.59,0,35.52,17.76,35.52,39.59v172.82c-10.5,1.46-19.91,5.11-28.08,11.05-12.51-6.12-28.49-6.62-41.41-1.19-19.91,8.4-30.55,28.03-29.95,55.29.23,9.82,1.64,20.18,4.61,33.56.78,3.52,1.78,7.12,2.79,10.64,2.51,8.77,5.11,17.85,3.97,26.21-1.87,13.97-15.25,23.97-26.21,29.86-2.6,1.42-2.19,5.52.69,6.3,10.59,3.06,20.64,4.61,29.82,4.61,5.89,0,11.55-.64,16.85-1.87,16.89-4.02,30.87-15.11,36.48-28.95,1.87-4.7,2.88-9.59,3.38-14.57,1.92,1.6,3.93,3.1,6.03,4.57,4.34,6.76,9.82,13.24,16.03,18.9-.32,10.46-2.69,20.27-4.15,25.57-.09-.05-2.37-.05-2.37-.05-7.12-.14-21.92-.41-34.65,4.47-51.28,19.72-132.27,74.51-135.15,85.61-7.08,27.67-17.53,84.38-23.65,118.71l-84.65-44.11s-82.14-118.62-86.52-122.41c-.23-.18-21.92-10.14-22.74-10.14,0-.82.05-1.69.09-2.65,3.24.23,6.48.41,9.73.41,29.4,0,49.45-26.44,52.01-52.37.27-3.01,2.19-17.35,2.47-20.27.09-.41,1.51-6.67,1.51-7.12,1.14-1.23,2.1-2.6,2.92-4.06,2.06-3.7,3.01-7.81,3.74-11.32,2.65-12.74,3.83-25.8,3.61-38.86,1.05-.91,1.96-1.92,2.78-2.97,4.15-5.43,7.9-17.31,3.24-26.71-2.42-4.93-8.08-10.82-21.19-10.82-1.69,0-3.47.14-5.3.32-21.51-31.23-46.85-37.85-64.47-37.85-25.57,0-48.17,13.56-58.35,26.16-3.65,4.52-5.62,8.81-5.8,12.6-10.27,5.02-44.56,26.48-22.1,82.32,5.57,13.88,21.64,37.58,42.46,46.44.18,1.92.23,7.03-.05,7.85-1.64,5.02-6.71,20.32-11.87,21.73-.14.05-26.57,2.19-40.82,4.7-5.48.96-10.27,1.83-13.29,2.19-.09,0-.23,0-.37.05-.14,0-.32.05-.46.09-.05,0-.14,0-.18.05-18.63,3.52-56.75,32.6-87.35,58.08v9c20.09-16.94,44.02-36.03,63.24-48.22.09-.05.18-.09.27-.18,10.09-6.35,18.86-10.78,25.02-11.96.09-.05.18-.05.23-.05.09,0,.14,0,.23-.05,3.2-.37,8.13-1.23,13.83-2.24,5.75-1.05,12.46-2.24,18.77-3.15l48.81,58.17,25.8-9.18c1.42,6.57,4.93,26.25,2.97,54.29-2.47,34.84-13.2,77.94-13.33,78.49-.59,2.83,3.7,3.97,4.43,1.1.09-.46,10.96-43.97,13.47-79.26,1.83-25.52-.78-44.02-2.47-52.69l17.99,11.55,10.04-33.97c7.4,9.31,10.59,23.24,11.46,38.22,2.6,70.04-39.08,181.13-39.54,182.23,0,0-7.76,39.95-8.13,40-8.13.82-34.29,1.78-86.62-11.41-6.8-1.69-14.98-4.15-23.61-6.94-.59-2.1-1.46-4.02-2.42-5.57l-3.15-4.47c1.14.14,2.28.23,3.42.23,2.88,0,5.71-.46,8.4-1.37,2.74-.91,4.98-3.06,4.57-6.16-.32-2.69-2.33-4.52-3.2-5.2-2.74-2.1-6.07-3.06-8.9-4.93-2.88-1.87-4.89-4.7-7.03-7.76-2.33-3.24-4.7-6.62-8.31-9.13-2.28-1.6-5.39-3.7-8.68-5.57.73-1.37,24.38-106.2,32.19-130.13,15.34-10.09,27.17-18.49,29.08-21.78.96-1.64.41-3.65-1.19-4.66s-3.7-.41-4.7,1.14c-1.23,1.96-8.49,7.31-19.54,14.7,0,0-19.22,12.51-24.66,15.94-10.73,6.76-66.43,40.55-66.66,40.73-1,1.05-1.28,2.6-.59,3.93l21.23,41.6,17.49,34.34-40.23,27.81v8.31l6.53-4.52c1.37,9.91,4.02,26.53,6.94,32.46,3.56,7.21,10.46,14.84,17.4,19.91-.55.46-.96,1.05-1.14,1.78-7.76,27.76-7.53,76.57-7.35,123.78.09,28.67-1.74,83.51-1.92,83.74-2.51,2.65-13.19,14.61-20.46,23.19v10.87c3.61-4.52,27.49-31.69,27.62-32.05.18-.46.27-.87.27-1.32-.23-.23,1.42-55.66,1.32-84.47-.18-46.71-.41-95.02,7.08-121.91,0-.05.05-.09,0-.14.78.41,5.21,2.19,6.53,2.42-.96,28.13,12.01,64.61,29.31,100.18l-20.14,121.82s-51.78,64.65-52.01,64.97v7.99l56.3-71.05,19.31-116.7c12.92,25.66,27.81,50.5,41,71.14l-24.47,64.56-1.74,4.61c-3.33,4.84-50.04,64.2-90.4,115.29v11.1c43.42-54.97,95.56-121.22,96.66-123.65l1.74-4.61.09-.23,5.94-15.71c6.53.5,13.01,1.51,19.45,2.92,9.13,2.06,17.9,4.93,26.21,8.63-2.01,26.48.09,93.37,46.16,213.41.41.96,1.14,1.69,2.05,1.96.18-.32.27.14,0,0-1.19,1.73-2.05,4.02-2.6,6.94-3.61,20.23,7.26,42.78,11.78,51.05H107.25c-19.59,0-35.52-17.76-35.52-39.59v-637.13c0-1.87-1.51-3.42-3.42-3.42s-3.42,1.55-3.42,3.42v637.13c0,16.71,8.13,31.41,20.27,39.59H3.42c-1.87,0-3.42,1.55-3.42,3.42s1.55,3.42,3.42,3.42h1560.49c1.92,0,3.42-1.55,3.42-3.42s-1.51-3.42-3.42-3.42Zm-245.37-891.63c1.42,0,2.79,1.14,3.38,2.74l16.85,47.9c.23.59,0,1.1-.18,1.19l-7.35,2.56c-.68.27-1.42.37-2.19.37-3.33,0-6.62-2.51-7.9-6.16l-11.83-33.6c-2.06-5.84.37-12.01,5.39-13.79,0,0,3.52-1.19,3.84-1.19Zm12.92,61.37c-.18.78-.41,1.51-.78,2.24-1.37,3.01-3.83,5.21-7.12,6.3-6.21,1.96-13.33-2.1-15.48-8.72l-3.61-11.14c-.09-1.96-.68-6.53-.73-6.94,1.28-1.83,2.88-4.57,5.16-8.63l5.8,16.39c2.24,6.44,8.04,10.73,14.34,10.73.82,0,1.64-.05,2.42-.23Zm-29.68-51.55c-2.06-.09-4.15.46-6.12,1.64-.91.55-2.92,1.92-3.1,1.92l-2.1-6.48,20.64-15.25,1.05,3.24c-6.16,2.28-10,8.22-10.36,14.93Zm53.69-180.03l85.89,115.65-129.95,38.72h-.05l-30.55-41.18,74.65-113.19Zm-79.54,118.07l29.36,39.54-7.44,5.52-28.63-40.09,6.71-4.98Zm-.55,61.73c-4.52,3.38-9.86,5.16-15.43,5.16-14.84,0-26.44-13.56-24.06-28.22,1.1-6.58,4.7-12.42,10.14-16.48l17.67-13.1,28.63,40.04-16.94,12.6Zm56.66,77.76s-32.97-9.91-33.06-9.95c-3.2-1.78-5.43-3.42-6.58-4.84-3.74-4.66-6.53-11.32-6.57-17.21-.09-4.43,1.28-9,2.15-13.29.82-4.2,1.87-8.4,3.33-12.47,1.51-4.2,3.74-9.86,7.85-12.24,2.19-1.28,4.57.87,5.07,2.56,1.46,5.11.27,7.67.27,7.67-1.23,2.15-8.26,11.69-7.44,17.58,1.14,8.31.96,12.01-2.33,13.2-1.73.68-2.65,2.65-2.01,4.43.5,1.37,1.83,2.24,3.2,2.24.41,0,.82-.09,1.23-.23,1.69-.64,3.06-1.51,4.06-2.56l.32,1.05c2.74,8.36,10.18,13.97,18.54,13.97,1.92,0,3.79-.27,5.89-.96,4.84-1.6,8.72-5.07,10.91-9.77,1.14-2.37,1.74-4.93,1.83-7.49l2.15-.78c2.51,14.06-4.38,23.15-8.72,28.95-.05.05-.09.09-.09.14Zm-356.14,610.23v-36.44h23.61c-7.53,10.96-15.43,23.06-23.61,36.44Zm-50.5-43.28v-52.51h120.04c-10.04,11.37-24.24,28.58-40.55,51.69-.18.27-.41.55-.59.82h-78.9Zm-52.19-341.99c.59.23,1.78,1.01,3.42,2.01,9.45,5.8,20.09,11.87,26.98,10.78.09,0,.18,0,.23-.05-1.6,1.37-6.48,4.06-8.31,4.43-2.56.5-12.6.37-18.35.14-1.55-.14-2.78.78-3.33,2.15-.55,1.32-.18,2.83.91,3.84,4.47,4.02,22.37,33.74,21.87,44.52-.04,1.1-.27,1.64-.36,1.73-11.55,7.9-26.21,13.38-33.15,4.52-12.1-11.83-28.86-33.33-33.19-48.72l34.56-27.03c3.88.5,7.35,1.14,8.72,1.69Zm-21.37-18.95l9.77,10.82-37.21,29.13-7.58-8.95c.14-.37,23.93-20.5,35.02-31Zm-56.71-330.07c.09-1.78.18-3.56.23-5.25,1.78,2.51,2.79,5.62,2.79,8.9,0,4.29-1.73,8.17-4.52,11,.73-4.79,1.23-9.68,1.51-14.66Zm-435.22,40.45c-1.23,4.16-6.99,7.08-10.32,9.5-9.27,6.76-19.13,2.51-29.5,2.15-4.89-.14-10.78.5-16.44,1.14-5.94.64-12.1,1.32-16.94,1-7.17-.46-14.29-5.07-17.67-11.55-1.96-3.65-1.74-10.09-1.55-15.25.05-1.32-.27-8.81-.27-8.86-1.28-13.29,6.35-19.59,14.2-23.97,4.2-2.37,9.31-3.52,15.66-3.52,7.4,0,14.7,1.42,21.92,2.79,8.31,1.55,16.39,1.51,23.79-.09,3.97-.87,8.9-1.96,13.93-3.38,1.83,7.81,4.11,15.16,4.84,23.24.32,3.65.41,7.35.32,11-.09,5.3-.5,10.73-1.96,15.8Zm11.73-55.8c-.09,10.36-1.14,20.68-3.1,30.82-.59-8.68-2.19-17.35-4.89-25.61-.18-.55-.46-1.83-.46-1.92.09-.37,1.78-1.05,3.79-2.01,1.92-.96,4.11-2.28,4.66-2.42v1.14Zm-142.46,27.81c-4.93,6.26-4.38,15.52,1.28,21.51,4.38,4.66,8.72,9.41,12.6,14.47,1.92,2.56,5.8,8.63,6.03,9.18.05,1.23.09,2.51.14,4.06.09.05.14.09.18.18-.05,0-.14-.05-.23-.09-15.84-7.9-29.13-25.3-35.57-41.23-20.64-51.32,9.82-69.58,19.22-73.83,3.42-.5,6.67-.55,10.14-.73,12.78-.68,18.72,2.28,18.99,2.28,2.51,0,3.1-3.52.82-4.43-6.48-2.47-13.61-2.42-19.82-2.42-2.24,0-4.57-.14-6.76.23-.14-2.24,1.42-5.62,4.29-9.18,9.45-11.73,30.73-23.61,53.01-23.61s43.7,12.42,59.49,35.89l-13.65,6.94c-1.87.91-3.7,1.87-5.57,2.69-13.29,5.84-28.86,6.35-42.69,1.32-2.78-1-4.34,3.33-1.55,4.34,6.85,2.42,14.06,3.65,21.23,3.65,8.54,0,17.03-1.74,24.84-5.16,5.62-2.47,11.14-5.3,16.57-8.13,2.33-1.14,4.84-3.42,7.17-4.2,3.06-1.1,8.26.18,11.28,1.14,10.96,3.42,11.32,17.49,5.16,25.57-7.35,9.59-23.47,11.78-34.47,14.15-14.98,3.24-29.31-2.83-44.24-2.83-13.47,0-28.72,6.67-34.52,19.82-2.6,5.84-2.01,11.14-1.87,17.35.18,6.85-.96,13.93.96,20.64,2.42,8.49,9.73,15.2,18.17,17.72,12.88,3.83,26.62-1.46,40.04-.73,6.71.37,13.38,2.28,20.09,1.74,6.99-.55,13.74-3.84,18.49-9.04-.55,10.59-2.79,21.28-7.72,30.68-4.98,9.41-12.88,17.49-22.74,21.51-11.69,4.79-24.98,3.56-37.4,1.14-10.36-2.01-21.37-5.34-27.67-13.79-4.61-6.26-5.89-14.34-6.48-22.05-.82-10.78-.5-21.55-.27-32.33.18-9.63,2.19-19.13-5.02-26.57-5.98-6.16-16.8-4.38-21.96,2.15Zm19.95,32.78c-3.42-4.52-7.9-9.77-13.7-15.94-3.29-3.52-3.65-9.04-.87-12.65,1.6-2.01,4.38-3.33,7.12-3.33,4.2,0,5.84,3.42,7.76,6.53.23,4.7-.27,22.33-.32,25.39Zm18.08,114.97l-44.93-53.47c5.84-.73,10.96-1.1,14.11-.64,3.47,5.02,14.93,16.67,51,46.94l-20.18,7.17Zm24.25-12.69c-21-17.67-42.42-36.76-48.31-43.56,4.11-3.01,7.31-8.95,10.05-15.93,6.16,15.98,24.2,22.56,42.51,24.88-.37,5.71.14,9.59,2.01,11.78,0,.5-3.38,13.74-6.26,22.83Zm20.5,15.25l-15.07-9.68c5.98-18.63,7.81-25.61,8.22-28.54l15.84,7.4.05.05-9.04,30.77Zm476.22,758.58l-8.36-31.41c4.89,1.64,11.32,3.97,17.9,7.17l1.51,22.42-11.05,1.83Zm55.38-60.36c.14-.37.27-.68.41-1.05,14.7,12.15,28.72,17.4,39.08,19.63,6.76,1.42,12.42,6.48,15.25,13.38,0,0-59.72,9.91-60.04,9.95-2.65.46-2.37,4.52.37,4.52.14,0,61.05-10.05,61.05-10.05l.55,2.51c.27,1.14-.14,2.97-1.64,3.2l-57.9,9.59c-.91.14-1.83.23-2.74.23-5.16,0-10.27-2.33-14.43-6.53-13.61-13.83-36.12-21.19-45.75-24.29-1.46-.5-3.06-1-3.84-1.32-6.48-8.63-2.83-27.3,3.33-37.58,2.65,2.69,5.94,5.34,9.45,7.72-4.02,7.26-5.71,16.16-4.61,24.7.37,2.88,4.89,2.33,4.57-.59-.96-7.44.41-15.25,3.88-21.6,7.72,4.75,15.66,8.36,19.63,9.5,8.63,2.47,15.66,3.74,21,3.74,6.48,0,10.68-1.92,12.37-5.66Zm-10.59-11.73c4.38,5.07,4.79,8.04,4.38,8.9-.37.73-2.19,1.64-6.16,1.64-4.7,0-11.1-1.19-19.13-3.47-7.9-2.24-24.7-11.69-31.19-19.22l37.9-11.74c4.25,9.68,8.95,17.81,14.2,23.88Zm-52.69-255.32l9.31,39.68,27.3,185.15-47.9,14.84c-51.46-123.01-41.92-196.47-41.78-197.2.09-.68-.05-1.32-.32-1.96-5.34-11.23-32.42-68.58-39.4-82.83l21.55-88.76,12.69-41.32c-.32-.96-1.1-1.73-2.1-2.05-1.83-.55-3.74.41-4.34,2.19l-12.88,39.31-92.82,368.65-46.02-2.74c.05-.87.05-1.73.09-2.56h-.09c4.93-156.38,34.61-212.5,34.88-213.05.27-.5.46-1.1.46-1.64,0-.14,1.19-53.51,1.1-59.17-.32-40.27-2.97-75.84-7.99-106.2-.64-3.97-2.47-8.81-4.61-14.38-4.11-10.82-9.09-23.93-8.77-38.13.14-9.18,2.47-18.86,8.72-28.63,14.61,11.19,65.11,21.23,75.52,22.88,7.99,1.23,15.2,2.19,21.69,2.88,9.68,1,17.76,1.42,24.47,1.42,10.64,0,17.94-1,22.83-2.19l48.4,205.83Zm-167.48,265c2.92,5.66,2.79,8.68,2.24,9.59-.41.68-1.83.82-2.6.82-3.15,0-9.41-1.46-21.64-8.4-7.49-4.2-22.65-18.4-26.44-27.17l41.82,2.51c1.19,8.67,3.33,16.3,6.62,22.65Zm125.88-477.09c.09-.05.14-.09.14-.09-.09.23-.14.23-.14.09Zm49.63-382.26c-.37,6.21-1.1,12.37-2.15,18.31-.04.32-.14.69-.18,1-1.1.27-2.28.41-3.52.41-8.63,0-15.62-7.03-15.62-15.66s6.99-15.66,15.62-15.66c2.19,0,4.29.46,6.16,1.23,0,3.24-.09,6.76-.32,10.36Zm-5.84-16.16c-11.14,0-20.18,9.09-20.18,20.23,0,.87.05,1.69.18,2.51l-1.55.09-1.46-6.71c-.41-1.83-2.24-3.01-4.06-2.6-1.87.41-3.01,2.24-2.6,4.06l1.23,5.71-2.28.14c-.09-11.1-9.09-20.04-20.23-20.04-9.27,0-17.08,6.21-19.45,14.75l-15.11-4.34c4.38-6.39,17.35-22.1,38.58-20.55,3.52.27,7.44.96,11.6,1.69,5.8,1,11.83,2.06,17.62,2.06,8.36,0,16.25-3.24,22.92-8.22.5,3.74.78,7.81.91,12.19-1.96-.64-3.97-.96-6.12-.96Zm-35.29,23.61c0,8.63-6.99,15.66-15.66,15.66s-15.66-7.03-15.66-15.66,7.03-15.66,15.66-15.66,15.66,7.03,15.66,15.66Zm-39.04-185.74h4.61c4.98,0,9.04,4.52,9.04,10.04v72.69c-4.7-.5-9.27-.68-13.65-.46v-82.28Zm-43.65,225.87c-4.79,11.83-16.94,21.32-31.69,24.84-10.41,2.47-22.24,2.24-35.34-.64,13.29-8.81,21.05-19.31,22.56-30.68,1.32-9.77-1.46-19.54-4.2-28.99-1-3.56-1.96-6.94-2.69-10.27-2.83-12.92-4.2-22.83-4.43-32.19-.37-17.17,3.79-39.59,25.8-48.86,10.05-4.29,22.42-4.34,32.78-.23-2.28,2.05-4.38,4.25-6.3,6.62-.27-.37-.59-.64-1.05-.82-14.29-5.3-28.67.82-37.62,16.03-1.46,2.51,2.42,4.84,3.97,2.33,7.72-13.15,19.95-18.54,32.01-14.06-10,13.51-15.16,30.82-14.66,49.68.5,17.72,9.09,35.16,24.06,49.54-.14,6.21-.91,12.19-3.2,17.72Zm-14.02-67.44c-.69-24.02,8.67-45.2,25.71-58.12,9.86-7.53,21.92-11.32,35.75-11.32,5.11,0,10.5.5,16.07,1.55,9.18,1.69,16.25,4.61,21.73,7.67,5.11,2.88,9.73,6.58,13.88,10.73.64.64-4.47,4.98-5.02,5.39-5.11,3.61-11.46,5.02-17.49,6.26-1.92.37-7.08.32-6.48,3.52.37,2.06,2.33,1.87,3.88,1.6,9.82-1.78,22.88-4.2,28.86-14.02,7.31,2.69,16.62,10.14,19.91,18.72,5.43,14.15-10.82,21.87-22.51,21.87-5.21,0-10.91-1-16.44-1.96-4.34-.78-8.4-1.46-12.28-1.78-23.1-1.69-37.39,13.42-43.47,21.69-4.02-5.52-9.82-7.62-14.66-7.62-10.78,0-16.89,10.18-13.1,20,2.65,6.85,4.93,10.41,6.94,13.56,1.96,3.1,3.74,5.89,5.66,11.55-16.76-13.93-26.44-31.51-26.94-49.27Zm36.34,57.58c0-.09-6.26-18.77-9.27-23.51-1.96-3.06-3.93-6.16-6.35-12.37-1.19-3.1-1.14-5.75.18-7.67,1.32-1.92,3.74-3.01,6.53-3.01,3.88,0,8.81,2.28,11.1,8.72.46,1.28,1.64,2.15,2.97,2.24.78.09,1.51-.09,2.1-.5l17.26,4.93c-.05.27-.05.59-.05.91,0,11.14,9.09,20.23,20.23,20.23,9.68,0,17.72-6.76,19.72-15.8l3.79-.23,3.56,16.3c-3.06.27-6.16.05-6.94-.55-1.42-1.23-3.61-1.05-4.79.41-1.23,1.46-1.05,3.61.41,4.84,2.15,1.78,5.57,2.28,8.68,2.28,2.47,0,4.7-.32,5.94-.5,1.64-.5,2.97-1.78,3.56-3.52.59-1.55.5-3.24-.23-4.7l-3.29-15.02,1.64-.09c2.83,7.72,10.23,13.2,18.9,13.2.87,0,1.69-.05,2.51-.18-.96,4.16-2.1,8.13-3.42,11.92-4.79,13.65-16.39,36.53-40.68,36.53-19.82,0-41.41-16.25-54.06-34.84Zm55.52,74.52c-.55.73-1.55,1.64-3.93,1.64-5.34,0-16.67-4.38-40.41-25.07,1.28-4.11,3.84-13.42,4.75-24.34,11.64,8.99,25.07,14.93,38.13,14.93.37,0,.73,0,1.1-.05l.37,13.83c1.55,5.34,2.88,15.2,0,19.04Zm-215.78,64.2c6.89-6.71,81.09-60.41,131-81,6.48-2.69,13.93-3.52,20.27-3.84,7.81,9.27,36.3,34.93,50.32,39.31,4.29,1.37,9.04,2.69,13.79,2.69,2.47,0,4.98-.37,7.4-1.23,7.67-2.83,13.01-10.18,12.65-17.53-.05-1.28-1.19-2.33-2.37-2.19-1.28.05-2.24,1.14-2.19,2.37.27,5.34-3.88,10.96-9.63,13.06-5.8,2.1-12.47.32-18.22-1.51-12.24-3.84-36.44-25.2-45.89-35.2,2.33-.05,6.94.05,6.94.05l1.19,1.05c21.55,19.04,36.8,28.26,46.62,28.26,5.02,0,7.9-2.37,9.41-4.38,4.2-5.57,2.83-20.68,2.83-20.68,3.29,0,6.07,1.1,7.4,2.88,28.03,37.81,39.18,70.54,32.28,94.7-5.48,19.13-20.5,26.57-21.51,27.08-1.14.32-2.05,1.28-2.33,2.47-4.57,19.18-30.45,150.63-30.96,157.39-.09.05-.18.09-.27.14-3.52,1.6-15.25,5.25-45.25,2.65-7.49-.64-16.12-1.74-26.07-3.29-29.91-4.79-71.96-17.08-73.97-22.74,2.74-7.81,19.72-35.8,28.81-47.49,1.51-1.92,2.97-3.74,4.38-5.52,20.04-25.25,31.18-39.31,23.15-138.44,7.26-3.1,12.37-5.16,13.79-5.43,1.87-.27,3.15-2.01,2.88-3.88-.27-1.87-2.01-3.15-3.93-2.88-4.66.73-34.15,14.15-51.32,22.1-23.83,11-35.57,16.53-41.37,19.68-.09-.09-14.88-9.91-14.88-9.91-1.55-1-3.7-.59-4.75,1-1.05,1.55-.59,3.7.96,4.75l13.1,8.63c-.05.18-16.94,101.45-16.94,101.45-8.95.96-18.17.59-27.08.27-4.89-.18-9.86-.37-14.88-.37,5.89-33.15,17.21-95.29,24.66-124.47Zm-25.43,129.03c5.16-.05,10.41.18,15.48.37,4.66.18,9.41.37,14.15.37,4.11,0,8.26-.14,12.33-.55l-2.24,13.24h-42.1c.55-3.01,1.32-7.67,2.37-13.42Zm.46,20.27h42.14c.09,0,.23,0,.32-.05.32,1.05.64,2.42.96,4.02-5.39,1.05-10.27,5.34-12.74,11.32l-12.83,31.32c-1.74,4.15-2.05,8.63-.91,12.6.5,1.74,1.23,3.29,2.19,4.61-2.28,2.19-4.93,3.52-6.67,2.56-.14-.09-33.01-12.42-33.01-12.42-1.69-1.64-2.05-9.68.05-18.67.5-2.19,1.14-4.43,2.01-6.67.96-2.69,2.24-5.39,3.74-7.9,2.6-4.25,9.31-13.38,14.75-20.73Zm45.98,10.55c.73,0,1.42.14,2.1.41l6.67,2.74c1.19.46,1.78,2.69.82,4.98l-17.58,42.97c-1,2.42-2.97,3.47-4.11,2.97l-6.67-2.74c-1.74-.68-3.06-2.28-3.7-4.52-.68-2.51-.46-5.39.64-8.17l12.83-31.32c1.78-4.29,5.48-7.31,8.99-7.31Zm-213.23-85.93c.73-2.83,13.61-52.14,7.08-89.81l63.56,91.18s-6.89,8.17-6.94,8.22c-2.83,3.33,2.33,7.76,5.25,4.43l6.85-8.13,84.88,44.2c-2.24,12.74-3.65,21-3.7,21.28-.14,1,.14,2.01.78,2.78.32.37.73.69,1.19.91-4.84,6.62-10,13.74-12.28,17.49-1.6,2.6-2.92,5.43-4.06,8.4-42.97-21.5-94.97-48.54-100.22-54.24,0,0-42.46-46.44-42.46-46.48.05-.05.05-.14.09-.23Zm-31.23,108.62c1.83-4.84,18.95-50,29.45-99.99l39.13,42.74c6.89,7.53,70.22,39.72,103.14,56.21-2.15,8.31-2.51,16.57-1.19,21.69.78,2.97,2.19,5.07,4.11,6.16.18.05,33.24,12.51,33.24,12.51,1.32.64,2.79,1.01,4.29,1.01,4.11,0,7.94-2.47,10.82-5.39.05,0,.05.05.09.05l6.67,2.74c1,.41,2.1.64,3.2.64,4.11,0,8.04-2.97,9.86-7.35l17.58-42.96c2.33-5.71.27-11.92-4.57-13.93l-6.67-2.74s-.14-.05-.18-.09c-.73-4.06-1.64-7.63-2.79-9.72l-1.05-4.52,19.09-113.74c7.76-4.29,47.35-22.83,72.37-33.92,7.4,94.33-3.1,107.62-21.92,131.31-1.42,1.78-2.88,3.61-4.38,5.57-8.68,11.19-25.02,40.04-29.77,48.99-7.49,14.06-12.1,25.84-11.83,37.81.27,14.57,5.3,27.85,9.22,38.13,2.01,5.25,3.7,9.77,4.25,13.1,5.07,30.64,7.72,66.75,7.9,107.76.05,5.66-1.1,57.12-1.14,58.17-.41.82-1.1,2.19-1.96,4.25-14.61-4.89-30.18-7.44-46.3-7.44-15.02,0-30,2.33-44.47,6.94-37.53,11.87-68.17,37.62-86.3,72.55-18.13,34.93-21.6,74.79-9.73,112.32,5.84,18.45,14.98,35.11,26.8,49.31-5.52,1.28-12.74,1.92-21.55,1.92-16.94,0-34.61-2.42-39.5-3.2l-3.1-4.15-33.7-208.16-37.39-233.73,8.26-40.82Zm114.6,496.63c-.73,1.51-1.78,2.79-2.6,3.61-4.02,4.15-9.82,6.8-15.89,7.21-4.98.37-30.36-3.24-42.51-5.48,5.62-5.52,9.54-7.72,10.96-8.4,4.57.73,22.83,3.33,40.87,3.33,3.24,0,6.35-.09,9.18-.27ZM104.47,562.75c13.01-7.72,45.34-27.08,71.59-43.88-8.36,27.39-27.03,116.43-27.17,117.02-.69,1.51-1.42,2.92-2.15,4.29-1.19-.46-2.33-.82-3.42-1.05-.05-.23-38.86-76.39-38.86-76.39Zm34.29,159.26c-2.83-.73-5.52-2.51-7.85-4.2-5.66-4.02-12.28-10.46-15.94-17.9-2.65-5.25-5.39-23.56-6.76-33.79,5.39-3.7,27.03-18.63,28.45-19.59,1.6-1.1,1.69-.91,3.42-1,3.24-.14,10.14,3.47,17.58,8.72,2.69,1.87,4.84,4.47,6.67,7.53,2.37,4.06,4.7,7.67,8.9,9.54,1.14.5,7.08,4.66,8.13,4.38-6.39,1.78-13.79.18-18.4-4.11-1.96-1.83-6.03-.5-5.16,2.24.55,1.78,2.6,3.7,3.7,5.2l8.63,12.24c1.69,2.79,4.2,10.14-.14,11.87l-29.59,18.99c-.41.09-.96.05-1.64-.14Zm107.39,240.9c-8.08-3.42-16.53-6.16-25.43-8.17-6.07-1.37-12.24-2.33-18.4-2.88l14.29-37.62c14.79,22.69,26.76,39.13,30.32,44.02-.23,1.05-.5,2.6-.78,4.66Zm7.76-4.57c.27-1,.05-2.1-.55-2.92-.41-.55-15.2-20.45-33.7-49.27-1.51-2.33-47.26-83.19-47.49-83.74-16.57-34.47-28.58-69.17-27.08-95.15l28.17-18.13c2.6-1.23,4.43-3.38,5.25-6.25.27-.82.41-1.64.5-2.51,9.5,3.06,17.26,5.3,21.14,6.3,9.18,2.33,17.53,4.2,25.16,5.75-.18,11.1-4.25,21.87-11.37,29.95-2.19,2.51-4.57,4.75-7.12,6.71-7.12,5.52-15.43,8.77-24.43,9.5-2.65.23-2.69,4.57.18,4.57h.18c8.95-.73,17.26-3.7,24.52-8.72l78.49,192.59s35.52,186.29,35.61,186.88c.55,2.88,5.07,2.15,4.52-.87l-35.75-187.29-79.13-194.19c2.24-1.83,4.34-3.88,6.35-6.16,7.67-8.72,12.1-20.23,12.46-32.05,23.01,4.38,38.54,5.53,48.4,5.53,4.7,0,8.04-.27,10.32-.55l36.94,230.9,30.64,189.49-67.12,17.94c-49.13-138.3-35.25-197.7-35.11-198.3Zm36.66,202.63l66.3-17.72,2.47,15.3-62.46,19.45c-2.19-5.8-4.29-11.51-6.3-17.03Zm65.75,5.71c-5.16,4.34-11.83,11.32-19.18,22.37-1.42,2.15-7.21,4.43-15.07,4.43-7.21,0-16.3-2.15-20.5-8.08l-.41-1.55,55.16-17.17Zm-50.45,67.44s159.3-47.07,159.58-47.17c2.79-.82,1.51-5.21-1.32-4.38l-135.61,40.09c-1.55-3.24-3.79-6.21-6.53-8.9-2.15-2.1-5.3,1.19-3.2,3.29,2.24,2.1,3.97,4.43,5.3,6.94l-20.09,5.94c-2.74-6.53-5.57-14.84-6.48-23.33,5.43.96,10.64,2.97,15.16,5.71,2.47,1.51,4.89-2.37,2.37-3.88-5.3-3.24-11.41-5.48-17.81-6.53-.09-2.83.09-5.62.59-8.31.09-.59.23-1.1.36-1.6,5.25,5.3,13.88,8.36,23.88,8.36,7.26,0,17.08-1.96,20.77-7.49,3.65-5.48,7.08-9.82,10.14-13.29,10.55,2.19,37.81,6.26,45.57,6.12,8.22-.18,15.07-3.7,19.86-8.67,2.19-2.28,3.61-4.7,4.25-7.17,7.12-.73,12.83-2.06,17.03-4.02,3.42-1.6,6.71-2.42,9.77-2.42,15.25,0,23.1,20.27,25.62,28.22-4.52,1.28-161.86,47.99-165.83,49.13-.87-1.55-2.05-3.84-3.38-6.62Zm18.72,9.27c2.01-.64,155.51-46.07,155.61-46.12,3.52-1.28,2.56-3.61,2.42-4.06-.32-1.51-8.86-36.66-33.15-36.66-3.97,0-8.08.96-12.37,2.92-12.05-14.02-21.41-30.59-27.26-49.08-11.32-35.8-8.04-73.83,9.27-107.12,17.31-33.29,46.53-57.85,82.28-69.17,13.83-4.38,28.08-6.62,42.42-6.62,15.16,0,29.86,2.42,43.7,6.94-7.53,19.63-21.6,66.3-28.03,153.32-1.14,14.88-2.01,31-2.56,48.31,0,.82.73,12.05.23,12.51-11.28,9.95-21.82,32.24-14.93,45.98.41.82.96,1.37,2.47,2.33l1.05,40.13c.05,1.78,1.42,3.2,3.2,3.33l17.35,1.23h.23c1.64,0,3.1-1.19,3.38-2.88l3.56-21.09c4.25,4.02,8.13,8.49,11.05,13.29,3.79,6.3,9.27,10.68,15.57,12.51h-275.46Zm227.02-42.24c4.34,2.74,10.09,6.53,15.8,11.14l-3.79,22.19-11.14-.78-.87-32.56Zm114.83,37.76c0,1.46-1,2.69-2.19,2.69l-58.67-4.16c-6.07-.41-11.64-4.11-15.25-10.14-10-16.62-30.23-28.99-38.86-34.24-1.28-.82-2.74-1.69-3.42-2.15-4.29-9.91,3.61-27.21,11.96-35.8,1.92,3.24,4.52,6.62,7.4,9.77-5.62,6.12-9.27,14.34-10.18,22.88-.14,1.23.78,2.37,2.05,2.51h.23c1.14,0,2.15-.87,2.28-2.06.82-7.4,3.93-14.61,8.77-20,6.3,6.35,13.2,11.64,16.89,13.74,10.87,6.12,19.27,9.27,25.02,9.27,4.93,0,7.31-2.24,8.45-4.11.05-.05.09-.14.09-.18,11.51,15.25,23.88,23.61,33.47,28.17,6.21,2.97,10.55,9.22,11.69,16.57l-60.68-4.29c-1.28-.09-2.33.87-2.42,2.1-.09,1.28.87,2.37,2.1,2.47l61.32,4.34-.05,2.6Zm-8.99-29.95c-7.85-3.74-17.81-10.27-27.44-21.6,21.37-15.43,37.94-36.16,48.4-59.77v-19.86c-8.72,29.59-27.08,55.89-52.6,74.29-1.83-2.47-3.65-5.16-5.43-8.04-.41-1-.91-2.05-1.46-3.1-2.74-5.39-4.66-11.87-5.84-19.27,1.19-.32,2.19-1.23,2.51-2.47l42.19-163.23c8.58,11.78,15.3,25.16,19.91,39.68.27.82.5,1.69.73,2.51v-19.86c-4.93-11.1-11.14-21.46-18.4-30.82l25.02-100.36c4.84,10.05,10.18,21.37,16.3,34.29.14.23.23.5.37.78v291.67c0,19.4-12.6,35.61-29.18,38.95,0-.05.05-.05.05-.09.46-1.14.73-2.42.73-3.7l.05-3.01c.09-11.73-6.12-22.33-15.89-26.98Zm30.87,34.43c12.1-8.17,20.23-22.88,20.23-39.59v-277.24c3.65,7.76,7.58,16.07,11.78,24.97-1.14,9.82-7.26,82.51,43.6,202.63.55,1.32,1.83,2.1,3.15,2.1.37,0,4.2-1.14,4.2-1.14-7.63,12.92-11.41,34.65-2.19,45.57.59.73,1.28,1.1,2.92,1.73l10.41,38.76c.27.96.91,1.78,1.78,2.19h-95.88Zm534.58-766.52c.5,1.51,4.15,12.33,4.79,14.57,2.05,6.89,3.97,14.52,5.66,22.69.23,1.05,1.32,11.83,1.37,11.96,9.95,63.05,7.95,131.27,7.9,132.32,0,0,0,53.7.14,54.11,1.74,4.48,5.71,23.15,7.76,33.06-.5.14-1,.27-1.51.41l-8.77-25.75s-3.88-72.64-9.41-125.11l-4.7-98.17-17.58-48.08c.46.59,7.99,9.5,14.34,27.99Zm-23.47-39.59l22.14,60.27,1.96,41.23c-2.79-17.4-6.03-32.6-9.68-43.51-4.66-13.93-23.06-48.67-30.45-62.46l16.03,4.47Zm7.94,60.18c16.67,49.77,24.66,197.02,25.84,220.3l-7.67,1.1c-5.66-25.3-41.6-186.11-51.64-212.59-6.26-16.57-26.85-38.99-43.56-55.34,5.43,1,10.96,1.46,16.53,1.46,7.26,0,14.52-.82,21.6-2.47,5.66-1.32,9.95-2.97,13.51-5.16,8.54,16.16,21.69,41.69,25.39,52.69Zm-2.74-227.75c3.42,5.84,5.75,12.47,6.71,19.27.73,5.34.96,12.88-2.28,18.95-.46-1.55-1.01-3.1-1.55-4.61-2.83-7.76-5.94-14.7-9.22-20.96,2.78-3.88,4.93-8.22,6.35-12.65Zm-109.03,103.24c-2.78.18-10.78.09-21.23-6.89-9.86-6.58-15.43-16.62-19.13-27.62-3.38-10.14-5.57-19.86-3.65-30.55,2.01-11.05,7.76-23.24,18.68-27.85,1.19-.5,2.01-1.64,2.05-2.92,1.05-15.16,14.75-28.22,27.72-33.38,12.1-4.75,24.61-7.26,37.62-6.94,7.26.23,14.66,2.1,21.83,2.1,1.1.23,2.28-.09,3.06-.87,3.56-3.29,7.31-5.07,12.19-5.07,10.32,0,22.37,8.45,24.52,18.86,2.28,11.14-2.56,24.24-12.05,32.74-9.73,8.58-24.7,9.73-37.94,10.73-2.24.18-4.38.37-6.53.55-19.36,1.78-34.43-.27-47.17-6.39-3.56-1.69-6.67,3.2-3.65,5.71,8.9,7.35,12.78,17.85,17.9,27.81,1.55,3.2.87,6.3-.18,8.04-1.42,2.28-2.42,1.1-4.2-.05-1.92-1.23-3.93-2.33-6.12-3.01-7.76-2.51-18.35,1.51-19.09,10.55-.64,8.31,8.13,16.8,13.79,21.37,1.42,2.78,3.93,9.31,1.6,13.1Zm6.26,2.88c4.38-8.26-1.96-19.41-2.24-19.95-.23-.37-.5-.68-.82-.96-7.44-5.84-12.05-12.1-11.73-15.89.04-.59.18-2.47,3.24-4.2,3.79-1.78,7.81-.78,13.01,3.01,1.37,1,2.92,1.51,4.52,1.51,2.97,0,5.75-1.74,7.63-4.79,2.06-3.33,3.29-8.95.46-14.61-.82-1.64-1.6-3.38-2.42-5.16-2.1-4.57-4.34-9.5-7.58-14.34,10.78,2.83,23.01,3.52,37.44,2.19,2.1-.18,4.25-.32,6.44-.5,14.29-1.1,30.5-2.33,41.92-12.46.59-.55,1.23-1.1,1.78-1.69,2.65,5.34,5.16,11.23,7.58,17.72,2.51,6.71,4.25,13.83,5.25,20.91,1.23,8.67,1.14,17.3-.23,25.61-3.61,22.33-15.71,38.99-33.15,45.7-5.07,1.96-10.68,2.97-16.71,2.97-19.5,0-39.54-9.77-54.38-25.07Zm70.04,51.73c-13.15,6.58-26.94,6.89-41.14,4.11-1.28-.27-17.58-3.93-17.03-5.84.87-3.15,4.52-26.07,4.93-28.54,11.83,6.67,24.84,10.46,37.58,10.46,3.47,0,6.8-.32,10.05-.87.73,2.69,5.62,19.95,5.62,20.68Zm-59.27,5.53c8.95,4.7,24.84,7.21,35.48,7.21,3.65,0,6.85-.27,9.45-.82,10.5-2.19,13.74-3.88,17.53-5.84.23-.14.46-.23.73-.37,1.01,1.83,2.37,4.38,4.02,7.49-3.15,2.01-7.08,3.47-12.42,4.7-14.25,3.33-29.22,3.1-43.33-.5-5.07-4.79-9.45-8.81-12.56-11.55l1.1-.32Zm-11.23-.09c.18.59,55.89,48.58,66.11,75.7,4.57,12.05,14.98,54.15,25.25,97.94l-46.07-98.44-53.83-70.77c3.01-1.69,5.94-3.24,8.54-4.43Zm-98.35,241.35c-15.43-8.95-22.14-27.26-15.89-43.56.05-.14,53.1-151.22,79.26-176.84,4.84-3.33,13.74-9.18,22.46-14.25l53.74,70.68,55.25,117.94c10.68,45.98,20.18,88.53,21.46,94.42l-6.89,30.55c-10.23,1.46-21.28,2.65-32.97,3.52l12.56-22.56c1.73-2.28,2.28-5.11,1.64-8.08-1.19-5.34-6.07-10.14-10.32-12.42l-5.34-2.51c3.97-1.55,7.63-3.93,10.46-6.94.69-.73,1.64-1.87,2.06-3.65.91-3.88-3.15-6.67-6.48-7.12-2.28-.32-9.36.09-10.68,0-3.65-.27-7.03-1.83-10.55-3.52-3.79-1.73-7.67-3.56-12.28-4.06-3.74-.41-12.74-.37-18.54-.27l.82-1.92c.68-1.64.05-3.47-1.51-4.34l-50.41-28.26c.05-2.42.87-71.27,1.51-73.28,14.15-29.27,27.58-58.76,27.3-64.79-.09-1.87-1.73-3.29-3.51-3.24-1.87.05-3.15,1.64-3.33,3.52-1.19,12.37-46.39,101.73-56.66,121.82-3.38,3.33-9.27,5.71-16.71,6.71-1.87.27-3.2,2.01-2.92,3.88.23,1.69,3.56,2.92,3.84,2.92,5.84-.82,13.56-2.69,19.13-7.3l55.29,31.05-20.77,48.67-81-46.76Zm126.02,18.17c4.98-.09,16.67-.18,20.73.23,3.47.37,6.67,1.87,10.09,3.47,3.97,1.87,8.04,3.79,12.97,4.11,1.74.14,3.38.05,5.02-.05,1.74-.09,3.42-.18,4.93,0-4.11,3.97-10,6.26-15.8,6.07-1.51-.05-3.06,1-3.43,2.6-.41,1.6.37,3.2,1.87,3.88l14.79,7.03c2.79,1.51,6.07,4.84,6.71,7.76.32,1.32-.09,2.05-.68,2.92l-17.67,31.73c-2.69,2.6-22.28,1.37-35.16-7.3-5.39-3.65-15.98-17.08-20.91-23.61l16.53-38.86Zm-24.61,40.36l-16.39-9.5,20.78-48.72,16.44,9.22-20.82,48.99Zm-29.68-139.35c-.23,10.5-.46,24.43-.59,44.75,0,3.38-.05,6.53-.09,9.04l-20.5-11.51c4.29-8.4,12.42-24.47,21.19-42.28Zm-13.7,163c3.01-10.82,6.62-27.81,8.36-35.93,0,0,34.88,20.14,34.97,20.18,2.01,1.19,4.34-.09,5.07-2.15,5.43,7.03,11,14.34,17.76,20.14-30.96.09-56.48-1.55-66.16-2.24Zm38.67,8.72c7.67.23,16.12.36,25.02.36,4.15,0,13.42-.18,13.74-.27,7.53,3.1,16.21,4.98,23.29,4.98,5.66,0,10.27-1.23,12.37-4.02.09-.14,1.32-2.33,1.32-2.33,14.43-1,27.94-2.42,40.27-4.25,1.37-.18,2.51-1.23,2.83-2.65l7.08-31.32,8.72-1.23,8.58,26.76c.46,1.32,2.06,2.37,3.42,2.56l28.08,164.92,33.83,208.75-32.97,7.72-10.05-63.79-1.05-6.85-8.26-52.51-1.1-6.85-10.09-64.2-59.72-159.58c-.46-1.19-1.73-1.78-2.92-1.32-1.19.46-1.78,1.74-1.32,2.92l59.49,158.94,9.95,63.24,1.05,6.85,8.26,52.51,1.1,6.85,10.18,64.84-48.03,11.23c-6.89-28.31-12.01-53.65-15.8-76.07-.41-2.33-.78-4.61-1.14-6.85-3.24-20-5.39-37.53-6.85-52.51-.18-2.37-.41-4.66-.59-6.85-2.69-31.87-1.92-51.09-1.46-57.62v-.27c0-4.66-6.16-11-8.58-14.7-6.16-9.41-12.24-18.9-18.17-28.49-16.99-27.44-33.19-55.48-47.53-84.47-8.67-17.67-16.8-35.71-22.97-54.42Zm-46.76,358.7h-17.12c11.64-15.98,24.98-34.34,38.13-52.51h126.11c2.69,16.03,6.07,33.51,10.27,52.51h-138.16c-4.43,0-4.43,6.85,0,6.85h139.72c2.69,11.96,5.75,24.47,9.13,37.53.37,1.55,1.78,2.6,3.29,2.6.27,0,5.48-1.28,5.48-1.28l2.06,10h-217.79c-.37-.78-.73-1.6-1.14-2.42-1.05-2.19-7.94-11.6-12.42-12.78-.41-2.01-.68-4.06-.82-6.26l4.7,3.29c1.46,1.01,3.7.69,4.75-.78,5.39-7.44,12.97-17.81,21.73-29.91h22.1c4.38,0,4.43-6.85,0-6.85Zm136.84-170.4c-.32,9.54-.32,26.85,1.83,51.69,0,.27,0,.55.05.82h-70.45c.18-.27,18.67-26.03,19.91-28.08l9.27-24.43h39.4Zm-36.8-6.85l13.42-35.48c11.14,17.76,19.82,30.73,23.1,35.48h-36.53Zm39.27,66.21c1.42,14.84,3.56,32.05,6.71,51.69h-120.04c15.02-20.73,29.36-40.5,37.35-51.69h75.98Zm34.52,150.45c-1-3.88-1.96-7.67-2.88-11.41l47.62-11.14,1.73,10.96-46.48,11.6Zm61.78-6.89c1.69.68,5.21,2.19,9.86,3.97-10.82,9.86-33.51,17.03-53.33,19.27-.23,0-.5-.05-.73-.05h-5.48l-2.42-11.6,52.1-11.6Zm-10.82-5.84l-1.74-10.87,33.01-7.76,1.69,10.41-32.97,8.22Zm-165.83-203.18l11.28-111.32c12.78,24.66,26.76,48.49,38.72,67.8l-26.98,71.23c-2.78,4.66-91.59,126.89-128.48,177.61l-28.54-20.87,134.01-184.46Zm-163.28,124.01h14.29c-4.75,8.31-9.5,17.03-14.29,26.12v-26.12Zm-2.1,47.07l46.21,32.87c-.05.64.05,8.08.41,10.91-13.61-5.66-32.05-22.1-44.06-39.4-1-1.37-1.92-2.74-2.79-4.11l.23-.27Zm.82,124.88v-23.29c6.35,6.48,12.69,17.26,18.81,23.29h-18.81Zm127.98-.87l-82.92-3.52-17.21-.73c-10-9.72-20.73-20.68-31.28-31.5-1.14-1.14-43.6-44.47-43.6-44.65.05-.46,3.7-3.88,6.21-6.26,0,0,29.77,28.67,29.95,28.86,2.1,2.01,5.3-1.28,3.15-3.29l-29.77-28.72c8.49-8.08,22.01-20.87,31.14-29.45,13.83,21.46,39.86,45.43,57.62,47.76.73.37,2.33,1.87,3.84,3.61-7.26.96-17.3,6.85-17.44,6.94-1.96,1.28-1.37,4.29,1.14,3.97,2.05-.23,3.88-1.64,5.71-2.47,5.34-2.56,12.01-5.16,13.56-3.93,0,0,2.83,4.25,2.92,4.38-3.56,1.19-8.81,3.61-16.62,8.26-1.78,1.05-1.14,3.61.68,4.15,2.01.64,5.43-2.42,7.17-3.38,3.51-1.92,7.17-3.84,11-5.02,8.72,14.61,20.27,18.86,53.06,22.46,2.78.32,5.94,3.2,8.49,7.72,3.1,5.57,5.3,13.88,4.11,21.28-.23,1.14-.5,2.33-.87,3.42h3.52c-1.74.05-3.56.05-3.56.09Zm7.12.87c.37-1.14.55-3.24.69-4.38,1.1-8.72-1.32-18.03-5.02-24.61-3.74-6.67-8.63-10.64-13.74-11.19-29.54-3.24-39.59-6.94-46.34-16.71h209.8c-1.37,20.5,5.34,43.01,10.91,52.51,0,0,1.92,3.47,2.15,4.38,0,0-158.48.32-158.44,0Zm166.06-1.19c0-.14-4.47-7.76-4.61-8.04,0,0,42.1-11.51,42.28-11.55,2.74-.73,1.6-5.2-1.19-4.38l-42.97,11.73c-3.97-9.72-8.36-26.57-7.4-42.65,3.1-.05,6.39-.27,9.72-.64,23.79-2.42,51.5-11.78,62.14-24.75.87-1.05,6.58-2.51,7.35-2.6-3.15,6.44-5.52,16.89-5.52,19.95,0,1.28,1,2.28,2.28,2.28s2.28-1.01,2.28-2.28c0-3.47,3.06-14.43,5.57-18.99l2.69,1.23c.73.37,1.51.68,2.19,1.05-2.69,5.34-2.83,13.29-2.78,14.79.05,1.23,1.05,2.24,2.28,2.24s2.28-1.01,2.28-2.28c0-4.75.82-10.23,2.33-12.92.27.14.55.27.82.37,12.69,5.3,23.19,6.57,49.49-1.51,6.35-1.92,13.7-3.93,20.18-3.93,4.34,0,7.81.91,10.36,2.74,3.33,2.37,6.3,11.96,8.13,20.27l-106.52,29.08c-1.23.32-1.92,1.55-1.6,2.78.27,1.01,1.19,1.69,2.19,1.69.23,0,106.84-29.08,106.84-29.08.68,3.7,1.1,6.71,1.05,8.08-.05.32-.05.82-.09.91-.05.14-.46.5-2.33,1.09-48.4,15.11-164.37,44.84-164.37,44.84-1.05.27-2.51.55-3.1.46Zm24.43,1.19c18.45-4.75,37.21-9.59,55.98-14.57,13.88,6.53,28.99,10.91,45.11,14.57h-101.09Zm66.11-17.26c26.44-7.08,52.92-14.52,78.99-22.69,1.69-.5,5.25-1.64,6.62-5.02.5-1.28.55-2.47.59-3.33.05-3.33-3.7-32.01-12.97-38.63-3.74-2.65-8.54-3.97-14.34-3.97-7.4,0-15.39,2.15-22.19,4.25-12.6,3.88-21.28,5.57-28.13,5.57-8.63,0-14.57-2.79-23.61-6.99l-4.06-1.87c-2.78-1.28-6.03-1.42-10.68-.18-1.46.41-3.38.91-5.16,1.96-2.42-.91-4.61-1.74-6.53-2.51l17.81-4.43c1.74-.41,2.83-2.1,2.56-3.88l-23.33-143.92c26.07-27.3,62.51-43.28,101.5-43.28,22.65,0,45.29,5.66,65.48,16.3,33.19,17.53,57.53,46.94,68.62,82.78,11.05,35.84,7.49,73.88-10.04,107.02-24.38,46.21-72,74.88-124.28,74.88-19.5,0-38.95-4.15-56.85-12.05Z" style="fill: #2c2150;"/>
</svg>